<svg id="Calque_1" data-name="Calque 1" xmlns="http://www.w3.org/2000/svg" viewBox="0 0 65 65"><defs><style>.cls-1{fill:#5c76b2;}.cls-2{fill:#ffd4ae;stroke:#000;stroke-miterlimit:10;stroke-width:0.25px;}</style></defs><circle class="cls-1" cx="32.5" cy="32.5" r="27.3"/><path class="cls-2" d="M25.21,38.17s1.17-5.91,1.6-8.94,2.47-10.88,3.34-11.45,6.77,0,9-1.23a7.44,7.44,0,0,0,4.15-4.61c.21-1.59-5-4.25-6.77-4.25s-8.36,4.83-9.67,6.41-15.77,26.66-16,30.26,14.18,4.76,18.46,5.19,17.53,4.18,24.29-5.19c2.11-3-3.13-7.48-8.58-7.48a22.57,22.57,0,0,0-9,1.59c-1.1.36-7-3.24-14,1.22"/></svg>