<?xml version="1.0"?>
<svg xmlns="http://www.w3.org/2000/svg" xmlns:xlink="http://www.w3.org/1999/xlink" xmlns:svgjs="http://svgjs.com/svgjs" version="1.1" width="512" height="512" x="0" y="0" viewBox="0 0 64 64" style="enable-background:new 0 0 512 512" xml:space="preserve" class=""><g><g xmlns="http://www.w3.org/2000/svg" id="Icons"><g><g><path d="m32 22c-2.241 0-4.305-.75-5.974-2h-22.026v32h21.404c-3.25-2.146-5.404-5.821-5.404-10 0-6.617 5.383-12 12-12s12 5.383 12 12c0 4.179-2.154 7.854-5.404 10h21.404v-32h-22.026c-1.669 1.25-3.733 2-5.974 2z" fill="#f6f6f6" data-original="#f0f0f0" class=""/></g><g><path d="m22 12h-18v8h22.026c-2.438-1.825-4.026-4.727-4.026-8z" fill="#5c76b2" data-original="#64c8f0" class=""/></g><g><path d="m42 12c0 3.273-1.588 6.175-4.026 8h22.026v-8z" fill="#5c76b2" data-original="#64c8f0" class=""/></g><g><path d="m4 20h4v32h-4z" fill="#dcdcdc" data-original="#d2d2d2" class=""/></g><g><path d="m4 12h4v8h-4z" fill="#f3a514" data-original="#46aad2" class=""/></g><g><path d="m8 16h2v2h-2z" fill="#353744" data-original="#505050" class=""/></g><g><path d="m12 16h2v2h-2z" fill="#353744" data-original="#505050" class=""/></g><g><path d="m16 16h2v2h-2z" fill="#353744" data-original="#505050" class=""/></g><g><path d="m32 60c1.105 0 2-.895 2-2v-8h-4v8c0 1.105.895 2 2 2z" fill="#353744" data-original="#505050" class=""/></g><g><path d="m32 58v-8h-2v8c0 1.105.895 2 2 2 .366 0 .705-.106 1-.277-.595-.347-1-.985-1-1.723z" fill="#353744" data-original="#3c3c3c" class=""/></g><g><path d="m30 54h4v2h-4z" fill="#fab400" data-original="#fab400" class=""/></g><g><path d="m30 54h2v2h-2z" fill="#f3a514" data-original="#dc9600" class=""/></g><g><path d="m52 42v-2h-8.181c.11.652.181 1.317.181 2z" fill="#dcdcdc" data-original="#d2d2d2" class=""/></g><g><path d="m12 40v2h8c0-.683.071-1.348.181-2z" fill="#dcdcdc" data-original="#d2d2d2" class=""/></g><g><path d="m52 46v-2h-8.17c-.116.689-.296 1.356-.525 2z" fill="#dcdcdc" data-original="#d2d2d2" class=""/></g><g><path d="m12 44v2h8.695c-.229-.644-.409-1.311-.525-2z" fill="#dcdcdc" data-original="#d2d2d2" class=""/></g><g><path d="m32 30c5.213 0 9.647 3.347 11.3 8h8.7v-14h-40v14h8.7c1.653-4.653 6.087-8 11.3-8z" fill="#dcdcdc" data-original="#d2d2d2" class=""/></g><g><path d="m32 52c5.523 0 10-4.477 10-10 0-5.523-4.477-10-10-10-5.523 0-10 4.477-10 10 0 5.523 4.477 10 10 10z" fill="#353744" data-original="#505050" class=""/></g><g><circle cx="32" cy="42" fill="#5c76b2" r="8" data-original="#64c8f0" class=""/></g><g><path d="m24 42c0-5.185 3.947-9.448 9-9.95-.329-.032-.662-.05-1-.05-5.523 0-10 4.477-10 10s4.477 10 10 10c.338 0 .671-.018 1-.05-5.053-.502-9-4.765-9-9.95z" fill="#353744" data-original="#3c3c3c" class=""/></g><g><path d="m36 42.5h-4.5v-6.5h1v5.5h3.5z" fill="#353744" data-original="#505050" class=""/></g><g><path d="m32 43c-.552 0-1-.448-1-1 0-.552.448-1 1-1 .552 0 1 .448 1 1 0 .552-.448 1-1 1z" fill="#f3a514" data-original="#fa6450" class=""/></g><g><circle cx="32" cy="12" fill="#f3a514" r="8" data-original="#3cc8b4" class=""/></g><g><path d="m26 12c0-4.079 3.055-7.438 7-7.931-.328-.041-.661-.069-1-.069-4.418 0-8 3.582-8 8s3.582 8 8 8c.339 0 .672-.028 1-.069-3.945-.493-7-3.852-7-7.931z" fill="#5c76b2" data-original="#1eaa96" class=""/></g><g><path d="m35.853 7.567c.651-.333 1.25-.753 1.791-1.235-.239-.238-.498-.455-.766-.662-.422.363-.875.691-1.37.954-.443-1.036-1.014-1.862-1.672-2.404-.59-.139-1.203-.22-1.836-.22s-1.246.081-1.836.22c-.658.542-1.229 1.367-1.672 2.404-.495-.263-.948-.591-1.37-.954-.268.207-.526.424-.766.662.541.482 1.14.902 1.791 1.235-.367 1.152-.591 2.488-.634 3.933h-3.488c-.01.166-.025.331-.025.5s.015.334.025.5h3.488c.043 1.446.267 2.781.634 3.933-.651.333-1.25.753-1.791 1.235.239.238.498.455.766.662.422-.363.875-.691 1.37-.954.443 1.036 1.014 1.862 1.672 2.404.59.139 1.203.22 1.836.22s1.246-.081 1.836-.22c.658-.542 1.229-1.367 1.672-2.404.495.263.948.591 1.37.954.268-.207.526-.424.766-.662-.541-.482-1.14-.902-1.791-1.235.367-1.152.591-2.488.634-3.933h3.488c.01-.166.025-.331.025-.5s-.015-.334-.025-.5h-3.488c-.043-1.446-.267-2.781-.634-3.933zm-4.353 11.843c-.818-.264-1.553-1.158-2.091-2.44.659-.244 1.36-.397 2.091-.445zm0-3.885c-.85.05-1.665.224-2.43.506-.317-1.039-.516-2.246-.558-3.531h2.988zm0-4.025h-2.988c.042-1.285.241-2.492.558-3.531.765.282 1.58.456 2.43.506zm0-4.025c-.731-.048-1.432-.202-2.091-.445.538-1.282 1.273-2.176 2.091-2.44zm1-2.885c.818.264 1.553 1.158 2.091 2.44-.659.244-1.36.397-2.091.445zm0 14.82v-2.885c.731.048 1.432.202 2.091.445-.538 1.283-1.273 2.176-2.091 2.44zm2.43-3.379c-.765-.282-1.58-.456-2.43-.506v-3.025h2.988c-.042 1.285-.241 2.492-.558 3.531zm-2.43-4.531v-3.025c.85-.05 1.665-.224 2.43-.506.317 1.039.516 2.246.558 3.531z" fill="#353744" data-original="#008c78" class=""/></g></g></g></g></svg>
