<svg id="Calque_1" data-name="Calque 1" xmlns="http://www.w3.org/2000/svg" viewBox="0 0 65 65"><defs><style>.cls-1{fill:#5c76b2;}.cls-2{fill:#fff;}</style></defs><g id="BACKGROUND"><circle class="cls-1" cx="32.95" cy="32" r="30"/><path class="cls-2" d="M46.75,17.1c-9-3.4-14,5.7-14.2,6-.2-.4-5.3-9.4-14.2-6-3.7,1.4-9.3,9-5.1,18.4h3.6l2.4-6.7,2.4,9.2.4-2.7h3.6l1.8-3.8,2.1,3.8h1L33,26.2l1.8,9.5h6.5v1H33.9l-1.2-5.8-1.4,5.4H28.9l-1.4-2.5-1.2,2.5H23.1l-1,6.9L19.2,32.3l-1.6,4.3H13.7c2.6,5.1,8.3,10.8,18.8,16.1h0C63.05,37.1,52.45,19.3,46.75,17.1Z"/></g></svg>