<?xml version="1.0"?>
<svg xmlns="http://www.w3.org/2000/svg" xmlns:xlink="http://www.w3.org/1999/xlink" xmlns:svgjs="http://svgjs.com/svgjs" version="1.1" width="512" height="512" x="0" y="0" viewBox="0 0 512 512" style="enable-background:new 0 0 512 512" xml:space="preserve" class=""><g><g xmlns="http://www.w3.org/2000/svg"><g><g><path d="m264 384h-68.118c-12.73 0-24.939 5.057-33.941 14.059l-17.941 17.941 40 40 19.314-19.314c3.001-3.001 7.07-4.686 11.314-4.686h49.372c13.255 0 24-10.745 24-24 0-13.255-10.745-24-24-24z" fill="#fab991" data-original="#fab991" style="" class=""/></g><g><path d="m379.314 372.686c-6.248-6.249-16.379-6.249-22.627 0l-59.314 59.314h-82.745c-4.243 0-8.313 1.686-11.314 4.686l-19.314 19.314 24 24 16-16h76.687c6.411 0 12.438-2.497 16.97-7.03l61.657-61.657c6.248-6.247 6.248-16.378 0-22.627z" fill="#f0915a" data-original="#f0915a" style="" class=""/></g><g><path d="m264 421.333h-5.333c-4.418 0-8-3.582-8-8v-10.667c0-4.418 3.582-8 8-8h5.333c7.364 0 13.333 5.97 13.333 13.333 0 7.365-5.969 13.334-13.333 13.334z" fill="#f0915a" data-original="#f0915a" style="" class=""/></g><g><path d="m141.657 413.657 42.343 42.343-40 40h-96l82.343-82.343c3.124-3.124 8.19-3.124 11.314 0z" fill="#f3a514" data-original="#d7e6f0" style="" class=""/></g><g><path d="m184 456 26.343 26.343c3.124 3.124 3.124 8.19 0 11.314l-2.343 2.343h-64z" fill="#5c76b2" data-original="#a5c3dc" style="" class=""/></g></g><g><path d="m336.069 40c-33.418-.024-62.857 17.032-80.069 42.92-17.212-25.888-46.651-42.944-80.069-42.92-54.039.038-96.948 45.557-95.896 99.585 2.384 122.442 126.448 186.056 159.79 200.959 5.092 2.275 10.598 3.456 16.175 3.456 5.577 0 11.083-1.181 16.175-3.456 33.343-14.902 157.406-78.517 159.79-200.959 1.052-54.028-41.857-99.547-95.896-99.585z" fill="#5c76b2" data-original="#cd3232" style="" class=""/></g><g><path d="m256 82.92c-17.212-25.888-46.651-42.944-80.069-42.92-52.839.037-95.029 43.559-95.893 96h208.032c26.51 0 48-21.49 48-48v-48c-33.419-.024-62.858 17.032-80.07 42.92z" fill="#353744" data-original="#ff4646" style="" class=""/></g><g><path d="m112.026 146.962c-4.346 0-7.911-3.479-7.996-7.844-.393-20.191 7.157-39.235 21.259-53.625 13.57-13.847 31.561-21.48 50.659-21.493h.005c4.416 0 7.997 3.578 8 7.995.003 4.418-3.576 8.002-7.995 8.005-14.767.01-28.703 5.938-39.243 16.692-11.071 11.296-16.998 26.252-16.688 42.114.086 4.417-3.425 8.068-7.843 8.154-.052.001-.105.002-.158.002z" fill="#5c76b2" data-original="#ff7878" style="" class=""/></g><g><path d="m336 168h-48v-48c0-4.418-3.582-8-8-8h-48c-4.418 0-8 3.582-8 8v48h-48c-4.418 0-8 3.582-8 8v48c0 4.418 3.582 8 8 8h48v48c0 4.418 3.582 8 8 8h48c4.418 0 8-3.582 8-8v-48h48c4.418 0 8-3.582 8-8v-48c0-4.418-3.582-8-8-8z" fill="#f3a514" data-original="#d7e6f0" style="" class=""/></g><g><path d="m288 136v-16c0-4.418-3.582-8-8-8h-48c-4.418 0-8 3.582-8 8v16z" fill="#f3a514" data-original="#ffffff" style="" class=""/></g></g></g></svg>
