<?xml version="1.0"?>
<svg xmlns="http://www.w3.org/2000/svg" xmlns:xlink="http://www.w3.org/1999/xlink" xmlns:svgjs="http://svgjs.com/svgjs" version="1.1" width="512" height="512" x="0" y="0" viewBox="0 0 512 512" style="enable-background:new 0 0 512 512" xml:space="preserve" class=""><g><g xmlns="http://www.w3.org/2000/svg"><g><g><g><g><path d="m496 104v-15.21c0-26.322-20.861-48.344-47.18-48.783-26.885-.449-48.82 21.21-48.82 47.993v32h80c8.837 0 16-7.163 16-16z" fill="#353744" data-original="#f5871e" style="" class=""/></g></g><g><g><path d="m112 424v-200c0-17.673 14.327-32 32-32-17.673 0-32-14.327-32-32v-72c0-26.51 21.49-48 48-48h288c-26.51 0-48 21.49-48 48v40c0 17.673-14.327 32-32 32 17.673 0 32 14.327 32 32v16c0 8.837-7.163 16-16 16 8.837 0 16 7.163 16 16v112c0 17.673-14.327 32-32 32 17.673 0 32 14.327 32 32v8c0 26.51-21.49 48-48 48h-288c26.51 0 48-21.49 48-48z" fill="#5c76b2" data-original="#fabe19" style="" class=""/></g></g><g><g><path d="m304 424v-8c0-8.837-7.163-16-16-16h-256c-8.837 0-16 7.163-16 16v8c0 26.51 21.49 48 48 48h288c-26.51 0-48-21.49-48-48z" fill="#353744" data-original="#f5871e" style="" class=""/></g></g></g><g><g><path d="m176 232h160c8.837 0 16-7.163 16-16 0-8.837-7.163-16-16-16h-160c-8.837 0-16 7.163-16 16 0 8.837 7.163 16 16 16z" fill="#353744" data-original="#f5871e" style="" class=""/></g></g><g><g><path d="m280 296h56c8.837 0 16-7.163 16-16 0-8.837-7.163-16-16-16h-56c-8.837 0-16 7.163-16 16 0 8.837 7.163 16 16 16z" fill="#353744" data-original="#f5871e" style="" class=""/></g></g><g><g><path d="m176 296h56c8.837 0 16-7.163 16-16 0-8.837-7.163-16-16-16h-56c-8.837 0-16 7.163-16 16 0 8.837 7.163 16 16 16z" fill="#353744" data-original="#f5871e" style="" class=""/></g></g><g><g><path d="m240 360h96c8.837 0 16-7.163 16-16 0-8.837-7.163-16-16-16h-96c-8.837 0-16 7.163-16 16 0 8.837 7.163 16 16 16z" fill="#353744" data-original="#f5871e" style="" class=""/></g></g><g><g><path d="m176 360h16c8.837 0 16-7.163 16-16 0-8.837-7.163-16-16-16h-16c-8.837 0-16 7.163-16 16 0 8.837 7.163 16 16 16z" fill="#353744" data-original="#f5871e" style="" class=""/></g></g><g><g><path d="m240 168h96c8.837 0 16-7.163 16-16 0-8.837-7.163-16-16-16h-96c-8.837 0-16 7.163-16 16 0 8.837 7.163 16 16 16z" fill="#353744" data-original="#f5871e" style="" class=""/></g></g><g><g><path d="m176 168h16c8.837 0 16-7.163 16-16 0-8.837-7.163-16-16-16h-16c-8.837 0-16 7.163-16 16 0 8.837 7.163 16 16 16z" fill="#353744" data-original="#f5871e" style="" class=""/></g></g></g><g><g><g><g><path d="m200 128h-32v120h-120c0 66.274 53.726 120 120 120h32c66.274 0 120-53.726 120-120 0-66.274-53.726-120-120-120z" fill="#353744" data-original="#d7322d" style="" class=""/></g></g><path d="m96 96h-32c-4.243 0-8.313 1.686-11.313 4.687l-32 32c-6.249 6.248-6.249 16.379 0 22.627l32 32c3 3.001 7.07 4.687 11.313 4.687h32c8.837 0 16-7.164 16-16v-64c0-8.837-7.163-16.001-16-16.001z" fill="#353744" data-original="#d7322d" style="" class=""/><g><g><circle cx="168" cy="248" fill="#f0e1cd" r="88" data-original="#f0e1cd" style="" class=""/></g></g><g><g><path d="m168 320c-4.418 0-8-3.582-8-8v-8c0-4.418 3.582-8 8-8s8 3.582 8 8v8c0 4.418-3.582 8-8 8z" fill="#b9af9b" data-original="#b9af9b" style="" class=""/></g></g><g><g><path d="m232 256h-8c-4.418 0-8-3.582-8-8s3.582-8 8-8h8c4.418 0 8 3.582 8 8s-3.582 8-8 8z" fill="#b9af9b" data-original="#b9af9b" style="" class=""/></g></g><path d="m176 225.371v-41.371c0-4.418-3.582-8-8-8s-8 3.582-8 8v41.371c-6.818 2.41-12.219 7.812-14.629 14.629h-25.371c-4.418 0-8 3.582-8 8s3.582 8 8 8h25.371c3.295 9.32 12.18 16 22.629 16 13.255 0 24-10.745 24-24 0-10.449-6.68-19.333-16-22.629z" fill="#5c76b2" data-original="#353744" style="" class=""/><g><g><circle cx="168" cy="248" fill="#353744" r="8" data-original="#f5871e" style="" class=""/></g></g></g><path d="m168 128h-88v-16c0-6.471-3.898-12.306-9.877-14.782-5.98-2.477-12.861-1.107-17.437 3.469l-32 32c-6.249 6.248-6.249 16.379 0 22.627l32 32c3.061 3.062 7.152 4.687 11.317 4.687 2.061 0 4.14-.398 6.119-1.218 5.98-2.477 9.878-8.312 9.878-14.783v-16h88c48.601 0 88 39.399 88 88s-39.399 88-88 88-88-39.399-88-88c0-4.418-3.582-8-8-8h-16c-4.418 0-8 3.582-8 8 0 66.274 53.726 120 120 120s120-53.726 120-120-53.726-120-120-120z" fill="#f3a514" data-original="#f04b37" style="" class=""/></g></g></g></svg>
