<svg id="Calque_1" data-name="Calque 1" xmlns="http://www.w3.org/2000/svg" viewBox="0 0 65 65"><defs><style>.cls-1{fill:#fff;}.cls-2{fill:#5c76b2;}</style></defs><circle class="cls-1" cx="32.5" cy="32.5" r="30"/><circle class="cls-2" cx="32.5" cy="32.49" r="27.3"/><path class="cls-1" d="M47.08,24.75c-2.3-14.7-12-8.2-14.5-6.9-1.2.7-1.6-.2-1.7-1.2,1.5-5.6,4.9-6.1,5-6.2a.82.82,0,0,0,.72-.91h0V9.45a.74.74,0,0,0-.76-.72H35.7c-.3,0-6.6,1-7.2,12.4a50.76,50.76,0,0,0,.7,10.3c.5,4,1,7.5-.4,8.9a3.59,3.59,0,0,1-3,.8A8.45,8.45,0,0,0,19.3,43a9.79,9.79,0,0,0-2.6,7.1h1.8a8.2,8.2,0,0,1,2-5.8,6.71,6.71,0,0,1,5.2-1.5h.8C34.88,50.55,49.28,39.25,47.08,24.75Z"/></svg>