<?xml version="1.0"?>
<svg xmlns="http://www.w3.org/2000/svg" xmlns:xlink="http://www.w3.org/1999/xlink" xmlns:svgjs="http://svgjs.com/svgjs" version="1.1" width="512" height="512" x="0" y="0" viewBox="0 0 64 64" style="enable-background:new 0 0 512 512" xml:space="preserve" class=""><g><path xmlns="http://www.w3.org/2000/svg" d="m56 23a19 19 0 1 0 -28.006 16.717 3.919 3.919 0 0 1 2.006 3.466v4.817h14v-4.754a4.019 4.019 0 0 1 2.043-3.55 18.974 18.974 0 0 0 9.957-16.696z" fill="#f3a514" data-original="#fab400" class=""/><path xmlns="http://www.w3.org/2000/svg" d="m35.5 33.944v-7.444a1.5 1.5 0 0 1 1.5-1.5 1.5 1.5 0 0 1 1.5 1.5v6.883a9.5 9.5 0 0 0 7.932-10.537 10.09 10.09 0 0 0 -8.765-8.323 9.5 9.5 0 0 0 -6.126 17.256 1.512 1.512 0 0 1 .507 1.928 1.491 1.491 0 0 1 -2.155.577 12.507 12.507 0 1 1 8.367 2.152 2.511 2.511 0 0 1 -2.76-2.492z" fill="#f3a514" data-original="#dc9600" class=""/><circle xmlns="http://www.w3.org/2000/svg" cx="37" cy="21" fill="#f3a514" r="2" data-original="#dc9600" class=""/><path xmlns="http://www.w3.org/2000/svg" d="m44 48v6a2.006 2.006 0 0 1 -2 2h-10a2 2 0 0 1 -2-2v-6z" fill="#5c76b2" data-original="#0a5078" class=""/><path xmlns="http://www.w3.org/2000/svg" d="m31 48v7.5a1.77 1.77 0 0 1 -.01.23 2.021 2.021 0 0 1 -.99-1.73v-6z" fill="#3b3735" data-original="#00325a" class=""/><path xmlns="http://www.w3.org/2000/svg" d="m35.5 32.944v-7.444a1.5 1.5 0 0 1 1.5-1.5 1.5 1.5 0 0 1 1.5 1.5v6.883a9.5 9.5 0 0 0 7.932-10.537 10.09 10.09 0 0 0 -8.765-8.323 9.5 9.5 0 0 0 -6.126 17.256 1.512 1.512 0 0 1 .507 1.928 1.491 1.491 0 0 1 -2.155.577 12.507 12.507 0 1 1 8.367 2.152 2.511 2.511 0 0 1 -2.76-2.492z" fill="#5c76b2" data-original="#f0f0f0" class=""/><circle xmlns="http://www.w3.org/2000/svg" cx="37" cy="20" fill="#5c76b2" r="2" data-original="#f0f0f0" class=""/><path xmlns="http://www.w3.org/2000/svg" d="m30 50h5a1 1 0 0 1 1 1 1 1 0 0 1 -1 1h-5a0 0 0 0 1 0 0v-2a0 0 0 0 1 0 0z" fill="#3b3735" data-original="#00143c" class=""/><path xmlns="http://www.w3.org/2000/svg" d="m38 52h5a1 1 0 0 1 1 1 1 1 0 0 1 -1 1h-5a0 0 0 0 1 0 0v-2a0 0 0 0 1 0 0z" fill="#3b3735" transform="matrix(-1 0 0 -1 82 106)" data-original="#00143c" class=""/><path xmlns="http://www.w3.org/2000/svg" d="m28 52v8h-20v-7a5 5 0 0 1 5-5h11a4 4 0 0 1 4 4z" fill="#5c76b2" data-original="#c80a50" class=""/><path xmlns="http://www.w3.org/2000/svg" d="m28 52v5.95a2.5 2.5 0 0 1 -2-2.45v-6.96a3.98 3.98 0 0 1 2 3.46z" fill="#5c76b2" data-original="#a00028" class=""/><path xmlns="http://www.w3.org/2000/svg" d="m24 38.107v-2h-12v2a2 2 0 0 0 0 4 6 6 0 0 0 12 0 2 2 0 0 0 0-4z" fill="#f0c8a0" data-original="#f0c8a0" class=""/><g xmlns="http://www.w3.org/2000/svg" fill="#00325a"><path d="m18 32a2 2 0 0 0 -2 2 2 2 0 0 0 -2.336-1.973 2.075 2.075 0 0 0 -1.664 2.08v8a2 2 0 0 0 2-2v-3a1 1 0 0 1 1-1h6a1 1 0 0 1 1 1v3a2 2 0 0 0 2 2v-8.107a2 2 0 0 0 -2-2z" fill="#3b3735" data-original="#00325a" class=""/><circle cx="15.5" cy="39.5" r=".5" fill="#3b3735" data-original="#00325a" class=""/><circle cx="20.5" cy="39.5" r=".5" fill="#3b3735" data-original="#00325a" class=""/><path d="m18 39.5a.5.5 0 0 0 -.5.5v2a.5.5 0 0 0 1 0v-2a.5.5 0 0 0 -.5-.5z" fill="#3b3735" data-original="#00325a" class=""/><path d="m18 45a2.5 2.5 0 0 1 -2.5-2.5.5.5 0 0 1 1 0 1.5 1.5 0 0 0 3 0 .5.5 0 0 1 1 0 2.5 2.5 0 0 1 -2.5 2.5z" fill="#3b3735" data-original="#00325a" class=""/></g><path xmlns="http://www.w3.org/2000/svg" d="m8 54h4v6h-4z" fill="#f0c8a0" data-original="#f0c8a0" class=""/><path xmlns="http://www.w3.org/2000/svg" d="m30 43h-2v-1a1 1 0 0 0 -2 0v3h-1a1 1 0 0 0 0 2h1v7.5a2.5 2.5 0 0 0 2.5 2.5 2.5 2.5 0 0 0 2.5-2.5v-10.5a1 1 0 0 0 -1-1z" fill="#f0c8a0" data-original="#f0c8a0" class=""/><path xmlns="http://www.w3.org/2000/svg" d="m28 43h2a1 1 0 0 1 1 1v1a0 0 0 0 1 0 0h-2a1 1 0 0 1 -1-1v-1a0 0 0 0 1 0 0z" fill="#d2aa82" data-original="#d2aa82" class=""/><g xmlns="http://www.w3.org/2000/svg" fill="#00a0c8"><rect height="2" rx="1" width="8" x="46" y="43" fill="#3b3735" data-original="#00a0c8" class=""/><rect height="2" rx="1" width="8" x="46" y="47" fill="#3b3735" data-original="#00a0c8" class=""/><rect height="2" rx="1" width="8" x="46" y="51" fill="#3b3735" data-original="#00a0c8" class=""/></g><path xmlns="http://www.w3.org/2000/svg" d="m20 22a1 1 0 0 1 -1 1h-1q0-.945.09-1.92c0-.03.01-.05.01-.08h.9a1 1 0 0 1 1 1z" fill="#f3a514" data-original="#dc9600" class=""/><path xmlns="http://www.w3.org/2000/svg" d="m20 18a1 1 0 0 1 -1 1h-.58a16.835 16.835 0 0 1 .54-2h.04a1 1 0 0 1 1 1z" fill="#f3a514" data-original="#dc9600" class=""/><rect xmlns="http://www.w3.org/2000/svg" fill="#3b3735" height="2" rx="1" width="10" x="10" y="12" data-original="#00a0c8" class=""/><rect xmlns="http://www.w3.org/2000/svg" fill="#3b3735" height="2" rx="1" width="10" x="10" y="16" data-original="#00a0c8" class=""/><rect xmlns="http://www.w3.org/2000/svg" fill="#3b3735" height="2" rx="1" width="10" x="10" y="20" data-original="#00a0c8" class=""/></g></svg>
