<svg id="Calque_1" data-name="Calque 1" xmlns="http://www.w3.org/2000/svg" viewBox="0 0 65 65"><defs><style>.cls-1{fill:#fff;}.cls-2{fill:#5c76b2;}</style></defs><circle class="cls-1" cx="32.5" cy="32.5" r="30"/><circle class="cls-2" cx="32.5" cy="32.5" r="27.3"/><path class="cls-1" d="M48.67,35.56c3.2-4.2,6.8-25.6-17.5-24.1a12.69,12.69,0,0,0-10,12.8l-4.1,6.8a2.23,2.23,0,0,0,1.2,2.2l1.6.6v8.2a3.38,3.38,0,0,0,2.4,1.4h6v8.4s-.4,2.2,1.6,1.6,12-4.6,12-4.6a2.53,2.53,0,0,0,1.2-2.4,19.3,19.3,0,0,1,0-3.4C43.27,43.16,45.47,39.76,48.67,35.56Zm-.8-12.2a3.14,3.14,0,0,1,1.2,3.7,2.86,2.86,0,0,1-1.7,1.7.22.22,0,0,0-.2-.2,7,7,0,0,0-3.9-1.3,12.28,12.28,0,0,0-.3-2.7,5.64,5.64,0,0,0-1.1-2.5,3.9,3.9,0,0,1,1.5-.3,5.15,5.15,0,0,1,4.2,1.8Zm-8,.5a5.59,5.59,0,0,1,1.3-1.4,4.43,4.43,0,0,1,1,2.2,9.68,9.68,0,0,1,.3,2.4,7.39,7.39,0,0,0-2.1,0,2,2,0,0,1-1.5-.4,2.06,2.06,0,0,1-.5-1.3A5.63,5.63,0,0,0,39.87,23.86Zm-1.5.2a8.87,8.87,0,0,1,.2-1.7h0a5.68,5.68,0,0,1,1.3-.2,5.24,5.24,0,0,0-1,1.2A1.84,1.84,0,0,1,38.37,24.06Zm7-5.2a3.34,3.34,0,0,1,2.3,3.2,5.86,5.86,0,0,0-4.2-1.3,6.15,6.15,0,0,0-2.3.7,4.48,4.48,0,0,0-2.3,0c.1-1,.1-1.7-.4-2.1s-1.6-.5-3.4,0a9.12,9.12,0,0,1,.6-1,15.76,15.76,0,0,1,6.1,1.2h.1l3-.6v-.1A.45.45,0,0,1,45.37,18.86Zm-11.8,1.7h0c.1.1.1.2.1.4a1.71,1.71,0,0,0,1.3,1.4,4.53,4.53,0,0,0,2.6.2,14.75,14.75,0,0,0-.2,2.2,1.66,1.66,0,0,1-.7.1,4,4,0,0,1-1.5-.2,12.53,12.53,0,0,0-1.1-2,4.79,4.79,0,0,1-.7-2Zm0-1a1.42,1.42,0,0,1,.7-1c-.1.3-.3.6-.4.9Zm1.8,1.8a1,1,0,0,1-.7-.7v-.5c1.2-.4,2.7-.7,3.1-.4s.1,1,0,1.6A3.31,3.31,0,0,1,35.37,21.36Zm5.2-6.1a3.31,3.31,0,0,1,2.2,2.5l.4.3-1.3.3a18.21,18.21,0,0,0-5.6-1.2,10.63,10.63,0,0,1,1.4-1.6A3.72,3.72,0,0,1,40.57,15.26Zm-10.7.4a3.27,3.27,0,0,1,4.25-1.82h.05a4,4,0,0,1,1.9,1.5h.4a12.78,12.78,0,0,0-1.4,1.8,2.89,2.89,0,0,0-1.9,1.1,2.25,2.25,0,0,0-.6,1.6,1.88,1.88,0,0,1-1.6-.4c-1-.9-1-3-.9-3.8Zm-5.2,3.6a3.28,3.28,0,0,1,3.3-2c.3-.3.7-.5,1-.8a5.3,5.3,0,0,0,1.2,3.8,2.87,2.87,0,0,0,2.2.6,6.31,6.31,0,0,0,.8,2.3,5.1,5.1,0,0,0,.5.8,10.63,10.63,0,0,1-1.6-1.4c-1.4-1.7-5.4-.7-6.9-.3A3,3,0,0,1,24.67,19.26Zm5.8,8.4a3.36,3.36,0,0,1-3.2.4,3.19,3.19,0,0,1-2.13-4h0V24a2.3,2.3,0,0,1,.5-.8c2-.6,4.9-1,5.8,0a8,8,0,0,0,3,2.2v.3s-.1.2-.9.2A2.77,2.77,0,0,0,31,28Zm9.2,3.2c-.5,0-1-.1-1.5-.1a3.6,3.6,0,0,1-4.9.7,3.5,3.5,0,0,1-1.4-2.8l-.1-.1c.2-.7.7-1.7,1.7-1.7a2.11,2.11,0,0,0,1.8-.7.63.63,0,0,0,.1-.4,4.07,4.07,0,0,0,1.1.1h.3a1,1,0,0,1,1.37.35v.05a1.08,1.08,0,0,1,0,1.1,2.84,2.84,0,0,0,2.3.8h1.9a1.61,1.61,0,0,1-1.6,1.2c-.5.1-1,.3-1.1.8A.6.6,0,0,0,39.67,30.86Zm2.6,1.1a3.17,3.17,0,0,1-1.5-1.1h0c-.1-.1-.1-.2-.1-.4s.3-.1.5-.2a2.91,2.91,0,0,0,2.3-2.1c1.8.2,3.3.7,3.4,1.1h0a3.09,3.09,0,0,1-.2.9A3.59,3.59,0,0,1,42.27,32Z"/></svg>