<?xml version="1.0"?>
<svg xmlns="http://www.w3.org/2000/svg" xmlns:xlink="http://www.w3.org/1999/xlink" xmlns:svgjs="http://svgjs.com/svgjs" version="1.1" width="512" height="512" x="0" y="0" viewBox="0 0 512 512" style="enable-background:new 0 0 512 512" xml:space="preserve" class=""><g><g xmlns="http://www.w3.org/2000/svg"><g><path d="m464 448h-352c-17.673 0-32-14.327-32-32v-336c0-8.837 7.163-16 16-16h384c8.837 0 16 7.163 16 16v336c0 17.673-14.327 32-32 32z" fill="#353744" data-original="#87a5be" class=""/></g><g><path d="m448 384h-368v-304c0-8.837 7.163-16 16-16h384c-8.837 0-16 7.163-16 16v288c0 8.837-7.163 16-16 16z" fill="#353744" data-original="#a5c3dc" class=""/></g><g><path d="m432 416c0 17.673 14.327 32 32 32h-416c-17.673 0-32-14.327-32-32v-288c0-8.837 7.163-16 16-16h384c8.837 0 16 7.163 16 16z" fill="#5c76b2" data-original="#d7e6f0" class=""/></g><g><g fill="#f06423"><path d="m280 160c-4.418 0-8 3.582-8 8v52c0 2.206-1.794 4-4 4s-4-1.794-4-4v-52c0-4.418-3.582-8-8-8s-8 3.582-8 8v52c0 2.206-1.794 4-4 4s-4-1.794-4-4v-52c0-4.418-3.582-8-8-8s-8 3.582-8 8v52c0 11.028 8.972 20 20 20 4.505 0 8.653-1.516 12-4.038 3.347 2.522 7.495 4.038 12 4.038 11.028 0 20-8.972 20-20v-52c0-4.418-3.582-8-8-8z" fill="#f3a514" data-original="#f06423" class=""/><path d="m136 160c-4.418 0-8 3.582-8 8v30.111l-16.845-33.689c-1.659-3.317-5.383-5.06-8.993-4.208-3.611.852-6.162 4.076-6.162 7.786v64c0 4.418 3.582 8 8 8s8-3.582 8-8v-30.111l16.845 33.689c1.377 2.754 4.176 4.423 7.153 4.423.609 0 1.227-.07 1.84-.215 3.611-.852 6.162-4.076 6.162-7.786v-64c0-4.418-3.582-8-8-8z" fill="#f3a514" data-original="#f06423" class=""/><path d="m328 192c-4.411 0-8-3.589-8-8s3.589-8 8-8 8 3.589 8 8c0 4.418 3.582 8 8 8s8-3.582 8-8c0-13.233-10.767-24-24-24s-24 10.767-24 24 10.767 24 24 24c4.411 0 8 3.589 8 8s-3.589 8-8 8-8-3.589-8-8c0-4.418-3.582-8-8-8s-8 3.582-8 8c0 13.233 10.767 24 24 24s24-10.767 24-24-10.767-24-24-24z" fill="#f3a514" data-original="#f06423" class=""/><path d="m200 176c4.418 0 8-3.582 8-8s-3.582-8-8-8h-32c-4.418 0-8 3.582-8 8v64c0 4.418 3.582 8 8 8h32c4.418 0 8-3.582 8-8s-3.582-8-8-8h-24v-16h8c4.418 0 8-3.582 8-8s-3.582-8-8-8h-8v-16z" fill="#f3a514" data-original="#f06423" class=""/></g><g><path d="m400 280h-352c-4.418 0-8-3.582-8-8s3.582-8 8-8h352c4.418 0 8 3.582 8 8s-3.582 8-8 8z" fill="#353744" data-original="#a5c3dc" class=""/></g></g><g><path d="m208 416h-128c-8.837 0-16-7.163-16-16v-80c0-8.837 7.163-16 16-16h128c8.837 0 16 7.163 16 16v80c0 8.837-7.163 16-16 16z" fill="#f3a514" data-original="#64afe1" class=""/></g><g><path d="m392 320h-144c-4.418 0-8-3.582-8-8 0-4.418 3.582-8 8-8h144c4.418 0 8 3.582 8 8 0 4.418-3.582 8-8 8z" fill="#353744" data-original="#a5c3dc" class=""/></g><g><path d="m392 352h-144c-4.418 0-8-3.582-8-8 0-4.418 3.582-8 8-8h144c4.418 0 8 3.582 8 8 0 4.418-3.582 8-8 8z" fill="#353744" data-original="#a5c3dc" class=""/></g><g><path d="m392 384h-144c-4.418 0-8-3.582-8-8 0-4.418 3.582-8 8-8h144c4.418 0 8 3.582 8 8 0 4.418-3.582 8-8 8z" fill="#353744" data-original="#a5c3dc" class=""/></g><g><path d="m392 416h-144c-4.418 0-8-3.582-8-8 0-4.418 3.582-8 8-8h144c4.418 0 8 3.582 8 8 0 4.418-3.582 8-8 8z" fill="#353744" data-original="#a5c3dc" class=""/></g></g></g></svg>
