<svg id="Calque_1" data-name="Calque 1" xmlns="http://www.w3.org/2000/svg" viewBox="0 0 65 65"><defs><style>.cls-1{fill:#fff;}.cls-2{fill:#5c76b2;}</style></defs><path class="cls-1" d="M63,32A30,30,0,1,1,33,2h0A30,30,0,0,1,63,32Z"/><circle class="cls-2" cx="32.95" cy="32" r="27.3"/><path class="cls-1" d="M30.55,8.7h6.6s-1.5,12,.6,15.3,2.1,7.5-2.4,6.6-4.2-2.4-7.8-.6-4.2-6.2,1.2-7.8C28.85,22.3,31.25,19.3,30.55,8.7Z"/><path class="cls-1" d="M30.55,53.6h6.6s-1.5-12,.6-15.3,2.1-7.5-2.4-6.6-4.2,2.4-7.8.6-4.2,6.2,1.2,7.8C28.85,40.1,31.25,43.1,30.55,53.6Z"/></svg>