<svg id="Calque_1" data-name="Calque 1" xmlns="http://www.w3.org/2000/svg" viewBox="0 0 65 65"><defs><style>.cls-1{fill:#fff;}.cls-2{fill:#414042;}.cls-3{fill:#5c76b2;}.cls-4{fill:#353744;}</style></defs><path class="cls-1" d="M56.15,58.45c-1.5,2.2-45.9,1.1-47.4,0s-5.3-48.4-2.9-51.3,51-2.3,53.1,0S57.65,56.35,56.15,58.45Z"/><path class="cls-2" d="M37.45,60c-11.1,0-27.6-.5-28.7-1.3-.2-.1-.7-.5-1.6-9.2C5.65,36.25,4,9.35,5.85,7.05c1.6-1.9,19.4-2,24.9-2,10.8,0,27.3.5,28.6,2s.3,20.2,0,25.9c-.8,11.6-2,24.5-2.8,25.7C55.55,59.85,45.65,60,37.45,60ZM30.65,5.5c-13.7,0-23.5.8-24.5,1.9s-1,11.4,0,26c.9,14,2.3,24.4,2.8,25s14.3,1.2,28.5,1.2c13.1,0,18.2-.6,18.6-1.2.7-1,1.8-12.5,2.7-25.5.9-14.4,1-24.6.1-25.6s-13.6-1.85-28.2-1.85Z"/><path class="cls-3" d="M52,54.45c-2.1,1.3-37.4,1.6-39,0s-4.5-40.3-2.9-43.2,43.1-2.1,44.7,0S54.15,53.05,52,54.45Z"/><path class="cls-2" d="M31,55.85c-4,0-17.1,0-18.2-1.2s-2.2-14.4-2.7-21.2c-.7-9.7-1.1-20.6-.2-22.2s14.3-2,20-2c9.8,0,24.1.6,25.2,2,1.5,1.9-.1,31-1.8,40.4-.5,2.5-.8,3-1.1,3.2C50.75,55.45,38.75,55.85,31,55.85ZM29.9,9.55c-11.3,0-18.9.7-19.5,1.8s-.6,10.1.3,22c.8,11.1,1.8,20.3,2.6,21s6.3,1,17.8,1c10.7,0,19.9-.5,20.8-1.1,0,0,.4-.4.9-2.9,1.8-9.6,3.2-38.4,1.8-40C54,10.35,42.4,9.55,29.9,9.55Z"/><path class="cls-1" d="M44.45,25.55H21.15s-2.2-8.5,0-10.4,21.2-2.2,23.3,0S44.45,25.55,44.45,25.55Z"/><path class="cls-4" d="M32.75,19.55c-5.3,0-9.7,2.7-9.7,5.9h19.4C42.45,22.25,38.15,19.55,32.75,19.55Z"/><polygon class="cls-4" points="22.65 18.25 23.45 17.75 24.65 19.35 23.85 19.85 22.65 18.25"/><polygon class="cls-4" points="25.65 16.55 26.45 16.15 27.45 17.95 26.55 18.35 25.65 16.55"/><polygon class="cls-4" points="28.95 15.65 29.95 15.35 30.45 17.25 29.55 17.55 28.95 15.65"/><polygon class="cls-4" points="41.75 19.85 42.95 18.15 42.15 17.65 40.95 19.25 41.75 19.85"/><polygon class="cls-4" points="38.25 18.05 39.15 16.25 40.05 16.75 39.15 18.45 38.25 18.05"/><polygon class="cls-4" points="35.15 17.25 35.65 15.35 36.65 15.55 36.15 17.45 35.15 17.25"/><rect class="cls-4" x="31.72" y="15.43" width="2" height="1" transform="translate(16.44 48.48) rotate(-89.38)"/><path class="cls-2" d="M44.65,25.75H21v-.2c0-.4-2.2-8.7,0-10.7,1.2-1.1,7.3-1.6,12.3-1.6,4.7,0,10.1.4,11.3,1.6,2.2,2.3.1,10.3,0,10.7Zm-23.3-.5h23c.3-1.2,1.8-8.1,0-10-.9-.9-5.3-1.5-11.1-1.5-6,0-11.1.6-12,1.5C19.45,17,21.05,24.05,21.35,25.25Z"/></svg>