<?xml version="1.0"?>
<svg xmlns="http://www.w3.org/2000/svg" xmlns:xlink="http://www.w3.org/1999/xlink" xmlns:svgjs="http://svgjs.com/svgjs" version="1.1" width="512" height="512" x="0" y="0" viewBox="0 0 256 256" style="enable-background:new 0 0 512 512" xml:space="preserve" class=""><g><g xmlns="http://www.w3.org/2000/svg"><g><g><circle cx="128" cy="128" fill="#353744" r="93.685" data-original="#76a34f" style="" class=""/></g><g><g><path d="m58.39 183.26c-.63 0-1.21-.29-1.59-.78-.67-.88-.51-2.14.37-2.81.85-.65 2.149-.48 2.8.37.67.88.51 2.13-.37 2.81-.35.27-.77.41-1.21.41zm-4.58-6.56c-.689 0-1.319-.35-1.689-.93-9.031-14.3-13.811-30.82-13.811-47.77.01-49.45 40.24-89.68 89.69-89.69 11.03 0 21.81 1.99 32.04 5.92 9.88 3.79 18.95 9.27 26.95 16.27l.17.15c.21.18.409.36.62.54.819.74.89 2.01.149 2.83-.71.79-2.03.86-2.82.15-.159-.14-.319-.28-.479-.42l-.26-.23-.011-.01c-.02-.01-.029-.03-.05-.04l-.01-.01c-15.61-13.64-35.61-21.15-56.3-21.15-22.84 0-44.351 8.93-60.561 25.13-16.198 16.21-25.128 37.71-25.128 60.56 0 16.2 4.57 31.97 13.19 45.63.59.93.31 2.17-.62 2.76-.32.2-.691.31-1.07.31z" fill="#353744" data-original="#91b56b" style="" class=""/></g></g><g><g><g><circle cx="128" cy="128" fill="#5c76b2" r="80.241" data-original="#995222" style="" class=""/></g><g><circle cx="128" cy="128" fill="#353744" r="65.315" data-original="#8c3f0a" style="" class=""/></g><g><circle cx="128" cy="128" fill="#5c76b2" r="50.391" data-original="#7c3108" style="" class=""/></g></g></g><g><g><g><path d="m145.938 170.106c-6.483 0-12.327 2.739-16.437 7.123-.818.872-2.186.872-3.003 0-4.11-4.384-9.953-7.123-16.437-7.123-12.441 0-22.527 10.086-22.527 22.527 0 18.622 28.704 45.529 37.761 53.556 1.545 1.369 3.864 1.369 5.409 0 9.058-8.027 37.761-34.935 37.761-53.556.001-12.441-10.085-22.527-22.527-22.527z" fill="#353744" data-original="#e63950" style="" class=""/></g></g><g><path d="m156.062 172.511c1.535 3.044 2.404 6.481 2.404 10.123 0 18.622-28.703 45.529-37.761 53.556-1.545 1.369-3.864 1.369-5.409 0-1.306-1.157-3.028-2.717-5.005-4.577 6.038 6.438 11.773 11.713 15.005 14.577 1.545 1.369 3.864 1.369 5.409 0 9.058-8.027 37.761-34.935 37.761-53.556 0-8.8-5.049-16.416-12.404-20.123z" fill="#5c76b2" data-original="#d10028" style="" class=""/></g><g><g><path d="m159.168 174.405c2.701 3.715 4.298 8.285 4.298 13.229 0 18.622-28.704 45.529-37.761 53.556-1.545 1.369-3.864 1.369-5.409 0-1.864-1.652-4.566-4.112-7.672-7.126 5.153 5.319 9.86 9.633 12.672 12.126 1.545 1.369 3.864 1.369 5.409 0 9.058-8.027 37.761-34.935 37.761-53.556 0-7.497-3.665-14.134-9.298-18.229z" fill="#353744" data-original="#b7022d" style="" class=""/></g></g><g><g><path d="m168.032 196.801h-32.297c-1.595 0-3.031.964-3.637 2.439l-3.559 8.675-6.074-19.157c-.447-1.411-1.649-2.451-3.11-2.691-1.46-.241-2.932.361-3.807 1.554l-6.732 9.179h-20.848c.503 2.535 1.424 5.175 2.661 7.862h20.18c1.252 0 2.429-.597 3.17-1.606l3.332-4.543 7.008 22.101c.5 1.577 1.933 2.672 3.586 2.74.054.002.108.003.163.003 1.589 0 3.029-.959 3.636-2.439l6.669-16.256h27.001c1.234-2.686 2.155-5.326 2.658-7.861z" fill="#f3a514" data-original="#ffa91a" style="" class=""/></g></g><g><g><path d="m161.571 196.801c-.971 2.575-2.274 5.213-3.816 7.862h7.604c1.162-2.518 2.118-5.143 2.658-7.862z" fill="#f79219" data-original="#f79219" style="" class=""/></g></g></g></g><g><g><g><path d="m159.339 95.758c6.883-.279 12.237-6.085 11.958-12.968s-6.085-12.237-12.968-11.958-12.237 6.085-11.958 12.968 6.085 12.237 12.968 11.958z" fill="#f3a514" data-original="#ffa91a" style="" class=""/></g><g><path d="m183.641 115.168c-.29-3.611-3.453-6.304-7.064-6.014l-18.333 1.429c-.851.066-1.691-.218-2.327-.788l-40.301-36.099c-2.603-2.163-6.424-1.991-8.821.396l-13.633 13.57c-2.568 2.556-2.577 6.71-.021 9.278s6.71 2.577 9.277.021l9.402-9.359 10.675 9.561-48.385 52.47c-2.6 2.819-2.303 7.243.65 9.69 2.741 2.272 6.781 2 9.193-.619l30.426-33.033 17.68 17.062-14.515 4.388c-3.468 1.048-5.43 4.71-4.381 8.178 1.048 3.468 4.71 5.43 8.178 4.381l24.653-7.452c1.549-.468 2.937-1.423 3.798-2.793 1.675-2.663 1.239-5.978-.82-8.103l-15.888-16.454 9.206-9.983 7.944 7.115c1.241 1.112 2.876 1.682 4.54 1.583l22.853-1.36c3.611-.291 6.304-3.453 6.014-7.065z" fill="#f3a514" data-original="#ffa91a" style="" class=""/></g><g><g><path d="m110.46 86.242c-.974-.974-2.554-.976-3.53-.004l-7.635 7.6c-2.015 2.005-5.005 2.431-7.435 1.281.366.774.893 1.492 1.58 2.103 2.62 2.329 6.659 2.048 9.144-.424l9.238-9.195z" fill="#f79219" data-original="#f79219" style="" class=""/></g><g><path d="m113.097 124.388c-1.004-1.004-2.643-.971-3.605.074l-28.663 31.118c-2.036 2.211-5.233 2.749-7.829 1.496.404.841.992 1.611 1.76 2.247 2.741 2.272 6.781 2 9.193-.619l30.426-33.033z" fill="#f79219" data-original="#f79219" style="" class=""/></g><g><path d="m183.641 115.168c-.195-2.423-1.683-4.433-3.732-5.405.33.698.543 1.466.608 2.281.29 3.611-2.402 6.774-6.014 7.064l-22.852 1.36c-1.664.099-3.298-.471-4.54-1.583l-6.109-5.472c-1.018-.911-2.578-.837-3.505.167l-5.938 6.439c-.898.973-.88 2.478.039 3.43l14.25 14.757c2.059 2.125 2.495 5.44.82 8.103-.861 1.369-2.25 2.324-3.798 2.792l-24.653 7.452c-1.622.49-3.286.322-4.705-.35 1.364 2.892 4.676 4.427 7.829 3.474l24.653-7.452c1.548-.468 2.937-1.423 3.798-2.792 1.675-2.664 1.24-5.978-.82-8.103l-15.888-16.454 9.206-9.983 7.944 7.115c1.242 1.112 2.876 1.682 4.54 1.583l22.853-1.36c3.611-.289 6.304-3.451 6.014-7.063z" fill="#f79219" data-original="#f79219" style="" class=""/></g></g></g></g></g></g></svg>
