<svg xmlns="http://www.w3.org/2000/svg" xmlns:xlink="http://www.w3.org/1999/xlink" viewBox="0 0 3301.33 3369"><defs><style>.cls-1{fill:none;}.cls-2{fill:#fce6bd;}.cls-3{opacity:0.3;}.cls-4{fill:#91b3fa;}.cls-5{fill:#314e78;}.cls-13,.cls-6{fill:#bdd0fb;}.cls-7{fill:#353744;}.cls-8{opacity:0.43;}.cls-10,.cls-9{fill:#fff;}.cls-10{opacity:0.52;}.cls-11{fill:#5c76b2;}.cls-12,.cls-13{opacity:0.68;}.cls-14{opacity:0.5;}.cls-15{fill:#ff7e15;}.cls-16{fill:#f3a514;}.cls-17{fill:#313350;}.cls-18{fill:url(#linear-gradient);}.cls-19{fill:url(#linear-gradient-2);}.cls-20{fill:url(#linear-gradient-3);}.cls-21{fill:url(#linear-gradient-4);}.cls-22{fill:url(#linear-gradient-5);}.cls-23{fill:#3b3735;}.cls-24{fill:#d3c3cb;}.cls-25{fill:url(#linear-gradient-6);}.cls-26{fill:url(#linear-gradient-7);}.cls-27{fill:url(#linear-gradient-8);}.cls-28{fill:url(#linear-gradient-9);}.cls-29{fill:url(#linear-gradient-10);}.cls-30{fill:url(#linear-gradient-11);}.cls-31{fill:url(#linear-gradient-12);}.cls-32{fill:url(#linear-gradient-13);}.cls-33{fill:#7d97f4;}</style><linearGradient id="linear-gradient" x1="979.55" y1="805.73" x2="1568.67" y2="805.73" gradientUnits="userSpaceOnUse"><stop offset="0" stop-color="#dae3fe"/><stop offset="1" stop-color="#e9effd"/></linearGradient><linearGradient id="linear-gradient-2" x1="999.29" y1="694.95" x2="1553.66" y2="694.95" xlink:href="#linear-gradient"/><linearGradient id="linear-gradient-3" x1="1366.39" y1="870.12" x2="1557.08" y2="870.12" gradientTransform="translate(616.29 -606.02) rotate(29.43)" xlink:href="#linear-gradient"/><linearGradient id="linear-gradient-4" x1="992.26" y1="866.7" x2="1180.14" y2="866.7" gradientTransform="translate(1320.44 -503.02) rotate(61.12)" xlink:href="#linear-gradient"/><linearGradient id="linear-gradient-5" x1="1044.36" y1="2416.64" x2="1536.05" y2="2416.64" xlink:href="#linear-gradient"/><linearGradient id="linear-gradient-6" x1="-5461.72" y1="2779.21" x2="-5480.02" y2="2636.14" gradientTransform="matrix(-1, 0, 0, 1, -3026.86, 0)" gradientUnits="userSpaceOnUse"><stop offset="0" stop-color="#febbba"/><stop offset="1" stop-color="#ff928e"/></linearGradient><linearGradient id="linear-gradient-7" x1="-5861.66" y1="2828.24" x2="-5879.49" y2="2688.83" xlink:href="#linear-gradient-6"/><linearGradient id="linear-gradient-8" x1="3558.97" y1="955.51" x2="3072.43" y2="1637.67" gradientUnits="userSpaceOnUse"><stop offset="0" stop-color="#09005d"/><stop offset="1" stop-color="#1a0f91"/></linearGradient><linearGradient id="linear-gradient-9" x1="-5726.89" y1="1912.61" x2="-5476.97" y2="1912.61" xlink:href="#linear-gradient-6"/><linearGradient id="linear-gradient-10" x1="-5496.58" y1="1599.32" x2="-5029.87" y2="1599.32" xlink:href="#linear-gradient-6"/><linearGradient id="linear-gradient-11" x1="-5664.61" y1="1337.56" x2="-5502.18" y2="1170.91" xlink:href="#linear-gradient-6"/><linearGradient id="linear-gradient-12" x1="-5429.05" y1="1065.92" x2="-5631.55" y2="1333.81" xlink:href="#linear-gradient-6"/><linearGradient id="linear-gradient-13" x1="-5725.64" y1="1278.07" x2="-5563.21" y2="1111.43" xlink:href="#linear-gradient-6"/></defs><g id="Illustration"><rect class="cls-1" x="16.8" y="-322.43" width="3710" height="3691.43"/><path class="cls-2" d="M3133.7,2001.07c-267.08,628.87-978.53,981.17-1595.49,886.14-100.39-15.47-375.62-61.53-619.3-278.84C449.82,2190,349.5,1361.67,727.9,777.9,1003.31,353,1497,112.18,1966.13,124.22c101,2.6,488.31,18.59,828.64,299.22,50,41.22,160.24,139.17,259.61,294.56C3287.7,1082.87,3307.76,1591.23,3133.7,2001.07Z"/><g class="cls-3"><path class="cls-4" d="M2195.65,534.63a9.89,9.89,0,0,1-9.47-10.27c.44-10.59.42-21.36-.06-32a9.89,9.89,0,0,1,9.24-10.3h.19a9.88,9.88,0,0,1,10.31,9.43c.5,11.21.52,22.54.06,33.69a9.89,9.89,0,0,1-9.23,9.45A9,9,0,0,1,2195.65,534.63Zm-15.38-93.92c-1.92-10.48-4.3-21-7.09-31.19a9.88,9.88,0,0,1,19.06-5.2c2.93,10.76,5.44,21.81,7.46,32.83a9.87,9.87,0,0,1-7.93,11.49,11.7,11.7,0,0,1-1.17.15A9.89,9.89,0,0,1,2180.27,440.71Zm-24.2-80.24c-4.19-9.76-8.86-19.46-13.87-28.82a9.88,9.88,0,0,1,17.41-9.33c5.28,9.87,10.2,20.08,14.61,30.35a9.89,9.89,0,0,1-5.18,13,10.07,10.07,0,0,1-3.27.78A9.88,9.88,0,0,1,2156.07,360.47Zm-41.55-72.82c-6.27-8.59-13-17-20-25a9.88,9.88,0,1,1,14.89-13c7.35,8.43,14.42,17.29,21,26.32a9.88,9.88,0,1,1-15.95,11.66Zm-56.73-61.74c-8-7-16.41-13.68-25-20A9.87,9.87,0,0,1,2044.44,190c9,6.61,17.9,13.68,26.32,21a9.88,9.88,0,0,1-13,14.91Zm-69-47.66c-9.36-5-19-9.71-28.8-13.93a9.87,9.87,0,0,1,7.83-18.13c10.27,4.44,20.47,9.37,30.32,14.66a9.88,9.88,0,1,1-9.35,17.4Zm-366.75-4.6a9.87,9.87,0,0,1,4.07-13.36c9.86-5.26,20.08-10.15,30.38-14.55a9.87,9.87,0,1,1,7.76,18.16c-9.78,4.18-19.49,8.83-28.85,13.82a9.85,9.85,0,0,1-13.36-4.07Zm289-26.56c-10.24-2.81-20.72-5.22-31.16-7.15a9.88,9.88,0,0,1,3.59-19.43c11,2,22,4.57,32.81,7.54a9.87,9.87,0,1,1-5.24,19Zm-209.77-7.17a9.87,9.87,0,0,1,7-12.11c10.79-2.92,21.85-5.41,32.86-7.41a9.88,9.88,0,1,1,3.52,19.44c-10.47,1.9-21,4.27-31.22,7a10.4,10.4,0,0,1-2,.32A9.88,9.88,0,0,1,1701.27,139.92Zm127-5.82c-10.61-.46-21.37-.46-32,0a9.87,9.87,0,0,1-1-19.72h.21c11.18-.48,22.51-.48,33.67,0a9.88,9.88,0,0,1,.22,19.73C1829,134.11,1828.62,134.11,1828.27,134.1Z"/><path class="cls-4" d="M1573.42,216.9a9.82,9.82,0,0,0,5.51-2.11c4-3.17,8.1-6.31,12.24-9.33a9.87,9.87,0,1,0-11.64-16c-4.36,3.17-8.69,6.47-12.89,9.8a9.88,9.88,0,0,0,6.78,17.59Z"/></g><g class="cls-3"><path class="cls-4" d="M1429.43,481.37a9.87,9.87,0,0,0,9.19-8.91c.49-5.07,1.09-10.21,1.78-15.29a9.88,9.88,0,1,0-19.57-2.69c-.73,5.34-1.36,10.76-1.87,16.1a9.87,9.87,0,0,0,8.89,10.77A9.28,9.28,0,0,0,1429.43,481.37Z"/><path class="cls-4" d="M1816.88,903a9.88,9.88,0,0,1-.29-19.75c10.39-.15,20.93-.74,31.45-1.77a9.88,9.88,0,0,1,1.91,19.67q-6.84.66-13.64,1.09C1829.84,902.69,1823.3,902.94,1816.88,903Zm74.28-18a9.88,9.88,0,0,1,7.33-11.89c10.19-2.42,20.39-5.29,30.31-8.54a9.88,9.88,0,1,1,6.16,18.77c-10.45,3.43-21.19,6.45-31.91,9a10.75,10.75,0,0,1-1.66.25A9.88,9.88,0,0,1,1891.16,885Zm-128,15.11c-10.9-1.35-21.9-3.18-32.69-5.45a9.88,9.88,0,1,1,4.07-19.33c10.24,2.16,20.68,3.9,31,5.17a9.88,9.88,0,0,1-.57,19.66A9.6,9.6,0,0,1,1763.13,900.12Zm208.51-41.55a9.87,9.87,0,0,1,4.55-13.2c9.39-4.59,18.7-9.63,27.67-15a9.88,9.88,0,1,1,10.14,17c-9.45,5.65-19.26,11-29.15,15.79a9.88,9.88,0,0,1-13.21-4.55ZM1678.7,880c-10.34-3.71-20.66-7.91-30.68-12.49a9.88,9.88,0,0,1,8.21-18c9.52,4.36,19.32,8.35,29.14,11.87A9.88,9.88,0,1,1,1678.7,880Zm-78-38.13c-9.3-5.9-18.46-12.25-27.22-18.89a9.88,9.88,0,1,1,11.93-15.74c8.32,6.3,17,12.34,25.86,17.94a9.88,9.88,0,0,1-10.57,16.69Zm-67.82-54.23c-7.8-7.78-15.36-16-22.46-24.36a9.88,9.88,0,0,1,15.07-12.77c6.75,8,13.93,15.75,21.34,23.15a9.87,9.87,0,1,1-13.95,14Zm-54.38-67.73c-5.9-9.29-11.48-18.95-16.58-28.7a9.88,9.88,0,0,1,17.51-9.15c4.84,9.26,10.14,18.43,15.75,27.26a9.88,9.88,0,0,1-3,13.63,9.88,9.88,0,0,1-13.64-3Zm-38.18-78.06c-3.7-10.34-7-21-9.84-31.63a9.88,9.88,0,0,1,19.09-5.07c2.69,10.11,5.83,20.22,9.35,30.05a9.88,9.88,0,1,1-18.6,6.65Zm-20.09-84.45c-1-8-1.77-16.2-2.28-24.27q-.29-4.38-.46-8.74a9.76,9.76,0,0,1,9.45-10.28,9.88,9.88,0,0,1,10.29,9.46c.11,2.76.25,5.54.43,8.31.49,7.67,1.22,15.43,2.17,23.07a9.88,9.88,0,0,1-8.57,11l-.61,0A9.87,9.87,0,0,1,1420.25,557.41Z"/><path class="cls-4" d="M2052.86,818.6a9.84,9.84,0,0,0,5.54-2.15c4.18-3.35,8.36-6.84,12.43-10.4a9.88,9.88,0,1,0-13-14.88c-3.86,3.37-7.83,6.69-11.79,9.87a9.88,9.88,0,0,0,6.81,17.56Z"/></g><path class="cls-5" d="M2071.52,650.3a4.63,4.63,0,0,0,0-5.36L2039,599.14a244.65,244.65,0,0,0,18-77.23l49.37-26.74a4.61,4.61,0,0,0,2.36-4.82l-11-66.48a4.61,4.61,0,0,0-3.78-3.8l-55.36-9.37a244.86,244.86,0,0,0-41.94-67.29l16-53.86a4.62,4.62,0,0,0-1.74-5.07L1956,245.27a4.61,4.61,0,0,0-5.36,0l-45.8,32.54a244.66,244.66,0,0,0-77.23-18l-26.74-49.37a4.61,4.61,0,0,0-4.82-2.36l-66.48,11a4.61,4.61,0,0,0-3.8,3.78l-9.37,55.36a244.86,244.86,0,0,0-67.3,41.95l-53.85-16a4.62,4.62,0,0,0-5.07,1.74L1551,360.74a4.64,4.64,0,0,0,0,5.36l32.54,45.8a244.65,244.65,0,0,0-18,77.23l-49.37,26.75a4.6,4.6,0,0,0-2.36,4.81l11,66.48a4.61,4.61,0,0,0,3.78,3.8l55.36,9.37a244.92,244.92,0,0,0,41.94,67.3l-16,53.85a4.62,4.62,0,0,0,1.74,5.07l54.81,39.22a4.63,4.63,0,0,0,5.36,0l45.8-32.54a244.65,244.65,0,0,0,77.23,18l26.74,49.38a4.62,4.62,0,0,0,4.82,2.35l66.48-11a4.63,4.63,0,0,0,3.8-3.79l9.37-55.36a245.07,245.07,0,0,0,67.3-41.94l53.85,16a4.62,4.62,0,0,0,5.07-1.74Z"/><path class="cls-6" d="M1805.65,573a67.7,67.7,0,1,1,9.95.1A67.82,67.82,0,0,1,1805.65,573Zm-28-107.15a51.94,51.94,0,1,0,37.86-12.12,53.55,53.55,0,0,0-7.7-.08A51.61,51.61,0,0,0,1777.7,465.88Z"/><path class="cls-6" d="M1820.41,670.86a170,170,0,0,0,17-1.94h0q2.67-.45,5.34-1a169,169,0,0,0,25.67-7.27l.34-.13,1-.37,1.87-.72a4,4,0,0,0,2.49-3.92,4.32,4.32,0,0,0-.27-1.21,4,4,0,0,0-5.13-2.22,158.86,158.86,0,0,1-176.7-41.7,157.71,157.71,0,0,1-38.35-79.86,160.13,160.13,0,0,1-1.86-16.22,158.7,158.7,0,0,1,132.43-166.26c86.35-14.32,168.17,44.26,182.49,130.57a160.42,160.42,0,0,1,1.83,16,158.28,158.28,0,0,1-10.69,68,3.88,3.88,0,0,0-.26,1.7,3.95,3.95,0,0,0,7.61,1.2,166.67,166.67,0,0,0,9.3-88.25c-15-90.61-101-152.09-191.57-137.07a166.61,166.61,0,0,0-139,174.54,170.41,170.41,0,0,0,1.95,17,166.59,166.59,0,0,0,174.57,139Z"/><g class="cls-3"><path class="cls-4" d="M2549.55,773a6.09,6.09,0,0,0,5.56-4.75c1.15-5,2.15-10.2,3-15.32a6.1,6.1,0,0,0-12-2c-.8,4.88-1.76,9.79-2.85,14.61a6.11,6.11,0,0,0,4.61,7.3A6,6,0,0,0,2549.55,773Z"/><path class="cls-4" d="M2555,726.51a6.09,6.09,0,0,1-5.86-6.33,254,254,0,0,0-.32-25.59c-.12-1.79-.25-3.59-.4-5.39a6.1,6.1,0,0,1,5.56-6.59,6.32,6.32,0,0,1,6.6,5.57q.22,2.82.41,5.63a264.07,264.07,0,0,1,.34,26.84,6.1,6.1,0,0,1-5.7,5.85C2555.44,726.51,2555.23,726.52,2555,726.51Zm-11.07-68a253.59,253.59,0,0,0-8.19-29.87,6.1,6.1,0,1,1,11.54-3.95,263.62,263.62,0,0,1,8.59,31.32,6.1,6.1,0,0,1-4.72,7.22,6.5,6.5,0,0,1-.87.12A6.12,6.12,0,0,1,2544,658.55Zm-20-58.51a250.17,250.17,0,0,0-15.28-26.95,6.1,6.1,0,1,1,10.22-6.66,264.87,264.87,0,0,1,16,28.26,6.1,6.1,0,0,1-11,5.35Zm-33.78-51.8a253,253,0,0,0-21.41-22.38,6.1,6.1,0,0,1,8.28-9,264.93,264.93,0,0,1,22.45,23.48,6.1,6.1,0,0,1-9.32,7.87Zm-45.41-42a254.61,254.61,0,0,0-26.2-16.52,6.1,6.1,0,1,1,5.86-10.7,267.4,267.4,0,0,1,27.47,17.31,6.1,6.1,0,0,1-7.13,9.91Zm-54.22-29.69a250,250,0,0,0-29.41-9.61,6.1,6.1,0,0,1,3.06-11.82A262.3,262.3,0,0,1,2395,465.23a6.1,6.1,0,0,1-1.87,11.76A6.25,6.25,0,0,1,2390.52,476.57Zm-59.81-15.52a250.44,250.44,0,0,0-30.9-2.1,6.11,6.11,0,0,1,.08-12.21,263,263,0,0,1,32.4,2.21,6.1,6.1,0,0,1-.4,12.14A6.72,6.72,0,0,1,2330.71,461.05Zm-99.7.62a6.1,6.1,0,0,1,4.49-7.37,267.64,267.64,0,0,1,27.72-5.21c1.42-.19,2.83-.37,4.25-.53a6,6,0,0,1,6.76,5.36,6.1,6.1,0,0,1-5.36,6.76c-1.33.15-2.65.32-4,.51a250.71,250.71,0,0,0-26.48,5,5.55,5.55,0,0,1-1.06.16A6.1,6.1,0,0,1,2231,461.67Z"/></g><g class="cls-3"><path class="cls-4" d="M2311.07,973.42a267.76,267.76,0,0,1-31.93-.32,6.11,6.11,0,1,1,.86-12.18,251.61,251.61,0,0,0,30.46.31,6.1,6.1,0,0,1,.69,12.18Zm24.71-8.51a6.1,6.1,0,0,1,5-7,253.67,253.67,0,0,0,29.68-7,6.1,6.1,0,0,1,3.49,11.7,266.84,266.84,0,0,1-31.1,7.29c-.22,0-.44.06-.66.08A6.11,6.11,0,0,1,2335.78,964.91Zm-88.32,4a261.34,261.34,0,0,1-30.92-8,6.1,6.1,0,0,1,3.77-11.6,254.51,254.51,0,0,0,29.5,7.67A6.1,6.1,0,0,1,2249,969,5.92,5.92,0,0,1,2247.46,968.89Zm148.44-20.45a6.11,6.11,0,0,1,3.14-8,251.84,251.84,0,0,0,27.11-13.91,6.1,6.1,0,1,1,6.22,10.49,262.74,262.74,0,0,1-28.43,14.6,6.4,6.4,0,0,1-2.07.5A6.1,6.1,0,0,1,2395.9,948.44Zm-209.06.7a265,265,0,0,1-28.07-15.23,6.1,6.1,0,0,1,6.46-10.36A250.71,250.71,0,0,0,2192,938.08a6.1,6.1,0,0,1-2.2,11.62A6.2,6.2,0,0,1,2186.84,949.14Zm-54.11-33.73a266,266,0,0,1-23.62-21.5,6.1,6.1,0,0,1,8.74-8.51,254.91,254.91,0,0,0,22.54,20.51,6.1,6.1,0,0,1-3.45,10.84A6,6,0,0,1,2132.73,915.41Zm-44.48-45.71a263.73,263.73,0,0,1-17.78-26.56A6.1,6.1,0,0,1,2081,837,249.87,249.87,0,0,0,2098,862.3a6.1,6.1,0,1,1-9.7,7.4Z"/><path class="cls-4" d="M2455.71,920.12a6.07,6.07,0,0,0,3.34-1.26c4.13-3.19,8.18-6.53,12-9.9a6.1,6.1,0,0,0-8-9.2c-3.69,3.22-7.56,6.4-11.5,9.45a6.1,6.1,0,0,0,4.13,10.91Z"/></g><path class="cls-5" d="M2471.9,805.12a3.11,3.11,0,0,0,0-3.59l-21.77-30.65a163.87,163.87,0,0,0,12-51.68l33-17.89a3.08,3.08,0,0,0,1.58-3.22l-7.38-44.49a3.08,3.08,0,0,0-2.53-2.54l-37-6.27a164,164,0,0,0-28.07-45l10.71-36a3.08,3.08,0,0,0-1.16-3.39l-36.68-26.24a3.08,3.08,0,0,0-3.58,0l-30.65,21.77a163.87,163.87,0,0,0-51.68-12l-17.89-33a3.11,3.11,0,0,0-3.23-1.58l-44.49,7.38a3.08,3.08,0,0,0-2.54,2.53l-6.27,37a163.85,163.85,0,0,0-45,28.06l-36-10.71a3.09,3.09,0,0,0-3.4,1.16l-26.24,36.68a3.08,3.08,0,0,0,0,3.58l21.77,30.65a163.94,163.94,0,0,0-12,51.68l-33,17.9a3.07,3.07,0,0,0-1.57,3.22l7.37,44.49a3.1,3.1,0,0,0,2.54,2.54l37,6.27a164.12,164.12,0,0,0,28.07,45l-10.72,36a3.1,3.1,0,0,0,1.17,3.39l36.67,26.24a3.09,3.09,0,0,0,3.59,0l30.65-21.78a163.87,163.87,0,0,0,51.68,12l17.89,33a3.08,3.08,0,0,0,3.22,1.57l44.49-7.37a3.1,3.1,0,0,0,2.54-2.54l6.27-37a163.58,163.58,0,0,0,45-28.07l36,10.72a3.08,3.08,0,0,0,3.39-1.17Z"/><path class="cls-6" d="M2293.92,754.22a46,46,0,1,1,6.84.07A47.4,47.4,0,0,1,2293.92,754.22Zm-30-48.8a33.94,33.94,0,0,0,31,36.64h0a33.94,33.94,0,0,0,5.63-67.65,34.69,34.69,0,0,0-5,0A34,34,0,0,0,2263.92,705.42Z"/><path class="cls-6" d="M2304.2,822.31a115.27,115.27,0,0,0,34.21-7.47l1-.38a6.12,6.12,0,0,0,3.85-6.06,6.11,6.11,0,0,0-8.34-5.29,103.43,103.43,0,0,1-21.08,5.84h0l-1.19.19a101.76,101.76,0,0,1-50.08-4.71A103.15,103.15,0,0,1,2238,791.69l-.19-.13-.57-.41a102,102,0,0,1-41.56-66.73,104.16,104.16,0,0,1-1.2-10.5,102.72,102.72,0,0,1,203.87-23.11,104.14,104.14,0,0,1,1.18,10.37,102.36,102.36,0,0,1-6.91,44,6.06,6.06,0,0,0-.42,2.63A6.1,6.1,0,0,0,2404,749.7a114.75,114.75,0,0,0,7.74-49.28,116.33,116.33,0,0,0-1.33-11.6,114.92,114.92,0,0,0-228.08,25.85,117.18,117.18,0,0,0,1.34,11.74A115.08,115.08,0,0,0,2304.2,822.31Z"/><path class="cls-7" d="M3228.83,1404.58a33,33,0,0,0-34-32.41L2480.33,1395a33,33,0,0,0-31.92,34l35.25,1183.24a33,33,0,0,0,33.3,32l700.09-6.8a33,33,0,0,0,32.67-33.57Z"/><g class="cls-8"><path class="cls-9" d="M3154.29,1462.45H2518.07c-6.19,0-11.15,3.3-11.09,9.17l.61,55.54c.06,5.9,5.17,12.25,11.37,12.26l638,.51c6.31,0,11.2-6.85,11-12.8l-1.94-55.37C3165.86,1465.84,3160.59,1462.45,3154.29,1462.45Z"/><path class="cls-9" d="M3158.42,1582.15l-639-1.06c-6.21,0-11.19,5.92-11.12,11.84l.61,56.76c.06,6,5.18,11.58,11.41,11.6l640.82,1.77a11.36,11.36,0,0,0,11.09-11.64l-1.95-57.28C3170.08,1588.17,3164.75,1582.16,3158.42,1582.15Z"/><path class="cls-9" d="M3162.74,1710.11l-641.89-2.18c-6.24,0-11.27,2.86-11.2,8.83l.61,57.26c.07,6,5.19,10.53,11.45,10.56l643.63,2.87c6.37,0,11.38-4.51,11.18-10.56l-2-57.79C3174.34,1713.08,3169.09,1710.13,3162.74,1710.11Z"/><path class="cls-9" d="M3166.94,1834.91l-644.7-3.28c-6.27,0-11.31,4-11.25,10l.63,57.77c.06,6,5.2,9.45,11.48,9.49l646.47,4c6.4,0,11.47-3.34,11.26-9.44l-2-58.3C3178.64,1839.1,3173.32,1834.94,3166.94,1834.91Z"/><path class="cls-9" d="M3171.18,1960.8l-647.55-4.4a11.27,11.27,0,0,0-11.27,11.3L2513,2026c.07,6.1,5.26,12.72,11.58,12.77l649.42,5.15c6.43,0,11.42-6.54,11.21-12.7l-2-58.82A12.29,12.29,0,0,0,3171.18,1960.8Z"/><path class="cls-9" d="M3175.46,2087.81,2525,2082.26c-6.32-.05-11.38,6.44-11.31,12.57l.63,58.79a12,12,0,0,0,11.61,11.7l652.31,6.31a11.26,11.26,0,0,0,11.3-11.6l-2-59.34C3187.35,2094.5,3181.9,2087.86,3175.46,2087.81Z"/><path class="cls-9" d="M3179.93,2220.38l-653.42-6.75c-6.35-.07-11.46,3.27-11.4,9.45l.64,59.32c.07,6.21,5.28,10.55,11.65,10.62l655.23,7.48c6.48.08,11.6-4.19,11.38-10.46l-2-59.88C3191.76,2223.92,3186.4,2220.44,3179.93,2220.38Z"/><path class="cls-9" d="M3184.28,2349.69,2528,2341.76c-6.38-.08-11.51,4.49-11.44,10.72l.65,59.85c.07,6.26,5.29,9.44,11.69,9.53l658.16,8.67c6.51.08,11.69-3,11.47-9.31l-2.06-60.42C3196.21,2354.5,3190.78,2349.76,3184.28,2349.69Z"/><path class="cls-9" d="M3188.68,2480.15,2529.4,2471c-6.41-.09-11.55,5.73-11.48,12l.65,60.38c.07,6.33,5.35,12.82,11.78,12.91l661.23,9.93c6.55.1,11.64-6.3,11.42-12.68l-2.08-61C3200.7,2486.26,3195.21,2480.24,3188.68,2480.15Z"/></g><path class="cls-6" d="M1622.79,2620.82s236.06-1448.51-368.32-2486.38a21.52,21.52,0,0,0-36.14-1.75C1074.94,334.22,225.05,1645.21,1622.79,2620.82Z"/><path class="cls-10" d="M1200.4,556.55s-.87,8-2.09,23-2.83,37-4.42,65-3,62.12-4.14,101.22c-.34,19.56-1,40.36-1,62.31q-.13,16.45-.28,33.74.08,17.28.13,35.34c0,12,.16,24.32.42,36.84s.46,25.27.7,38.24q.63,19.46,1.3,39.55.33,10.05.67,20.24c.32,6.78.64,13.63,1,20.51q1,20.67,2,41.86c.78,14.13,1.82,28.42,2.73,42.86,1.68,28.91,4.21,58.38,6.57,88.37,1.06,15,2.8,30.07,4.21,45.28s2.88,30.52,4.61,45.9,3.62,30.84,5.44,46.38q1.38,11.65,2.75,23.37,1.6,11.68,3.22,23.41,3.24,23.46,6.5,47.1c2.17,15.74,4.93,31.45,7.38,47.24s4.89,31.61,7.73,47.38,5.75,31.54,8.62,47.31l4.26,23.68c1.44,7.88,3.16,15.71,4.73,23.56q4.8,23.55,9.6,47c3,15.69,6.82,31.18,10.35,46.68s7.13,30.93,10.67,46.31c7.56,30.65,15.64,60.91,23.31,90.89q12.88,44.6,25.41,88,13.73,43,27,84.37,14.37,41,28.1,80c9.62,25.83,19.57,50.72,28.88,74.93,2.37,6,4.62,12.06,7,18l7.45,17.42,14.5,33.85q7.1,16.59,13.9,32.47l14.32,30.53,26.44,56.39,25.06,48.7,11.14,21.64c3.56,6.89,6.85,13.53,10.41,19.57l43.33,76.91,0,.08a2.18,2.18,0,0,1-3.77,2.18l-44.93-76.21c-3.67-6-7.06-12.61-10.74-19.46L1529.4,2425l-25.9-48.45-27.4-56.15q-7.18-14.87-14.74-30.46l-14.26-32.45q-7.29-16.57-14.87-33.83-3.78-8.64-7.64-17.41c-2.48-5.9-4.8-11.92-7.23-18-9.57-24.2-19.8-49.1-29.71-74.93q-14.12-39-29-80.07-13.48-41.45-27.5-84.56l-25.8-88.24c-7.79-30.07-16-60.43-23.68-91.17q-5.4-23.15-10.86-46.46c-3.59-15.55-7.45-31.08-10.53-46.82q-4.89-23.55-9.79-47.18c-1.6-7.88-3.36-15.73-4.83-23.64l-4.34-23.75q-4.29-23.76-8.58-47.5c-2.8-15.84-5.06-31.75-7.61-47.57s-5.12-31.63-7.25-47.44-4.25-31.57-6.37-47.27q-1.57-11.78-3.15-23.5-1.35-11.76-2.68-23.46-2.67-23.4-5.32-46.54c-1.68-15.44-3-30.82-4.47-46.07s-3.07-30.38-4.08-45.43c-2.22-30.09-4.82-59.65-6.19-88.66-.78-14.5-1.68-28.83-2.32-43s-1.1-28.19-1.64-42q-.39-10.37-.78-20.59-.23-10.21-.47-20.29-.46-20.15-.92-39.66-.16-19.51-.32-38.34c-.14-12.56-.2-24.87-.06-36.94,0-48.26,1.38-92.49,2.87-131.66,1.75-39.17,3.62-73.29,5.77-101.36,2-28.08,4.16-50.1,5.7-65.1s2.59-23,2.59-23v0a2.18,2.18,0,0,1,4.33.53Z"/><path class="cls-11" d="M1408.86,2762.41s-5.22-1690.33-802.93-2187.69a25.89,25.89,0,0,0-38.19,13.73C505.64,772.34,241.17,1770.73,1408.86,2762.41Z"/><path class="cls-10" d="M672.63,871.47s6.94,29.95,20.7,82c6.86,26,15.41,57.61,25.62,93.7s22.1,76.73,35.49,120.92,28.4,91.91,44.89,142.18c8.1,25.18,16.89,50.9,25.62,77.27,9.06,26.25,18.06,53.17,27.71,80.36s19.3,54.91,29.53,82.79c10,28,20.55,56.11,31.18,84.49l8,21.32,8.2,21.33q8.22,21.35,16.47,42.82c11.13,28.57,22.6,57.13,34.1,85.69,11.8,28.42,23.33,57,35.3,85.18l18,42.19q4.5,10.51,9,21l9.2,20.82c12.34,27.67,24.24,55.26,36.71,82.21s24.29,53.79,36.74,79.8l18.28,38.81q4.49,9.61,8.92,19.16t9.09,18.86c12.12,25,23.69,49.55,35.47,73.21q8.85,17.74,17.46,35t16.73,34l32.67,64.14c10.35,20.62,20.85,40.09,30.66,58.68s18.83,36.41,27.74,52.9l46.29,85.38,30.34,54.66,10.64,19.41,0,0a2.5,2.5,0,0,1-4.33,2.5l-11.52-18.92c-7.45-12.38-18.37-30.53-32.28-53.63-7.07-11.49-14.32-24.54-22.4-38.64s-16.75-29.39-26.06-45.71c-18.26-32.82-38.79-69.92-60.12-110.94l-33.29-64q-8.4-16.71-17.06-34L1185,2293.45c-23.06-47.7-47.39-98-71-150.73-23.87-52.62-47.79-107.34-71.32-163.26-12-27.85-23.23-56.31-35.11-84.6-11.72-28.37-23-57-34.53-85.61l-33.54-86q-8.19-21.49-16.35-42.92-4.06-10.69-8.13-21.36L907,1637.59c-10.54-28.43-21-56.65-30.92-84.66-10.14-27.94-19.78-55.68-29.27-83s-18.48-54.22-27.47-80.52C810.71,1363,802,1337.28,794,1312.05c-16.33-50.37-31.05-98.22-44.44-142.44-13.21-44.28-25.15-84.92-35.32-121.06s-18.81-67.71-25.69-93.78c-13.79-52.11-20.78-82.16-20.78-82.16a2.51,2.51,0,0,1,4.88-1.15Z"/><path class="cls-5" d="M2792.15,1057.12a27.47,27.47,0,0,0-29.85-26.76l-764.22,66.19c-14.21,1.24-25.55,13.13-25.55,27.39V2660.2c0,15.18,13.19,26.34,28.37,26.34h800.26c7.4,0,14.48-2.41,19.66-7.7a26.82,26.82,0,0,0,7.82-19.55Z"/><g class="cls-12"><path class="cls-6" d="M2123.89,1172.33l-58.33,4c-6.39.41-9.67,6.32-9.67,13.18V2590.79c0,7,1.43,15.34,7.89,15.34h60.87c6.5,0,11.84-7,11.84-14.06l-.88-1407.37C2135.61,1177.8,2130.32,1171.9,2123.89,1172.33Z"/><path class="cls-13" d="M2265.39,1163.05l-61,4c-6.48.42-12.73,6.43-12.72,13.34L2193.12,2592c0,7.06,6.34,14.1,12.88,14.1h61.68c6.58,0,11-7.06,11-14.15l-2.36-1416.43C2276.26,1168.62,2271.91,1162.62,2265.39,1163.05Z"/><path class="cls-6" d="M2408.74,1153.65l-61.81,4c-6.56.43-10.34,6.32-10.33,13.27l3,1421c0,7.1,3.86,14.18,10.5,14.18h62.49c6.67,0,13.69-7.1,13.67-14.23l-3.92-1425.84C2422.32,1159.08,2415.34,1153.21,2408.74,1153.65Z"/><path class="cls-6" d="M2554,1144.12l-62.62,4.11c-6.65.44-11.51,6.43-11.48,13.43l4.54,1430.2c0,7.15,5,14.27,11.69,14.27h63.32c6.76,0,12.82-7.14,12.79-14.32l-5.49-1435.14C2566.7,1149.65,2560.66,1143.68,2554,1144.12Z"/><path class="cls-6" d="M2701.13,1134.47l-63.46,4.16a14,14,0,0,0-12.66,13.59l6.12,1439.56c0,7.19,6.11,14.35,12.92,14.35h64.17c6.85,0,11.92-7.18,11.88-14.4L2713,1147.16C2713,1140.09,2707.91,1134,2701.13,1134.47Z"/></g><path class="cls-7" d="M2193.83,1376.51a29.74,29.74,0,0,0-30.95-29.32l-609.57,24.44a19.19,19.19,0,0,0-18.41,19.62l30.95,1303.13,616.36-7.52a29.76,29.76,0,0,0,29.4-30.18Z"/><g class="cls-14"><polygon class="cls-9" points="1702.91 1616.69 1604.82 1616.72 1603.66 1449.07 1701.96 1449.07 1702.91 1616.69"/><polygon class="cls-9" points="1843.71 1616.38 1745.99 1616.41 1745.14 1449.07 1843.08 1449.07 1843.71 1616.38"/><polygon class="cls-9" points="1991.78 1616.05 1894.43 1616.08 1893.91 1449.07 1991.46 1449.07 1991.78 1616.05"/><polygon class="cls-9" points="2139.49 1616.12 2040.47 1615.95 2038.2 1449.07 2139.49 1449.07 2139.49 1616.12"/><polygon class="cls-9" points="1704.25 1854.73 1606.46 1855.25 1605.31 1688.84 1703.31 1688.53 1704.25 1854.73"/><polygon class="cls-9" points="1844.62 1853.98 1747.19 1854.5 1746.35 1688.39 1843.99 1688.08 1844.62 1853.98"/><polygon class="cls-9" points="1992.22 1853.19 1895.18 1853.71 1894.66 1687.92 1991.91 1687.62 1992.22 1853.19"/><polygon class="cls-9" points="2139.49 1852.42 2040.77 1852.94 2041.58 1687.47 2139.49 1687.16 2139.49 1852.42"/><polygon class="cls-9" points="1705.62 2098.76 1608.15 2099.6 1607.01 1934.25 1704.69 1933.62 1705.62 2098.76"/><polygon class="cls-9" points="1845.54 2097.56 1748.43 2098.39 1747.59 1933.35 1844.92 1932.72 1845.54 2097.56"/><polygon class="cls-9" points="1992.67 2096.3 1895.94 2097.13 1895.42 1932.4 1992.37 1931.78 1992.67 2096.3"/><polygon class="cls-9" points="2139.49 2095.07 2041.07 2095.9 2041.89 1931.48 2139.49 1930.87 2139.49 2095.07"/><polygon class="cls-9" points="1706.97 2337.34 1609.81 2338.48 1608.7 2178.09 1706.07 2177.15 1706.97 2337.34"/><polygon class="cls-9" points="1846.45 2335.71 1749.64 2336.84 1748.83 2176.74 1845.84 2175.81 1846.45 2335.71"/><polygon class="cls-9" points="1993.12 2333.99 1896.69 2335.12 1896.19 2175.32 1992.82 2174.39 1993.12 2333.99"/><polygon class="cls-9" points="2139.49 2332.32 2041.37 2333.44 2042.2 2173.95 2139.49 2173.02 2139.49 2332.32"/><polygon class="cls-9" points="1708.33 2578.31 1611.48 2579.76 1610.37 2420.38 1707.43 2419.13 1708.33 2578.31"/><polygon class="cls-9" points="1847.36 2576.24 1750.87 2577.68 1750.06 2418.59 1846.76 2417.35 1847.36 2576.24"/><polygon class="cls-9" points="1993.57 2574.05 1897.44 2575.49 1896.95 2416.7 1993.27 2415.47 1993.57 2574.05"/><polygon class="cls-9" points="2139.49 2571.94 2041.68 2573.37 2042.5 2414.88 2139.49 2413.65 2139.49 2571.94"/></g><rect class="cls-15" x="758.89" y="1264.11" width="963.52" height="678.85" rx="21.67"/><rect class="cls-16" x="796.33" y="1264.11" width="963.52" height="678.85" rx="21.67"/><path class="cls-9" d="M1071.36,1853.58c-7.41,0-13.67-.09-18.63-.19a17,17,0,0,1-4.17-33.44c44-12.34,92-33.32,127.39-50.3-168.59-13.74-202.25-100.33-208.75-139.94-16.42-99.88,70.27-212.9,193.24-251.94,125.48-39.81,252.59-25.47,323.87,36.56,37.87,33,79,96.09,59.58,209.68C1507.66,1836.55,1176.22,1853.58,1071.36,1853.58Zm-14.5-4.19h0Zm-3.5-26.6h0Zm243.58-83.11-53.41,29.78a1171.6,1171.6,0,0,1-107,51.55c130.16-7.85,350.37-44.62,377.22-202.13,13.62-80-3-141-49.51-181.46-72.11-62.77-199.87-60.52-294.54-30.49-107.2,34-186.11,133.78-172.31,217.82,12.54,76.29,99.41,119,238.42,116Z"/><rect class="cls-17" x="770.64" y="465.9" width="963.52" height="678.85" rx="21.67"/><rect class="cls-5" x="807.95" y="469.25" width="963.52" height="678.85" rx="21.67"/><path class="cls-18" d="M1501.18,1048.58H1047a67.57,67.57,0,0,1-67.49-67.49V630.37A67.56,67.56,0,0,1,1047,562.88h454.14a67.57,67.57,0,0,1,67.49,67.49V981.09A67.57,67.57,0,0,1,1501.18,1048.58ZM1047,586.29A44.12,44.12,0,0,0,1003,630.37V981.09a44.13,44.13,0,0,0,44.08,44.08h454.14a44.14,44.14,0,0,0,44.08-44.08V630.37a44.13,44.13,0,0,0-44.08-44.08Z"/><polygon class="cls-19" points="1273.05 807 999.29 601.63 1013.34 582.9 1273.43 778.02 1540.11 588.86 1553.66 607.95 1273.05 807"/><rect class="cls-20" x="1450.03" y="696.84" width="23.41" height="346.55" transform="translate(-238.92 830.66) rotate(-29.43)"/><rect class="cls-21" x="912.93" y="854.99" width="346.54" height="23.41" transform="translate(-197.34 1399.16) rotate(-61.12)"/><rect class="cls-17" x="758.89" y="2080.97" width="963.52" height="678.85" rx="21.67"/><rect class="cls-5" x="796.33" y="2080.97" width="963.52" height="678.85" rx="21.67"/><path class="cls-22" d="M1428.88,2662.48c-37.58,0-81.75-17.62-131.69-52.58h0c-33-23.12-177.13-167.23-200.25-200.25-41.66-59.52-58.69-110.85-50.62-152.58,5.22-27,21.23-49.87,46.3-66.23l21.93-14.31a35.68,35.68,0,0,1,49,10l60.54,90.81a41.05,41.05,0,0,1-10.39,56.48l-.42.29-10.44,6.77a36.4,36.4,0,0,0-5,57.17l.3.29L1308.73,2509a36.41,36.41,0,0,0,57.18-5l7-10.84a41,41,0,0,1,56.49-10.39l90.81,60.53a35.66,35.66,0,0,1,10,49L1516,2614.23c-16.35,25.07-39.26,41.08-66.23,46.3A109.82,109.82,0,0,1,1428.88,2662.48Zm-118.27-71.76c54.12,37.9,99.47,53.65,134.71,46.83,20.9-4,38.08-16.19,51.08-36.11l14.3-21.93a12.18,12.18,0,0,0-3.43-16.73l-90.81-60.53a17.73,17.73,0,0,0-24.29,4.31l-6.63,10.21a59.82,59.82,0,0,1-93.79,8.33l-110-110a59.81,59.81,0,0,1,8.34-93.79l10.21-6.62a17.76,17.76,0,0,0,4.32-24.3l-60.54-90.81a12.2,12.2,0,0,0-16.73-3.43l-21.92,14.31c-19.92,13-32.07,30.17-36.12,51.07-6.82,35.26,8.93,80.58,46.81,134.7,21.71,31,163.5,172.79,194.51,194.5Z"/><path class="cls-23" d="M2411.39,2054.31q-.54,0-1.08,0l-472.6-.49a21.34,21.34,0,0,1-21.13-21.55c0-11.9,9.53-21.73,21.18-21.51l472.6.48a21.55,21.55,0,0,1,1,43Z"/><path class="cls-23" d="M1754.69,1582.28q.25.48.48,1L1954,2020.53a21.73,21.73,0,0,1-10.25,28.63,20.86,20.86,0,0,1-28.06-10.51l-198.85-437.27a21.73,21.73,0,0,1,10.25-28.63A21,21,0,0,1,1754.69,1582.28Z"/><path class="cls-24" d="M2456.84,2757.12a478.19,478.19,0,0,1,5.77,50.24,21.63,21.63,0,0,1-19.49,22.83c-40.35,3.92-132.17,11.14-190.81,2.68a9.84,9.84,0,0,1-5.4-16.93c24.18-22.53,82.56-66.34,178.66-75.92Z"/><path class="cls-25" d="M2476.9,2705.35l-20.4,50a16.65,16.65,0,0,1-17.1,10.34,90.19,90.19,0,0,1-16.66-3.23,21.9,21.9,0,0,1-14.56-27.22l15.39-51.49Z"/><path class="cls-24" d="M2825.61,2796.94s-40.85,34.17-56.76,78c-4.38,12.05,4.88,24.75,17.7,24.75h84a19.82,19.82,0,0,0,19.59-23.18C2884.84,2846.25,2869.4,2797.06,2825.61,2796.94Z"/><path class="cls-26" d="M2876.2,2752.46s-8.25,36.52-14.59,60.65a7.72,7.72,0,0,1-10.09,5.26c-12.72-4.55-23.07-6.56-30.59-5.55a6,6,0,0,1-6.56-5.93l-.79-60.65Z"/><path class="cls-11" d="M2659,1930.8l-248.42,757.89s47.65,31.2,70.35,29.9L2776,2109.51s51.64,375.29,26.62,644.73l84.51,6.45s137.43-688.54,33.34-924.37Z"/><path class="cls-27" d="M2774.39,2103l.3,0a2.4,2.4,0,0,0,2.08-2.69l-9.64-76.52a2.4,2.4,0,0,0-4.77.6l9.64,76.53A2.41,2.41,0,0,0,2774.39,2103Z"/><path class="cls-16" d="M2612.41,1263.9s201.27,17.87,172.8,161.28c0,0,111.26,209.38,163.27,456a14.49,14.49,0,0,1-11.76,17.24l-335.19,57.39a18,18,0,0,1-20.51-13.26L2500.93,1633,2469.72,1777l-99.16-25.84L2454,1328.25S2465.68,1266.55,2612.41,1263.9Z"/><path class="cls-15" d="M2499.23,1581.09a3.23,3.23,0,0,0,.53,0c1.34-.21,2.2-1.16,1.91-2.12l-27.94-91.61a2.64,2.64,0,0,0-3-1.36c-1.35.21-2.2,1.16-1.91,2.12l27.94,91.61A2.47,2.47,0,0,0,2499.23,1581.09Z"/><path class="cls-28" d="M2519.46,2001a47.88,47.88,0,0,1,34.61-4.5l23.32,5.81a8.45,8.45,0,0,0,10.44-7.26l24.13-214.8c30.18,14.33,73.71,12.61,88.07,11.56L2644.48,2045H2450.11Z"/><path class="cls-29" d="M2003,1535l5.87-19.52a38.65,38.65,0,0,1,22.58-24.71l106.26-42.73s1.6-13.63-22.46-22.89-18.43-36.2-18.43-36.2,32.87,15,81,38.77c27.51,13.6,43,37.61,51.14,55.68L2469.72,1777l-28.27,19.43A75.47,75.47,0,0,1,2332,1769.52L2201.59,1519.4C2136.11,1539.07,2069.84,1542.83,2003,1535Z"/><path class="cls-30" d="M2547.2,1127l61.91,173.26s-54.82,42.85-94.82,28.36l-31.2-99.31S2506.92,1107.89,2547.2,1127Z"/><path class="cls-31" d="M2362.45,1064.75c0,2.67,59.63,168.81,59.63,168.81l94.14-36.07-33.13-165.86S2362.45,1020.05,2362.45,1064.75Z"/><path class="cls-23" d="M2466.58,1072l24.28,85.94a12.39,12.39,0,0,1,.47,3.36c0,7-1.73,31.13-26.3,27.85-22.29-3-42.68-5.36-55.65.75a12.46,12.46,0,0,0-6.43,15.5c5.42,15.09,18.27,48.88,33.91,76.53a12.43,12.43,0,0,0,16,5.12c17.68-8,54.5-26,80.72-47.48a12.47,12.47,0,0,0,4.41-12c-4.12-22-16.41-88.86-17-108-.5-18,19.68-31.72,28.57-36.88a12.26,12.26,0,0,0,5.77-7.76c2.79-11.57,5.16-37.78-28.27-43.55a12.5,12.5,0,0,1-10.13-14.86c2.83-13.85,1.92-34.22-24.37-41.73-26.73-7.63-43.55,8.46-52.1,20.8a12.5,12.5,0,0,1-15.47,4.13c-3.16-1.41-7-1.48-11.06,2a12.3,12.3,0,0,1-18-2.74c-7.79-11.47-21.95-22.92-45.92-15.16-42.53,13.76-40.5,62.8-24.91,89.45s60.86,9.12,82.29-8.54c16.29-13.44,41.1-5.4,52.05-.78A12.37,12.37,0,0,1,2466.58,1072Z"/><path class="cls-32" d="M2529.56,1151s-25.17-47.61-8.53-62.57,44.85-12.5,44.09,24.73C2564.18,1159.47,2529.56,1151,2529.56,1151Z"/><path class="cls-15" d="M2680.5,1795a240.41,240.41,0,0,0,24.6-1.16l1.78-.2,73.29-341.7a2.5,2.5,0,1,0-4.88-1L2702.76,1789c-10.9,1-69.15,4.83-99.89-17l63.48-296.88-13.25-25a2.5,2.5,0,0,0-4.41,2.34L2661.1,1476l-63.78,298.24,1.27,1C2620.81,1791.84,2656.59,1795,2680.5,1795Z"/><path class="cls-33" d="M2279.48,2094.4c1.92,6.5,184.94,568.78,231.34,711.33,5.35,16.43-9.58,32.56-30.11,32.56-14.31,0-26.79-8.08-30.25-19.59l-203.17-674.76Z"/><path class="cls-33" d="M2179.26,2094.4c-1.92,6.5-184.94,568.78-231.34,711.33-5.35,16.43,9.58,32.56,30.11,32.56,14.31,0,26.79-8.08,30.25-19.59l203.17-674.76Z"/><path class="cls-33" d="M2171.63,2072h114v91.54a23.69,23.69,0,0,1-23.54,23.82h-15.63v205.61a17.82,17.82,0,1,1-35.64,0V2187.32h-7.94a31.44,31.44,0,0,1-31.24-31.62Z"/><path class="cls-33" d="M2633.87,2050H1836.29c-11.15,0-20.88,6.09-23.67,14.81l-11.14,34.84c-4,12.54,7.78,24.75,23.81,24.68l818.4-3.8c15.87-.08,27.44-12.14,23.57-24.57l-9.69-31C2654.84,2056.12,2645.07,2050,2633.87,2050Z"/></g></svg>