<svg id="Calque_1" data-name="Calque 1" xmlns="http://www.w3.org/2000/svg" viewBox="0 0 427.78 427.78"><defs><style>.cls-1{fill:#ffd4ae;}.cls-2{fill:#1f1916;}.cls-3{fill:#3b3735;}.cls-4,.cls-6{fill:#f3a514;}.cls-5,.cls-7{fill:#5a5e8e;}.cls-5{stroke:#5a5e8e;stroke-width:0.26px;}.cls-5,.cls-6{stroke-miterlimit:10;}.cls-6{stroke:#f3a514;stroke-width:0.15px;}.cls-8{fill:#383b59;}</style></defs><path class="cls-1" d="M138.5,131.77c.2.6,3.9,2.9,6.9,4.2h0a7.47,7.47,0,0,0,3.6,1c1.7-.4-1.7-4.1-2.1-4.5h0a28.47,28.47,0,0,1-7.3-4.5S138.2,130.87,138.5,131.77Z"/><path class="cls-2" d="M218.3,49.57c0,.5,0,7.9,1.9,10.8,24.3,18.1,33.7-8,31.6-8.5-11.3-2.9-16.6-10.7-16.7-19.6s-4-21.4-23.8-23c-9.4-.8-15.7,2.6-19.6,6.3.3.5,8.5,17.1,18.8,23.7,2-1.1,5.7-2.9,7.9-2.1C221.9,38.27,222.6,47.07,218.3,49.57Z"/><path class="cls-1" d="M202.4,69.27c1.4,1.5,1.6,12.2,0,17.6-.7,2.3-4.3,6.5-8.4,11,6.2.6,13-9.3,14.5-11.9s15.6-15.4,15.6-15.4a26.16,26.16,0,0,1-3.9-10.1v-.1c-1.9-2.9-1.9-10.3-1.9-10.8,4.4-2.4,3.6-11.3,0-12.5-2.2-.7-5.9,1-7.9,2.1a11.93,11.93,0,0,0-1.4.9c-10.5,2.2-23.3-16-23.3-16s-7.6,2.2-3.8,24.7c1.5,8.8,5.6,20.6,10.7,21.7A16.51,16.51,0,0,0,202.4,69.27Z"/><path class="cls-1" d="M139.6,128a29.67,29.67,0,0,0,7.4,4.6h0c1.3.5,2.4.8,3,.5,1.8-.9,0-3.4,0-3.4v-.1c-2.8-1.1-7.7-6.5-7.7-6.5S138.5,126.77,139.6,128Z"/><path class="cls-1" d="M138.5,135.27c.2,1.1,1.9,2.5,3.8,3.6h0a8.28,8.28,0,0,0,4.4,1.3c2.2-.4-.8-3.7-1.2-4.1h0c-3-1.3-6.7-3.6-6.9-4.2A5.64,5.64,0,0,0,138.5,135.27Z"/><path class="cls-3" d="M90.8,409.67c-.7,4.7,6.9,9.8,19.8,8.5s18.1-4.7,22.1-5.1,7.8,1.6,14.1.7,10.1-2.9,10.1-4.2c0-1-3.1-10.7-4.9-15.8,0,0-14.6,4.8-24.8-7-2.5,3.5-9.7,13.3-13.3,14.3C109.7,402.47,91.5,405,90.8,409.67Z"/><path class="cls-4" d="M129.9,386.67a15.92,15.92,0,0,1-1.7-1.1s-.3.5-.9,1.3c10.2,11.9,24.8,7,24.8,7-.5-1.3-.9-2.4-1.1-2.9,0,0-.7,0-2-.1C145,390.77,135.7,390,129.9,386.67Z"/><path class="cls-1" d="M138,368.67c-1.6,12.7-7,17.2-8.1,18,5.8,3.3,15.1,4.1,19.2,4.3,0-3.3,1.1-10.9,1.6-16.1s9.6-21.2,16.1-38.1,1.1-36.6,1.5-38.8,1.5-6.7,8.7-12.7c4.8-4,19.8-19.6,31-31.1l-32.3-23.6c-9.3,14-17.5,27.8-19.6,31.6-4.2,7.6-12.5,21.4-12.7,26.8s1.8,20.7,0,29S139.8,354.57,138,368.67Z"/><path class="cls-1" d="M150,129.57v.1s1.8,2.5,0,3.4c-.6.3-1.7,0-3-.5.4.4,3.8,4.1,2.1,4.5a8.7,8.7,0,0,1-3.6-1c.4.4,3.4,3.8,1.2,4.1a8.65,8.65,0,0,1-4.4-1.3c.5.5,8.1,8.2,12.3,8.6s24.3,13.6,39.9,13.4c-.5-2.2-1-4.1-1.3-5.3-.4-1.7-1.3-5.3-2.4-9.3,0,0-12.7-1.4-16.7-2.3s-11.4-3.5-12.3-4.4-1.3-8.2-2.4-11.1-2.9-14.4-4.7-15.4-3.2,7-1.8,10.5-3.1.5-4-.2-3.8-4.7-5.5-3.1-1.3,2.7-1.3,2.7S147.2,128.47,150,129.57Z"/><path class="cls-5" d="M175.7,230.57l32.3,23.6c3.8-3.9,7.2-7.2,9.5-9.5,1.1-1.1,2-1.9,2.6-2.4,5.3-4.3,21.8-14.4,29.9-24.8a29.31,29.31,0,0,0,2.7-4.1c6.4-11.8-4-23-6.5-25.9,0,0-17.2,10.9-44.3,10.7C195,203.27,184.7,217.07,175.7,230.57Z"/><path class="cls-6" d="M235,82.67c-1.6-3-5.8-6.8-9.8-10.8a8.45,8.45,0,0,1-1.2-1.4s-14,12.9-15.6,15.4-8.3,12.5-14.5,11.9c-5.8,6.3-12.5,13.3-13.3,16.6-1.5,5.6,3.1,10.5,4.9,14,1.2,2.2,3.6,10.8,5.4,17.9,1.1,4,2,7.6,2.4,9.3.3,1.2.7,3,1.3,5.3,1.6,6.5,4.2,16.1,6.2,21,2.7,6.5,1.2,16.3,1.2,16.3,27.1.2,44.3-10.7,44.3-10.7-2.5-2.9-9.3-23.1-9.3-23.1l-2.8,1s-11.1,7.2-15.1,8-8.3.7-7.6-3.5c0,0-3.3-2-2-4.9,0,0-2-1.1-.3-4.2,0,0-1.9-2.7.6-4.5s8.4-1.6,8.4-1.6-7.4-1.4-8.2-2.7,3.3-1.3,6.9-1.3,8.9,2,12.3,2.2a25.68,25.68,0,0,0,7.8-.9c-.9-3.8,5.3-36.3,5.3-36.3,3.4,2,7,4.2,10.4,6.2l11.2-17.5C253.7,96.07,242.6,87.67,235,82.67Z"/><path class="cls-7" d="M191.6,15.47a23.31,23.31,0,0,0-5.9,8.6s12.8,18.1,23.3,16c0,0,.6-.4,1.4-.9C200.1,32.57,191.9,16,191.6,15.47Z"/><path class="cls-1" d="M268.6,131.77c-5.1,3.7-12.2,10.4-19.3,14.9a42.47,42.47,0,0,1-12.2,5.3,25.68,25.68,0,0,1-7.8.9c-3.4-.2-8.7-2.2-12.3-2.2s-7.6,0-6.9,1.3,8.2,2.7,8.2,2.7-5.8-.2-8.4,1.6-.6,4.5-.6,4.5c-1.7,3.1.3,4.2.3,4.2-1.3,2.9,2,4.9,2,4.9-.7,4.2,3.6,4.2,7.6,3.5s15.1-8,15.1-8l2.8-1c7.7-2.6,29.3-10.1,35.6-13.9,7.8-4.7,18.5-12,17.4-20.1-.5-3.8-12.5-14.9-26-25.9L252.9,122C260.9,126.87,268,131.27,268.6,131.77Z"/><path class="cls-8" d="M220.1,242.27c-.6.5-1.5,1.3-2.6,2.4,0,0,4.3,6.1,10.4,14.6l30.5-21.4c-3.7-9.2-7.5-18.5-8.3-20.3h0C242,228,225.4,238,220.1,242.27Z"/><path class="cls-1" d="M258.4,237.87l-30.5,21.4c13.1,18.1,34.4,46.7,38.7,47.1,6.3.5,12-1.5,20.9-1.5s42.5-2,56.8-.4,23.6,7.1,23.6,7.1c8-6.9,0-22.1,0-22.1s-8.7,2.9-16.5,1.8-31.2-13.2-42.8-13.1-23.6,5.3-28.1,4.8-12.1-20-14.7-26.7C264.5,253.17,261.5,245.57,258.4,237.87Z"/><path class="cls-4" d="M368.8,288.77a10.18,10.18,0,0,1-1,.6s8,15.2,0,22.1c0,0,1.7,3.7,3.5,5.2a13.23,13.23,0,0,0,4.4-11.5C375.1,297.87,369.1,289.27,368.8,288.77Z"/><path class="cls-3" d="M368.8,288.77c.4.5,6.3,9,7,16.4a13.14,13.14,0,0,1-4.4,11.5,3.67,3.67,0,0,0,1.3.6c2.3.2,15.6,8.7,18,10.7s8.2,13.6,12,13.6,4.2-13.6,3.1-19.2-9.6-19-11.1-21.4-.9-8.7-2.3-11.6-7.1-11.6-9.6-10.2C380.6,280.47,371.7,286.67,368.8,288.77Z"/></svg>