<svg xmlns="http://www.w3.org/2000/svg" xmlns:xlink="http://www.w3.org/1999/xlink" viewBox="0 0 2653 1739.19"><defs><style>.cls-1{isolation:isolate;}.cls-2{fill:#5f768e;}.cls-3{fill:#375472;}.cls-4{fill:#b5b9bd;}.cls-5{fill:#fff;}.cls-6{fill:#6e8cab;}.cls-7{fill:#293f56;}.cls-8{fill:#91a8be;}.cls-9{fill:#497096;}.cls-10{fill:#e8e8e8;}.cls-11{fill:#232323;}.cls-12{fill:#ecf1f4;}.cls-13{fill:#4d9dd5;}.cls-14{fill:#fcfdfc;}.cls-15{fill:#f9ab72;}.cls-16{fill:#f79a57;}.cls-17{fill:#233750;}.cls-18{fill:#fbc197;}.cls-19{fill:#ccc;}.cls-20{fill:#fffdfd;}.cls-21{fill:#202b40;}.cls-22{fill:#be5366;}.cls-23{fill:#f06d87;}.cls-24{fill:#f0f0f0;}.cls-25{fill:#e5e5e4;}.cls-26{fill:#d0d3d3;}.cls-27{fill:#ffab8b;}.cls-28{fill:#ffd4ae;}.cls-29{fill:#1f1916;}.cls-30{fill:#355581;}.cls-31{fill:#383b59;}.cls-32{fill:#3b3735;}.cls-33{fill:#5a5e8e;}.cls-34{fill:#f3a514;}.cls-35{fill:#ffc999;}.cls-36{fill:#d1d2d2;}.cls-37{fill:#f1f1f1;}.cls-38{fill:#f9af6f;}.cls-39{fill:#f79a54;}.cls-40{fill:#fbb87e;}.cls-41{fill:#1a293c;}.cls-42{fill:#b3b3b3;}.cls-43{fill:url(#Super_Soft_Black_Vignette);}.cls-44{fill:#9096a5;mix-blend-mode:multiply;opacity:0.62;}.cls-45{fill:#bce2e4;opacity:0.43;}</style><radialGradient id="Super_Soft_Black_Vignette" cx="575.2" cy="1043.43" r="73.97" gradientUnits="userSpaceOnUse"><stop offset="0.57" stop-color="#130c0e"/><stop offset="0.8" stop-color="#130c0e"/><stop offset="1" stop-color="#130c0e"/></radialGradient></defs><g class="cls-1"><g id="Layer_1" data-name="Layer 1"><path class="cls-2" d="M1319.57,1463c-679,0-1229.44,28.85-1229.44,64.45s550.44,64.46,1229.44,64.46S2549,1563,2549,1527.44,1998.57,1463,1319.57,1463Z"/><path class="cls-3" d="M2221.91,929.89H1812.07l-26.24-32.65V295.57c10.24-12.76,16-19.91,26.24-32.65h409.84c10.25,12.74,16,19.89,26.24,32.65V897.24Z"/><rect class="cls-4" x="1916.38" y="869.74" width="198.8" height="25.91"/><path class="cls-4" d="M2230.29,380.36c0,6.71-4.4,12.2-9.78,12.2h-43.7c-5.38,0-9.78-5.49-9.78-12.2V342.85c0-6.71,4.4-12.2,9.78-12.2h43.7c5.38,0,9.78,5.49,9.78,12.2Z"/><path class="cls-4" d="M2223.69,793.14c0,6.71-4.4,12.21-9.78,12.21h-23.12c-5.38,0-9.78-5.5-9.78-12.21V776.21c0-6.71,4.4-12.21,9.78-12.21h23.12c5.38,0,9.78,5.5,9.78,12.21Z"/><path class="cls-3" d="M2221.91,929.89H1812.07l-26.24-32.65V295.57c10.24-12.76,16-19.91,26.24-32.65l436.08,634.32Z"/><path class="cls-4" d="M1811.17,738c0,6.71-1.63,12.2-3.62,12.2s-3.62-5.49-3.62-12.2V437.37c0-6.71,1.63-12.2,3.62-12.2s3.62,5.49,3.62,12.2Z"/><path class="cls-4" d="M1823.84,731.43c0,3.52-4.4,6.39-9.78,6.39h-.35c-5.38,0-9.78-2.87-9.78-6.39s4.4-6.4,9.78-6.4h.35C1819.44,725,1823.84,727.91,1823.84,731.43Z"/><path class="cls-4" d="M1823.84,691.35c0,3.51-4.4,6.39-9.78,6.39h-.35c-5.38,0-9.78-2.88-9.78-6.39s4.4-6.4,9.78-6.4h.35C1819.44,685,1823.84,687.83,1823.84,691.35Z"/><path class="cls-4" d="M1823.84,652.72c0,3.52-4.4,6.39-9.78,6.39h-.35c-5.38,0-9.78-2.87-9.78-6.39s4.4-6.4,9.78-6.4h.35C1819.44,646.32,1823.84,649.2,1823.84,652.72Z"/><path class="cls-4" d="M1823.84,613.36c0,3.52-4.4,6.4-9.78,6.4h-.35c-5.38,0-9.78-2.88-9.78-6.4s4.4-6.39,9.78-6.39h.35C1819.44,607,1823.84,609.85,1823.84,613.36Z"/><path class="cls-4" d="M1823.84,573.28c0,3.52-4.4,6.39-9.78,6.39h-.35c-5.38,0-9.78-2.87-9.78-6.39s4.4-6.39,9.78-6.39h.35C1819.44,566.89,1823.84,569.76,1823.84,573.28Z"/><path class="cls-4" d="M1823.84,534.65c0,3.52-4.4,6.4-9.78,6.4h-.35c-5.38,0-9.78-2.88-9.78-6.4s4.4-6.39,9.78-6.39h.35C1819.44,528.26,1823.84,531.14,1823.84,534.65Z"/><path class="cls-4" d="M1823.84,488c0,3.52-4.4,6.39-9.78,6.39h-.35c-5.38,0-9.78-2.87-9.78-6.39s4.4-6.39,9.78-6.39h.35C1819.44,481.62,1823.84,484.49,1823.84,488Z"/><path class="cls-4" d="M1823.84,447.93c0,3.51-4.4,6.39-9.78,6.39h-.35c-5.38,0-9.78-2.88-9.78-6.39s4.4-6.4,9.78-6.4h.35C1819.44,441.53,1823.84,444.41,1823.84,447.93Z"/><path class="cls-4" d="M2137.82,832.12c5.38,0,9.78,1.64,9.78,3.65s-4.4,3.64-9.78,3.64H1896.15c-5.38,0-9.78-1.64-9.78-3.64s4.4-3.65,9.78-3.65Z"/><path class="cls-4" d="M2132.51,819.37c2.82,0,5.14,4.51,5.14,10s-2.32,10-5.14,10-5.14-4.51-5.14-10S2129.68,819.37,2132.51,819.37Z"/><path class="cls-4" d="M2100.29,819.37c2.83,0,5.14,4.51,5.14,10s-2.31,10-5.14,10-5.13-4.51-5.13-10S2097.47,819.37,2100.29,819.37Z"/><ellipse class="cls-4" cx="2069.25" cy="829.39" rx="5.14" ry="10.02"/><ellipse class="cls-4" cx="2037.62" cy="829.39" rx="5.14" ry="10.02"/><path class="cls-4" d="M2005.41,819.37c2.82,0,5.14,4.51,5.14,10s-2.32,10-5.14,10-5.14-4.51-5.14-10S2002.58,819.37,2005.41,819.37Z"/><path class="cls-4" d="M1974.37,819.37c2.82,0,5.13,4.51,5.13,10s-2.31,10-5.13,10-5.14-4.51-5.14-10S1971.54,819.37,1974.37,819.37Z"/><ellipse class="cls-4" cx="1936.88" cy="829.39" rx="5.14" ry="10.02"/><ellipse class="cls-4" cx="1904.67" cy="829.39" rx="5.14" ry="10.02"/><path class="cls-4" d="M2188.77,286.85H1837.05c-1.46,0-2.65-1.48-2.65-3.3v-4.09c0-1.82,1.19-3.3,2.65-3.3h351.72c1.46,0,2.65,1.48,2.65,3.3v4.09C2191.42,285.37,2190.23,286.85,2188.77,286.85Z"/><path class="cls-4" d="M2188.77,306.6H1837.05c-1.46,0-2.65-1.48-2.65-3.3v-4.09c0-1.82,1.19-3.3,2.65-3.3h351.72c1.46,0,2.65,1.48,2.65,3.3v4.09C2191.42,305.12,2190.23,306.6,2188.77,306.6Z"/><path class="cls-5" d="M2074.64,586.48c6.77,21.88-18.36,13.08-45.61,17.16s-38.09,12.16-47.89,0c-6.94-8.58,17.65-15.93,44.9-20S2072.73,580.33,2074.64,586.48Z"/><path class="cls-5" d="M2079.65,684.13c-6.78,46.33-9.56,98.32-29.16,91.25-51.34-18.52-17.82-39.5-31.66-84.1-9.38-30.24-28.57-73.75-37.69-87.6-5.25-8,36.85-.83,45-2,12-1.8,41.56-31.62,51.35-12.81,2.5,4.81-1.9,17.24-1.28,30.07.46,9.36,6.83,19.59,6.57,29.71A296.65,296.65,0,0,1,2079.65,684.13Z"/><path class="cls-5" d="M2106.14,527.51c3,20.15-8.6,38.59-15,39.55s-5.11-15.94-8.12-36.09-9.18-35.93-2.8-36.89S2103.13,507.36,2106.14,527.51Z"/><path class="cls-5" d="M2073.15,530.25c3.53,23.55-28.61,54-53.15,57.64s-40.19-2.13-43.71-25.68,21.51-64.28,46-68S2069.63,506.7,2073.15,530.25Z"/><path class="cls-5" d="M1971.89,440.38c19.26,20.92,50.68,48.75,73.74,63.21,24.31,15.26-12.08,36.55-18.34,41.75-5,4.15-31.5,16.18-40-1.88-13.66-29.1-25.34-41.06-42.79-62.05-36-43.35-73.08-87.6-63.41-95.64,4.39-3.65,21.39-22.48,33.24-11.78C1928.59,386.84,1950.7,417.36,1971.89,440.38Z"/><path class="cls-5" d="M2008.78,630.3a18,18,0,0,1-2.8,12.54c-.66,1-3.2,7.79-3.29,17.6-.32,32.66,1.89,84.71,3.77,88.77,2.24,4.82-14.67,9.28-16.81,4.24-4.48-10.54-3.17-31.31-6.72-51-4.4-24.36-4-45.54-5.85-51.22-1.54-4.62-4.06-13-4.55-16.27-1.51-10.07-9.83-16.4.64-18,4.83-.72,12.12,2.23,19.09,4.11C2000.39,623.31,2008,624.88,2008.78,630.3Z"/><path class="cls-6" d="M1785.83,331.39V295.57c10.24-12.76,16-19.91,26.24-32.65h409.84c10.25,12.74,16,19.89,26.24,32.65v35.82Z"/><path class="cls-6" d="M1785.83,861.4v35.84l26.24,32.65h409.84l26.24-32.65V861.4Z"/><path class="cls-3" d="M1959.4,1481.14H1204c-41.59,0-78.3-29.59-81.57-65.75L1073.7,876.28c-5.3-58.65,45.54-106.63,113-106.63h661.38c67.44,0,127,48,132.26,106.63l48.75,539.11C2032.34,1451.55,2001,1481.14,1959.4,1481.14Z"/><path class="cls-7" d="M1882.73,1482.33l-754.18,27.57c-41.53,1.52-77.28-26.81-79.45-63,0,0,15.65-658.51,83-661,0,0,785.63,19.33,789.15,77.94l33,549.93C1956.45,1450,1924.26,1480.81,1882.73,1482.33Z"/><path class="cls-8" d="M1144.2,1462.63l684.23,45.5c41.54,1,76.9-27.81,78.57-64,0,0-24.78-658.24-92.14-659.83,0,0-672.27,25.07-675,83.72l-38.74,503.23C1099.47,1407.44,1102.66,1461.65,1144.2,1462.63Z"/><path class="cls-6" d="M1877.1,1481.14H1121.72c-41.59,0-75.62-29.59-75.62-65.75V876.28c0-58.65,55.18-106.63,122.62-106.63H1830.1c67.44,0,122.62,48,122.62,106.63v539.11C1952.72,1451.55,1918.69,1481.14,1877.1,1481.14Z"/><path class="cls-9" d="M1952.72,954.58H1046.1v-78.3c0-58.65,55.18-106.63,122.62-106.63H1830.1c67.44,0,122.62,48,122.62,106.63Z"/><path class="cls-3" d="M1193.64,829.52c-10.15,0-18.45-8-18.45-17.85v-42h36.89v42C1218,820,1207.87,828.51,1193.64,829.52Z"/><path class="cls-3" d="M1320.74,829.52c-10.14,0-18.44-8-18.44-17.85v-42h36.88v42C1339.18,821.49,1330.88,829.52,1320.74,829.52Z"/><path class="cls-3" d="M1447.4,829.52c-10.15,0-18.44-8-18.44-17.85v-42h36.88v42C1465.84,821.49,1457.54,829.52,1447.4,829.52Z"/><path class="cls-10" d="M1313.46,823.51c-10.14,0-18.44-8-18.44-17.84v-46c0-9.81,8.3-17.84,18.44-17.84s18.44,8,18.44,17.84v46C1331.9,815.48,1323.61,823.51,1313.46,823.51Z"/><path class="cls-10" d="M1441.14,823.51c-10.14,0-18.44-8-18.44-17.84v-46c0-9.81,8.3-17.84,18.44-17.84s18.44,8,18.44,17.84v46C1459.58,815.48,1451.29,823.51,1441.14,823.51Z"/><path class="cls-3" d="M1570.93,829.52c-10.14,0-18.44-8-18.44-17.85v-42c0-2.82,36.88.39,36.88.39v41.63C1589.37,821.49,1581.07,829.52,1570.93,829.52Z"/><path class="cls-10" d="M1564.27,823.51c-10.15,0-18.45-8-18.45-17.84v-46c0-9.81,8.3-17.84,18.45-17.84s18.44,8,18.44,17.84v46C1582.71,815.48,1574.41,823.51,1564.27,823.51Z"/><path class="cls-3" d="M1689.41,829.52c-10.14,0-18.44-8-18.44-17.85v-42c0-2.82,36.88.39,36.88.39v41.63C1707.85,821.49,1699.55,829.52,1689.41,829.52Z"/><path class="cls-10" d="M1682.75,823.51c-10.15,0-18.45-8-18.45-17.84v-46c0-9.81,8.3-17.84,18.45-17.84s18.44,8,18.44,17.84v46C1701.19,815.48,1692.89,823.51,1682.75,823.51Z"/><path class="cls-3" d="M1803.33,829.52c-10.14,0-18.44-8-18.44-17.85v-42c0-2.82,36.89.39,36.89.39v41.63C1821.78,821.49,1813.48,829.52,1803.33,829.52Z"/><path class="cls-10" d="M1796.67,823.51c-10.14,0-18.44-8-18.44-17.84v-46c0-9.81,8.3-17.84,18.44-17.84s18.44,8,18.44,17.84v46C1815.11,815.48,1806.81,823.51,1796.67,823.51Z"/><rect class="cls-7" x="1130.55" y="1058.05" width="62.3" height="68.18"/><rect class="cls-7" x="1229.7" y="1058.05" width="62.3" height="68.18"/><rect class="cls-7" x="1328.85" y="1058.05" width="62.3" height="68.18"/><rect class="cls-7" x="1427.99" y="1058.05" width="62.3" height="68.18"/><rect class="cls-7" x="1517.89" y="1058.05" width="62.3" height="68.18"/><rect class="cls-7" x="1617.04" y="1058.05" width="62.3" height="68.18"/><rect class="cls-7" x="1716.19" y="1058.05" width="62.3" height="68.18"/><rect class="cls-7" x="1815.34" y="1058.05" width="62.3" height="68.18"/><rect class="cls-7" x="1716.19" y="1248.25" width="62.3" height="68.18"/><rect class="cls-7" x="1815.34" y="1248.25" width="62.3" height="68.18"/><rect class="cls-7" x="1130.55" y="1153.15" width="62.3" height="68.18"/><rect class="cls-7" x="1229.7" y="1153.15" width="62.3" height="68.18"/><rect class="cls-7" x="1328.85" y="1153.15" width="62.3" height="68.18"/><rect class="cls-7" x="1427.99" y="1153.15" width="62.3" height="68.18"/><rect class="cls-7" x="1517.89" y="1153.15" width="62.3" height="68.18"/><rect class="cls-7" x="1617.04" y="1153.15" width="62.3" height="68.18"/><rect class="cls-7" x="1716.19" y="1153.15" width="62.3" height="68.18"/><rect class="cls-7" x="1815.34" y="1153.15" width="62.3" height="68.18"/><rect class="cls-7" x="1130.55" y="1248.25" width="62.3" height="68.18"/><rect class="cls-7" x="1229.7" y="1248.25" width="62.3" height="68.18"/><rect class="cls-7" x="1328.85" y="1248.25" width="62.3" height="68.18"/><rect class="cls-7" x="1427.99" y="1248.25" width="62.3" height="68.18"/><rect class="cls-7" x="1617.04" y="1347.31" width="62.3" height="68.18"/><rect class="cls-7" x="1517.89" y="1248.25" width="62.3" height="68.18"/><rect class="cls-7" x="1617.04" y="1248.25" width="62.3" height="68.18"/><rect class="cls-7" x="1130.55" y="1347.31" width="62.3" height="68.18"/><rect class="cls-7" x="1229.7" y="1347.31" width="62.3" height="68.18"/><rect class="cls-7" x="1328.85" y="1347.31" width="62.3" height="68.18"/><rect class="cls-7" x="1427.99" y="1347.31" width="62.3" height="68.18"/><rect class="cls-7" x="1517.89" y="1347.31" width="62.3" height="68.18"/><path class="cls-10" d="M1186.32,823.51c-10.15,0-18.44-8-18.44-17.84v-46c0-9.81,8.29-17.84,18.44-17.84s18.44,8,18.44,17.84v46C1204.76,815.48,1196.46,823.51,1186.32,823.51Z"/><path class="cls-8" d="M1876.24,1283.06l-214.45,196.08s8.11-34.52,8.17-56.22c0-13.78-3.2-25.8-4.29-45.59-3.05-55.51,33.91-69.64,51.37-77.86,26.77-12.61,70.66-3.28,97.13-4.78C1825.34,1294.06,1867.9,1292.45,1876.24,1283.06Z"/><path class="cls-3" d="M1947.28,1270.72l-285.49,208.42s14.19-39.63,17-65c1.77-16.13-.66-30.53.49-53.82,3.24-65.33,50-78.22,72.26-86.12,34.14-12.11,86.38,3.17,118.77,4C1884,1278.57,1936,1280.89,1947.28,1270.72Z"/><path class="cls-11" d="M1920.57,1490.85c8.88-1.93,19.67-5.5,20.31-11.23s23.48,1.68,23.48,1.68a65.2,65.2,0,0,1,1.48,20h-14.17s-.85-5.27-5.08-2.63-2.33,4.54-12.9,4.54h-17.92S1911.68,1492.75,1920.57,1490.85Z"/><path class="cls-12" d="M1937.29,1376.23c6.77-1,47.38,7.64,47.38,7.64l13.64,16.76-9.31,30.25-31.89-12.65,8.09,63.07h-29.61s-10.58-86-10.58-92.18S1930.51,1377.18,1937.29,1376.23Z"/><polygon class="cls-13" points="1993.56 1416.07 1993.56 1394.79 1998.31 1400.63 1993.56 1416.07"/><polygon class="cls-12" points="1988.99 1430.88 1957.11 1418.23 1965.2 1481.3 1961.26 1481.3 1952.35 1410.65 1990.79 1425.06 1988.99 1430.88"/><path class="cls-11" d="M2074.82,1462.8s-3.74,2.76-.09,6.32,4.4.85,8.43,12.05,6.85,19,6.85,19-6.57,8-11.44-.66-12.15-20.64-16.83-19.28-7.27-23.7-7.27-23.7,6.79-6.25,14.93-8.7Z"/><path class="cls-14" d="M1991.45,1399.81l49.92-5.92a79,79,0,0,1,1.28,23c-1.28,13.28-36.05,54-36.05,54l47-15.45,11.43,27.71-73.63,24h-14.38s-10.58-4-7.62-21.2S1991.45,1399.81,1991.45,1399.81Z"/><path class="cls-12" d="M1991.45,1399.81l2.87-.33c-5.13,18.85-17.4,64.44-19.74,78-2.95,17.19,7.62,21.18,7.62,21.18h14.39l66-21.53,2.53,6.13-73.63,24h-14.38s-10.58-4-7.62-21.2S1991.45,1399.81,1991.45,1399.81Z"/><path class="cls-15" d="M1959.93,1261.81c.94-6.14,2.08-12.66,2.93-14.63,3.13-7.17,10.09-8.42,11.45-9.55l3.37,13.11s14.92,10.82,15.26,10.92c7.63,2.24,1.56,21.08.93,25.24-.49,3.29-7.18,4.78-8.48,6.17-9.34,10-11.15,5.83-11.15,5.83s2-6-3.2-13.85c-1.65-2.44-4-2.82-5.77-3.11-2-.33-6.11-.28-7.37-1.89s.24-5,.32-5.87C1958.26,1273.71,1959,1268,1959.93,1261.81Z"/><path class="cls-16" d="M1986.71,1272.76c.73-4.76,4.79-2.57,9.62,2.07-.74,5.1-2.17,10.16-2.46,12.07-.49,3.29-7.18,4.78-8.48,6.17-9.34,10-11.15,5.83-11.15,5.83s2-6-3.2-13.85a6.77,6.77,0,0,0-4.21-2.8S1984.77,1285.56,1986.71,1272.76Z"/><path class="cls-17" d="M1992.92,1231.75c9.56,3.61,12.27,12.89,13.48,23.16a27.85,27.85,0,0,1-4.17,17.92l-8.73,20.79,1.45-5.85-5.2-6.11s-4.52-6.2-3-8.9c1.94-3.5,1.14-12.36-2.46-13.55s-3.45,7.23-4.93,4.12-10.67-23.79-12-22C1965,1235.58,1974.07,1224.62,1992.92,1231.75Z"/><path class="cls-14" d="M1974.29,1293.62l25.55-15.12s14.27,13.91,19.78,24.42,21.75,91,21.75,91c-52.9,10-50.26,7.14-50.26,7.14C1970.8,1362.83,1974.29,1293.62,1974.29,1293.62Z"/><path class="cls-14" d="M1942.2,1325.66c4.89-2,23-15.47,32.09-32l13.43,40.64s-42.54,16.82-48.88,17.31-29.11-39.19-29.11-39.19l12.28-13.53S1939.12,1326.92,1942.2,1325.66Z"/><path class="cls-18" d="M1900.27,1287.24c3,3.87,5.69,8,7.1,5.89s-2.39-3.67-2.1-6.37c.22-2,2.52,0,5.56,2.6a51.73,51.73,0,0,1,3.89,3.93c4.26,4.81,3.66,7,5.83,8.43s-9,8.3-9,8.3-5-3.61-7.07-4.3-12.67-16.14-9.74-20.74S1897.31,1283.35,1900.27,1287.24Z"/><rect class="cls-19" x="1276.48" y="673.32" width="313.85" height="65.84"/><rect class="cls-20" x="1276.48" y="673.32" width="313.85" height="32.92"/><polygon class="cls-21" points="1623.4 708.8 1623.4 703.69 1779.08 703.69 1785.83 708.8 1623.4 708.8"/><polygon class="cls-21" points="1623.4 706.24 1623.4 703.69 1779.08 703.69 1782.46 706.24 1623.4 706.24"/><rect class="cls-22" x="1484.12" y="673.32" width="106.21" height="65.84"/><rect class="cls-23" x="1484.12" y="673.32" width="106.21" height="32.92"/><rect class="cls-19" x="1217.11" y="681.92" width="53.95" height="48.64"/><rect class="cls-24" x="1217.11" y="681.92" width="53.95" height="24.32"/><polygon class="cls-22" points="1596.01 724.72 1590.33 731.97 1590.33 680.52 1596.01 687.77 1596.01 724.72"/><polygon class="cls-23" points="1596.01 706.24 1590.33 706.24 1590.33 680.52 1596.01 687.77 1596.01 706.24"/><rect class="cls-25" x="1596.01" y="687.77" width="2.84" height="36.94"/><rect class="cls-20" x="1596.01" y="687.77" width="2.84" height="18.47"/><rect class="cls-21" x="1598.85" y="685.55" width="2.76" height="41.38"/><rect class="cls-17" x="1598.85" y="685.55" width="2.76" height="20.69"/><rect class="cls-21" x="1601.61" y="692.58" width="19.03" height="27.33"/><rect class="cls-17" x="1601.61" y="692.58" width="19.03" height="13.66"/><polygon class="cls-21" points="1639.68 712.65 1620.64 719.91 1620.64 692.58 1639.68 699.84 1639.68 712.65"/><polygon class="cls-17" points="1639.68 706.24 1620.64 706.24 1620.64 692.58 1639.68 699.84 1639.68 706.24"/><rect class="cls-26" x="1276.48" y="673.32" width="5.31" height="65.84"/><rect class="cls-24" x="1276.48" y="673.32" width="5.31" height="32.92"/><rect class="cls-25" x="1265.64" y="637.65" width="10.84" height="137.19"/><rect class="cls-20" x="1265.64" y="637.65" width="10.84" height="68.6"/><rect class="cls-19" x="1206.27" y="660.32" width="10.84" height="91.84"/><rect class="cls-20" x="1206.27" y="660.32" width="10.84" height="45.92"/><rect class="cls-17" x="1589.1" y="703.69" width="1.23" height="35.48"/><rect class="cls-17" x="1551.08" y="703.69" width="1.23" height="35.48"/><rect class="cls-17" x="1581.5" y="722.52" width="1.23" height="16.64"/><rect class="cls-17" x="1573.89" y="722.52" width="1.23" height="16.64"/><rect class="cls-17" x="1566.29" y="722.52" width="1.23" height="16.64"/><rect class="cls-17" x="1558.69" y="722.52" width="1.23" height="16.64"/><rect class="cls-17" x="1513.07" y="703.69" width="1.23" height="35.48"/><rect class="cls-17" x="1543.48" y="722.52" width="1.23" height="16.64"/><rect class="cls-17" x="1535.88" y="722.52" width="1.23" height="16.64"/><rect class="cls-17" x="1528.28" y="722.52" width="1.23" height="16.64"/><rect class="cls-17" x="1520.67" y="722.52" width="1.23" height="16.64"/><rect class="cls-17" x="1475.06" y="703.69" width="1.23" height="35.48"/><rect class="cls-17" x="1505.47" y="722.52" width="1.23" height="16.64"/><rect class="cls-17" x="1497.87" y="722.52" width="1.23" height="16.64"/><rect class="cls-17" x="1490.26" y="722.52" width="1.23" height="16.64"/><rect class="cls-17" x="1482.66" y="722.52" width="1.23" height="16.64"/><rect class="cls-17" x="1437.04" y="703.69" width="1.23" height="35.48"/><rect class="cls-17" x="1467.46" y="722.52" width="1.23" height="16.64"/><rect class="cls-17" x="1459.85" y="722.52" width="1.23" height="16.64"/><rect class="cls-17" x="1452.25" y="722.52" width="1.23" height="16.64"/><rect class="cls-17" x="1444.65" y="722.52" width="1.23" height="16.64"/><rect class="cls-17" x="1399.03" y="703.69" width="1.23" height="35.48"/><rect class="cls-17" x="1429.44" y="722.52" width="1.23" height="16.64"/><rect class="cls-17" x="1421.84" y="722.52" width="1.23" height="16.64"/><rect class="cls-17" x="1414.24" y="722.52" width="1.23" height="16.64"/><rect class="cls-17" x="1406.63" y="722.52" width="1.23" height="16.64"/><rect class="cls-17" x="1361.02" y="703.69" width="1.23" height="35.48"/><rect class="cls-17" x="1391.43" y="722.52" width="1.23" height="16.64"/><rect class="cls-17" x="1383.83" y="722.52" width="1.23" height="16.64"/><rect class="cls-17" x="1376.22" y="722.52" width="1.23" height="16.64"/><rect class="cls-17" x="1368.62" y="722.52" width="1.23" height="16.64"/><rect class="cls-27" x="967.56" y="441.19" width="83.96" height="124.03" transform="translate(-27.41 59.23) rotate(-3.32)"/><rect class="cls-28" x="967.56" y="441.19" width="83.96" height="124.03" transform="translate(-27.41 59.23) rotate(-3.32)"/><path class="cls-28" d="M904.66,376.79C908.06,435.6,911.39,493,985.07,479c40.38-7.66,71.49-52,68.08-110.8S1013.74,263.61,972.74,266,901.25,318,904.66,376.79Z"/><path class="cls-28" d="M958.35,268.89a53.33,53.33,0,0,1,14.39-2.9c41-2.38,77,43.38,80.41,102.19,1.61,27.81-4.55,52.3-15.71,71.29l10.43-.61,6.76,116.73-83.57,9.15-1.42-24.5,12.89-68.08c-55.44,1.14-58.46-51-61.55-104.3C918.5,325.1,934,287.31,958.35,268.89Z"/><path class="cls-29" d="M915.8,318.7c2.37,41,38.52,87.21,81.62,84.72s76.11-37.75,73.74-78.73-39.24-72.18-82.34-69.68S913.43,277.71,915.8,318.7Z"/><path class="cls-29" d="M965.94,359.34c2.72,47,39.4,83.13,81.93,80.67s63.57-26.3,67.82-104.91c2.53-47-66-80.4-108.5-77.94S963.22,312.33,965.94,359.34Z"/><path class="cls-29" d="M937.63,270.67c9.17-4.4,15.34-13.18,23.3-19.52a51.67,51.67,0,0,1,39.43-10.53c15,2.27,30.25,11.12,44.33,5.53,2.8-1.11,5.37-2.76,8.2-3.83,7-2.65,15.18-1.39,21.66,2.41s11.39,9.91,14.73,16.63c3.5,7,5.78,15.28,12.21,19.78,4.42,3.11,10.2,3.91,14.45,7.25,6.88,5.43,7.54,15.54,6.62,24.26-3.25,30.85-18.85,59.75-19.45,90.77-14.54-1.21-27.1-12.27-36.39-23.52s-15.11-24.95-19.81-38.76c-2.75-8.1-5.3-16.56-10.87-23.05-4.86-5.66-11.61-9.33-18.4-12.42-24.41-11.1-51.06-16.33-76.17-25.74-2.44-.91-5-2-6.4-4.21S935.28,271.8,937.63,270.67Z"/><path class="cls-29" d="M1047.87,440c26.16-1.51,44.19-11.13,55.18-36.6h.06c0-.06,0-.11,0-.17,5.83-13.57,9.67-31.63,11.68-55.34,3.38-11.62,6.5-23.29,7.76-35.26.92-8.72.26-18.83-6.62-24.26a19.08,19.08,0,0,0-3-1.88c1.39,4.77,1.39,10.23.86,15.23-1.26,12-4.38,23.65-7.76,35.27-2,23.71-5.86,41.77-11.69,55.34v.17h-.06c-11,25.47-29,35.08-55.19,36.6-22.17,1.28-42.76-7.93-57.76-23.7C996.44,427.7,1021,441.57,1047.87,440Z"/><path class="cls-30" d="M939.05,269.94l.85-.47c.28-.17.64-.34,1-.6l1.37-.91a42.85,42.85,0,0,0,7.64-7.53c1.49-1.78,3.06-3.8,4.85-6a53,53,0,0,1,6.29-6.53,52,52,0,0,1,44.81-10.61c4.47,1,9,2.38,13.55,3.69a76.27,76.27,0,0,0,14.21,2.95,27.15,27.15,0,0,0,14.49-2.41c2.29-1.07,4.49-2.37,7-3.36a23.66,23.66,0,0,1,3.82-1.08,23,23,0,0,1,4-.39,27.86,27.86,0,0,1,15.26,4.38l1.65,1.09c.55.38,1.07.83,1.6,1.25a38.87,38.87,0,0,1,3,2.69c.46.49.91,1,1.36,1.49l.68.74.63.79,1.25,1.59,1.14,1.66c.19.28.38.55.56.83l.52.87c.34.57.69,1.15,1,1.73.61,1.19,1.27,2.38,1.81,3.58,1.13,2.43,2.11,4.88,3.19,7.28a46.59,46.59,0,0,0,3.66,6.88c.38.52.73,1.06,1.14,1.55.2.24.4.5.61.74l.65.7c.42.48.91.88,1.37,1.32l.75.58.35.28.41.26c4.21,2.89,9.57,3.76,13.85,7l.4.29.1.07.11.1.18.16.71.64a5.71,5.71,0,0,1,.69.7l.67.75c.4.52.8,1,1.16,1.59l.5.84a7,7,0,0,1,.46.85,25.29,25.29,0,0,1,2.29,7.3,41.77,41.77,0,0,1,.5,7.46l-.06,1.84-.12,1.83-.18,1.83-.24,1.78c-.17,1.18-.33,2.36-.49,3.53s-.44,2.34-.65,3.49-.43,2.31-.7,3.44-.55,2.24-.83,3.35a249,249,0,0,1-7.9,24.46c-2.72,7.48-5.26,14.31-7.17,20.47-.52,1.53-.93,3-1.34,4.49s-.84,2.84-1.14,4.2-.64,2.66-.94,3.91-.48,2.45-.7,3.59c-.11.57-.21,1.12-.31,1.66a15.28,15.28,0,0,0-.26,1.58c-.13,1-.25,2-.37,2.87s-.23,1.72-.31,2.48-.09,1.46-.12,2.08c-.16,2.48-.24,3.8-.24,3.8s.07-1.32.18-3.81l.1-2.07c.07-.77.18-1.59.28-2.49s.21-1.86.32-2.88c0-.52.14-1.05.24-1.59s.19-1.09.29-1.66c.21-1.15.39-2.36.65-3.61s.58-2.56.89-3.93.69-2.77,1.08-4.23.79-3,1.28-4.52c1.83-6.2,4.27-13.08,6.95-20.57a249.08,249.08,0,0,0,7.68-24.45c.27-1.1.53-2.21.8-3.33s.43-2.26.66-3.4.46-2.28.62-3.45.3-2.36.46-3.54c.07-.6.15-1.19.23-1.79s.1-1.18.16-1.77.07-1.2.11-1.8,0-1.2.05-1.81a40.47,40.47,0,0,0-.5-7.27,24.28,24.28,0,0,0-2.21-7,4.78,4.78,0,0,0-.44-.8l-.47-.79c-.34-.51-.71-1-1.08-1.49l-.61-.67a5.66,5.66,0,0,0-.64-.66l-.72-.64-.18-.16-.06-.06-.1-.07-.38-.26c-4-3-9.33-3.9-13.8-6.9a20.78,20.78,0,0,1-5.63-5.74,48.25,48.25,0,0,1-3.77-7.05c-1.09-2.42-2.09-4.87-3.2-7.25-.55-1.21-1.18-2.33-1.79-3.5-.32-.57-.67-1.13-1-1.69l-.5-.84c-.18-.28-.37-.55-.55-.82l-1.11-1.62-1.21-1.54-.6-.77-.66-.72c-.44-.48-.87-1-1.32-1.45-1-.87-1.86-1.84-2.89-2.6-.51-.4-1-.82-1.53-1.19l-1.65-1.1a26.73,26.73,0,0,0-14.6-4.23,21.71,21.71,0,0,0-3.78.37,21.25,21.25,0,0,0-3.66,1c-2.31.91-4.58,2.22-6.92,3.31a25.42,25.42,0,0,1-7.39,2.27,31.94,31.94,0,0,1-7.62.19,73.76,73.76,0,0,1-14.4-3.05c-4.6-1.34-9.06-2.77-13.48-3.77a51.26,51.26,0,0,0-25.22.37A47.68,47.68,0,0,0,955,254.67c-1.81,2.13-3.42,4.13-4.93,5.89a42.92,42.92,0,0,1-7.77,7.44l-1.38.9c-.4.25-.77.42-1,.58Z"/><ellipse class="cls-28" cx="997.34" cy="400.04" rx="32.64" ry="29.24" transform="translate(301.69 1219.06) rotate(-71.51)"/><path class="cls-27" d="M1030.24,799.29l79-25.25-65.88-206.22a48.11,48.11,0,0,0-61.23-30.94L979,538a48.11,48.11,0,0,0-29.17,63.73Z"/><path class="cls-28" d="M871.87,838.33l20.66,42.92,188-65.59a41.24,41.24,0,0,0,24-55.88l-14-31s-86.77,35.05-115,49.16C949.15,791.22,871.87,838.33,871.87,838.33Z"/><path class="cls-28" d="M805.27,880.14c3.89,18.36,29.93,28.39,58.14,22.4s32.37-22.07,28.48-40.43-14.37-32-42.59-26.05S801.37,861.78,805.27,880.14Z"/><path class="cls-28" d="M1150.94,931.56l19,183.66s4,14.6,7.84,34c105.82-28.81,251.15,32.37,251.15,32.37l11.62,61.84s-188.45,2.69-272.53,3.28c-51.92,26-103.34-83-118-121.33l-59.56-216.8Z"/><path class="cls-31" d="M1152.81,931.2,990.53,908.57l59.77,216.76c15.4,40.1,121.36-10.43,121.36-10.43Z"/><path class="cls-28" d="M889,1197.17c-.28-30.13,5.88-62.76,17.14-86.92L991.73,939c-2.25-17.07,2.36-33.45,14.22-44.49L1044.07,859c22-20.53,60.7-14.83,86.37,12.72l15.33,16.46c25.67,27.55,28.62,66.53,6.58,87.06l-34.74,32.36-96.91,163.69s-40,89.25-68.15,104c5.93,14.73,9.28,27.91,7.82,36-19.85,110.57-161.6,221.13-161.6,221.13l-48.19-39.69S872.7,1259.89,889,1197.17Z"/><path class="cls-32" d="M1488.79,1347.54c19.23-2.54,32.37-20.52,29.34-40.17l-19.08-123.76c-3-19.65-21.07-33.52-40.3-31h0c-19.23,2.54-32.37,20.52-29.34,40.17L1462,1294.24c3,19.65,7.52,55.84,26.75,53.3Z"/><path class="cls-5" d="M1477.33,1349.05c12.9-1.7,20.9-19,17.87-38.66l-19.08-123.76c-3-19.65-15.94-34.2-28.84-32.5h0c-12.9,1.7-27.18,22.64-24.15,42.29l40.74,119.68c3,19.65.56,34.65,13.46,33Z"/><path class="cls-5" d="M1470.64,1348.36a23,23,0,0,0,14.88-29.29l-25.91-76.62a23.71,23.71,0,0,0-29.79-14.77h0a23,23,0,0,0-14.88,29.29l37.9,48c4.11,12.16,5.47,47.44,17.8,43.43Z"/><ellipse class="cls-32" cx="1453.51" cy="1269.06" rx="6.12" ry="8.35" transform="translate(-202.09 278.01) rotate(-10.22)"/><path class="cls-32" d="M1463.31,1302.49c3.36-.44,5.51-4.49,4.81-9s-4-7.89-7.35-7.45-5.51,4.5-4.8,9.06S1460,1302.94,1463.31,1302.49Z"/><path class="cls-32" d="M1468.76,1250.74a6.42,6.42,0,0,0,5.44-7.44l-8.54-55.4a6.77,6.77,0,0,0-7.47-5.74h0a6.42,6.42,0,0,0-5.44,7.44l8.54,55.4a6.77,6.77,0,0,0,7.47,5.74Z"/><path class="cls-32" d="M1462.88,1296.62c1.65-2.4,1.65-5.32,0-6.51L1443.35,1276c-1.64-1.18-4.31-.2-6,2.21h0c-1.65,2.41-1.65,5.32,0,6.51l19.54,14.15c1.64,1.19,4.31.2,6-2.21Z"/><path class="cls-32" d="M1447.8,1300.4c2.89.56,5.49-.59,5.81-2.58l3.86-23.65c.33-2-1.74-4.06-4.63-4.62h0c-2.88-.57-5.48.58-5.8,2.57l-3.87,23.65c-.32,2,1.75,4.06,4.63,4.63Z"/><path class="cls-33" d="M1020.7,1171.27c21.76-34.27,121.92-201,121.92-201l-135.68-61.71L906.11,1110.25C893.28,1141.43,1014,1181.81,1020.7,1171.27Z"/><path class="cls-32" d="M633.22,1458.71c-10.25,16.47-4.69,38,12.41,48.17l107.73,63.84c17.1,10.13,39.28,5,49.53-11.47h0c10.25-16.47,4.69-38-12.41-48.17l-99.1-39.2c-17.11-10.14-47.91-29.64-58.16-13.17Z"/><path class="cls-5" d="M639.33,1448.89c-6.87,11,1.42,28.22,18.52,38.36l107.73,63.83c17.1,10.14,36.54,9.4,43.42-1.64h0c6.87-11-.23-35.38-17.34-45.51l-118.33-44.52c-17.1-10.14-27.12-21.56-34-10.52Z"/><path class="cls-5" d="M644.11,1444.16a23,23,0,0,0,13.18,30.1l75.65,28.62a23.7,23.7,0,0,0,30.32-13.63h0a23,23,0,0,0-13.18-30.1L689,1458c-12-4.54-40.12-25.89-44.86-13.82Z"/><path class="cls-32" d="M709.07,1477c-1.79,2.87,0,7.1,3.95,9.45s8.63,1.93,10.42-.94,0-7.11-4-9.46S710.86,1474.14,709.07,1477Z"/><path class="cls-32" d="M684.2,1467.62c-1.79,2.88,0,7.11,3.94,9.46s8.63,1.93,10.42-.95,0-7.1-3.94-9.45S686,1464.75,684.2,1467.62Z"/><path class="cls-32" d="M720.72,1504.69a6.43,6.43,0,0,0,2.3,8.93l48.22,28.57a6.77,6.77,0,0,0,9.18-2.12h0a6.42,6.42,0,0,0-2.3-8.93l-48.22-28.58a6.78,6.78,0,0,0-9.18,2.13Z"/><path class="cls-32" d="M689,1471c.81,2.81,3.06,4.66,5,4.15l23.34-6.12c2-.51,2.89-3.2,2.08-6h0c-.81-2.8-3.06-4.66-5-4.14L691.09,1465c-2,.51-2.89,3.2-2.08,6Z"/><path class="cls-32" d="M695.67,1457c-2.27,1.87-3,4.61-1.7,6.12l15.82,18c1.33,1.52,4.24,1.23,6.51-.64h0c2.27-1.86,3-4.6,1.7-6.12l-15.82-18c-1.33-1.51-4.25-1.22-6.51.64Z"/><path class="cls-33" d="M1012.52,981.55,1027.86,998c25.67,27.55,62.84,38.32,84.88,17.8l39.61-40.6c22-20.53,19.09-59.51-6.58-87.06l-15.33-16.46c-25.67-27.55-64.34-33.25-86.37-12.72L1006,894.5C983.91,915,986.86,954,1012.52,981.55Z"/><path class="cls-33" d="M1136.74,991.24c24.15-25.09,20.36-74.56-9.22-103.46l-17.68-17.26a87.53,87.53,0,0,0-16.75-12.8,63.11,63.11,0,0,1,43.37,20.44l13.92,15.05c23.31,25.2,22.92,63.72-.87,86Z"/><path class="cls-34" d="M1057.81,913.47l1.94-.38c53.21-10.27,107.38-4.52,81.76-105.89l-37-221.15c-8-48.21-57.71-79-110.92-68.69l-1.94.38c-53.21,10.27-70.31,72.49-62.26,120.7L985,896.87C986.42,904.27,1004.6,923.74,1057.81,913.47Z"/><path class="cls-27" d="M1120,778l69.11-45.9s-39.44-76.43-55.23-100.2c-14.15-21.31-64.53-80.13-64.53-80.13a48.12,48.12,0,0,0-67.36-13l-2.8,1.93a48.11,48.11,0,0,0-10.62,69.27s38.15,69.81,53.93,90C1059.54,721.72,1120,778,1120,778Z"/><path class="cls-27" d="M978.31,858.82l31.61,35.63,83.17-47.8,79.72-66.71a41.24,41.24,0,0,0,7.83-60.31l-21.9-26s-86.28,67.42-111.67,90.66C1027.35,802.35,978.31,858.82,978.31,858.82Z"/><path class="cls-28" d="M1047.07,784.3c8.81-8.06,25-21.45,42.29-35.5-17.66-17.15-38.07-37.63-46.9-48.91-15.78-20.18-53.93-90-53.93-90a48.11,48.11,0,0,1,10.62-69.27l2.8-1.93a48.1,48.1,0,0,1,67.35,13s50.39,58.82,64.54,80.13c15.79,23.77,55.23,100.21,55.23,100.21l-1,.65a41.26,41.26,0,0,1-15.27,47.23l-79.72,66.71-83.17,47.8-31.61-35.63S1027.35,802.35,1047.07,784.3Z"/><path class="cls-35" d="M1078.86,850.21l79.72-66.71a41.26,41.26,0,0,0,15.27-47.23l1-.66s-39.44-76.43-55.23-100.2c-14.16-21.32-64.54-80.14-64.54-80.14A48.1,48.1,0,0,0,1010.56,534a48.12,48.12,0,0,1,58.74,17.74s50.39,58.82,64.54,80.13c15.79,23.77,55.23,100.21,55.23,100.21l-1,.65a41.26,41.26,0,0,1-15.27,47.23l-79.72,66.71-83.17,47.8-2.72-3.06Z"/><ellipse class="cls-28" cx="971.86" cy="892.86" rx="52.23" ry="33.98" transform="translate(-304.56 557.51) rotate(-27.85)"/><path class="cls-33" d="M942.32,1131.54c7.32,4,37.11-36.79,66.52-91s47.33-101.44,40-105.41-43.7,29.76-73.11,84S935,1127.57,942.32,1131.54Z"/><ellipse class="cls-28" cx="910.3" cy="1368.14" rx="76.81" ry="19.14" transform="translate(-727.08 1507.61) rotate(-61.23)"/><path class="cls-23" d="M896.35,1270.64c-36,0-65.25-29.13-65.25-64.92s29.27-64.92,65.25-64.92,65.26,29.12,65.26,64.92S932.33,1270.64,896.35,1270.64Zm0-124.93c-33.27,0-60.34,26.92-60.34,60s27.07,60,60.34,60,60.34-26.92,60.34-60S929.62,1145.71,896.35,1145.71Z"/><path class="cls-23" d="M896.35,1245.65a39.94,39.94,0,1,1,40.14-39.93A40.08,40.08,0,0,1,896.35,1245.65Zm0-75a35,35,0,1,0,35.22,35A35.16,35.16,0,0,0,896.35,1170.7Z"/><ellipse class="cls-23" cx="896.35" cy="1205.72" rx="22.61" ry="22.49"/><path class="cls-9" d="M551.26,1449.13h-.11c-1.8-.12-3.49-.24-5.29-.24H207.68v9.45c1,0,1.91.85,2.64,2.54a5.24,5.24,0,0,1,.75,1.34,17.65,17.65,0,0,1,.73,2.54c.22.84.42,1.45.64,2.3a1.2,1.2,0,0,1,.1.85c.11.12.11.12.11.24a114.53,114.53,0,0,1,2.32,23.5,32.16,32.16,0,0,1,.22,4.72,34,34,0,0,1-.22,4.73,115.46,115.46,0,0,1-2.32,23.5c0,.12,0,.12-.11.24a19.34,19.34,0,0,1-1.06,4,9.49,9.49,0,0,1-.53,1.7,8.17,8.17,0,0,1-1.89,3.26,2.27,2.27,0,0,1-1.38.61v9.45H546.29a53.09,53.09,0,0,0,26.64-7.39c14.37-8.24,23.89-23.26,23.89-40.1C596.82,1471.66,577.05,1451.68,551.26,1449.13Z"/><path class="cls-5" d="M545.88,1458.28H207.69c3.85,0,6.88,14.49,7.15,33.33a26.88,26.88,0,0,1,.28,4.73,26.55,26.55,0,0,1-.28,4.71c-.27,18.88-3.3,33.36-7.15,33.36H545.88c24,0,43.39-17,43.39-38.07S569.86,1458.28,545.88,1458.28Z"/><path class="cls-36" d="M538.45,1458.28h-9c27.49,0,49.72,17,49.72,38.06s-22.23,38.07-49.72,38.07h9c27.48,0,49.72-17,49.72-38.07S565.93,1458.28,538.45,1458.28Z"/><path class="cls-36" d="M215.12,1496.34a26.55,26.55,0,0,1-.28,4.71l360.88-4.71-360.88-4.73A26.88,26.88,0,0,1,215.12,1496.34Z"/><polygon class="cls-9" points="336.18 1516.09 351.24 1531.62 367.94 1516.09 367.94 1492.14 336.18 1492.14 336.18 1516.09"/><path class="cls-23" d="M220.35,1401.4c0,26,20.71,47.49,46.62,47.49H576.24v-9.45a1.75,1.75,0,0,1-.73-.24c-.12-.13-.36-.24-.6-.49a16.36,16.36,0,0,1-2.18-4.85,9.55,9.55,0,0,1-.49-1.93,10.37,10.37,0,0,1-.48-2.06,93.87,93.87,0,0,1-1.45-10.3v-.24a110.06,110.06,0,0,1-.73-13.2c-.13-1.58-.13-3.16-.13-4.73s0-3.15.13-4.72a110.11,110.11,0,0,1,.73-13.21v-.24a94.22,94.22,0,0,1,1.45-10.3,10.53,10.53,0,0,1,.48-2.06,9.9,9.9,0,0,1,.49-1.93,16.62,16.62,0,0,1,2.18-4.85,1.2,1.2,0,0,1,.6-.48,1.77,1.77,0,0,1,.73-.25v-9.44H267C241.06,1353.92,220.35,1375,220.35,1401.4Z"/><path class="cls-37" d="M570.31,1383.47v-.24a94.22,94.22,0,0,1,1.45-10.3c.12-.72.36-1.45.48-2.06a9.9,9.9,0,0,1,.49-1.93,12.18,12.18,0,0,1,2.18-4.85,1.2,1.2,0,0,1,.6-.48,1.77,1.77,0,0,1,.73-.25H267c-21.92,0-39.61,17-39.61,38s17.69,38,39.61,38H576.24a1.75,1.75,0,0,1-.73-.24,1.22,1.22,0,0,1-.6-.49,12,12,0,0,1-2.18-4.85,9.55,9.55,0,0,1-.49-1.93c-.12-.61-.36-1.33-.48-2.06a93.87,93.87,0,0,1-1.45-10.3v-.24c-.37-4-.49-8.48-.61-13.2a44.78,44.78,0,0,1,0-9.45C569.82,1392,569.94,1387.47,570.31,1383.47Z"/><path class="cls-36" d="M553.28,1396.68l-33.67.48h-3.77l-8.83.13-283.59,4.11L507,1405.52l8.83.13,25.32.36,12.12.12h.12a44.78,44.78,0,0,1,0-9.45Z"/><polygon class="cls-7" points="338.08 1452.58 351.42 1468.12 363.42 1452.58 363.42 1397.18 338.08 1397.18 338.08 1452.58"/><path class="cls-38" d="M548,1060.75c4.88-.86,8.77-1.29,8.2,1.68s-6.95,6.33-8,10-5.89,6.1-5.89,6.1l-8.64-8.57S543.1,1061.61,548,1060.75Z"/><path class="cls-20" d="M508.26,1056.36l31.5,5,4.26,18.25s-29.35-3.12-38.14-5.66S458,1031,458,1031,497.11,1046,508.26,1056.36Z"/><path class="cls-39" d="M465.92,1266.31c-2.39-24.33,2.41-39.24,4.35-42.73s-1-19.63-2.14-25.09l27.45-13.42s-5.24,27.65-4.33,35.73-8.83,44.39-10,55.57-2.69,44.69,2.62,51.81c7,9.4,9.63,13.88,9.63,13.88-11.12,3-27.57-11.15-28.29-15.11s1.12-9.46,3.11-14.41S468.33,1290.66,465.92,1266.31Z"/><path class="cls-17" d="M492.85,1340.93c2.79,1.56,6.74,4.16,7.71,6.64,1.48,3.73-1.74,7.26-9.2,7.26-15.2,0-19.22-4.68-20.84-9.53s-2.25,9.53-2.25,9.53h-2.95a84,84,0,0,0-1.72-19,23.85,23.85,0,0,1,2.14-15.46C481.35,1347,492.85,1340.93,492.85,1340.93Z"/><path class="cls-40" d="M445.9,1262.45c2.94-24.29,10.87-37.81,13.51-40.8s1.74-26.2,1.78-31.78l26.74-1.34s-6.14,24.76-7,32.82-18.65,43.57-22.22,54.24-12.3,43-8.66,51.13c4.81,10.71,6.41,15.65,6.41,15.65-11.49.49-24.51-16.84-24.33-20.88s3.12-9,6.15-13.41S443,1286.74,445.9,1262.45Z"/><path class="cls-17" d="M434,1315.12c9.46,29.37,22,26,22,26,2.4,2.12,5.67,5.53,6.09,8.16.63,3.94-3.27,6.7-10.55,5.09-14.85-3.3-15.86-11.22-16.39-16.3s-6.15,11.29-6.15,11.29l-2.89-.64a84.54,84.54,0,0,0,2.44-18.92A24,24,0,0,1,434,1315.12Z"/><path class="cls-38" d="M485.87,969.29l10.5-10.81c1.86,2,3.58,7.24,3.65,11.52,0,2.09,2.64,9.69,2,17.06-.65,7.77-4.57,15.29-5.29,15.84-1.41,1.1-4.88-.28-6.73-.63a8.54,8.54,0,0,0-6.48,2c-1,.92.18,3.12-.68,4-4.35,4.13-9.24,4.6-14.18-5.68-1.89-3.88,2.2-12.53,2.46-12.74S485.87,969.29,485.87,969.29Z"/><path class="cls-38" d="M462.13,993.13s-1.3-23.54-1.88-23.76S487,957,487,957l9.25,8.32s-6.76,28.37-13.46,42.85c-1,2.09.59,5,.87,6.42,1.6,8.72,1.6,8.72,4.45,16.62,3.6,9.94-29-14.76-26.49-14.76,1.57,0,5.55-10,6.56-16.19C468.8,996.51,462.13,993.13,462.13,993.13Z"/><path class="cls-41" d="M455.23,976.67c-1.12-7.93,2.77-16,2.77-16,7-15.84,13.05-19.41,23.27-17.14s16.35,13.11,16.24,16.64a25.59,25.59,0,0,1-4.11,4,19.09,19.09,0,0,1-7.66,3.75c-2.05.57-2,4.42-2.53,6.51s-3.78,3.87-3.78,3.87-.86-1.62-1.54-2.69a3.3,3.3,0,0,0-5.42.65,6.41,6.41,0,0,0-.22,5.52s4.82,6.54,4.81,7.32c-.06,4.11-17,71.58-18.89,71.68a78.18,78.18,0,0,1-6.24,6.63C428.72,1088.14,456.2,983.51,455.23,976.67Z"/><path class="cls-38" d="M490,1002.27s-8.34-.94-5.84,14.25-16-5.61-16-5.61L482.06,996Z"/><path class="cls-39" d="M479.62,992.18s0-.06,0-.08A.38.38,0,0,0,479.62,992.18Z"/><path class="cls-39" d="M491.45,1002.61c-.54-.14-1-.26-1.44-.34h-.18a5.45,5.45,0,0,0-5,3.3s-6.51-7.09-5.2-13.38C479.55,993.05,479.58,999.62,491.45,1002.61Z"/><path class="cls-20" d="M455,1115.08c1-27.21-3.49-43.12-3.75-56.94-.68-37.38,15-48.68,15-48.68L486,1026s16.55,18,15,65.2c-.2,6.37-2.55,31.85-2.55,56.67,0,36.07-.76,84.32-.76,84.32l-46.42.84s-1.28-42.32,0-77.37C451.73,1143.86,454.61,1126.74,455,1115.08Z"/><path class="cls-42" d="M501.05,1090.42c-4.91.53-9,1.16-9.6,1.82-1.54,1.77-11.11-49.76-11.11-49.76S494.9,1061,500.69,1073A174.44,174.44,0,0,1,501.05,1090.42Z"/><path class="cls-42" d="M499.68,1111.68c-13.83-4.32-20.46-21.43-20.46-21.43l21.82,3.54C501,1098.17,499.68,1102.58,499.68,1111.68Z"/><path class="cls-43" d="M525.72,1124.57a24.86,24.86,0,0,0,34.59-7.16c68.67-105.6,83-151.18,72.25-158.34S589.69,985.7,518.92,1089.9a24.87,24.87,0,0,0,6.8,34.67Z"/><path class="cls-6" d="M540.84,1056.7c-76.24,114.73-128.74,213.92-117.25,221.55s82.6-79.18,158.84-193.9Z"/><path class="cls-44" d="M540.54,1056.46C464.29,1171.18,411.79,1270.37,423.28,1278a1.87,1.87,0,0,0,.28.16l138-207.71Z"/><path class="cls-45" d="M595.24,716.13a170.81,170.81,0,0,0-35.65,73.5c-.76,3.63-1.43,7.25-1.94,10.87A170.25,170.25,0,0,0,752.31,993.29a168,168,0,0,0,42.6-12.54,170.53,170.53,0,0,0,41.34-25.94,167.4,167.4,0,0,0,26.63-28.35A170.27,170.27,0,0,0,595.24,716.13Z"/><path class="cls-9" d="M689.22,998.23c-91.08-19.41-151.82-106.69-138.3-198.69.51-3.51,1.17-7.21,2-11.32a176.85,176.85,0,0,1,210-136.29c95.47,20.31,156.6,114.52,136.29,210A176,176,0,0,1,840.65,960a177.22,177.22,0,0,1-43,27,176.64,176.64,0,0,1-71.5,15.16A178.94,178.94,0,0,1,689.22,998.23Zm-61.71-303.5A163.23,163.23,0,0,0,566.24,791c-.8,3.8-1.41,7.21-1.87,10.46C551.88,886.44,608,967,692,984.94a163.76,163.76,0,0,0,59.23,1.64,161,161,0,0,0,40.89-12,163.83,163.83,0,0,0,39.72-24.92A162.52,162.52,0,0,0,886,859.1C904.7,771,848.26,684,760.12,665.22a162.88,162.88,0,0,0-132.61,29.51Z"/><path class="cls-38" d="M547.73,1089.3c3.57,0,9.85,8.2,9.41,11.65s-11.64,4.26-13,3.29-15.21-2.57-15.21-2.57l3.58-10.84S544.19,1089.31,547.73,1089.3Z"/><path class="cls-20" d="M470.6,1026.26c2.27,0,28.44,52.74,28.44,52.74l34.82,6.51v22.6s-33.73-3.61-39.64-5.35S477,1087.69,477,1087.69,468.32,1026.26,470.6,1026.26Z"/><path class="cls-23" d="M1043.93,1042.82c-36,0-65.26-29.13-65.26-64.92S1008,913,1043.93,913s65.25,29.12,65.25,64.92S1079.91,1042.82,1043.93,1042.82Zm0-124.93c-33.27,0-60.34,26.92-60.34,60s27.07,60,60.34,60,60.34-26.92,60.34-60S1077.2,917.89,1043.93,917.89Z"/><path class="cls-23" d="M1043.93,1017.83a39.93,39.93,0,1,1,40.13-39.93A40.08,40.08,0,0,1,1043.93,1017.83Zm0-75a35,35,0,1,0,35.22,35A35.16,35.16,0,0,0,1043.93,942.88Z"/><ellipse class="cls-23" cx="1043.93" cy="977.9" rx="22.61" ry="22.49"/><path class="cls-23" d="M836,1517.26c-36,0-65.25-29.12-65.25-64.92S800,1387.42,836,1387.42s65.25,29.12,65.25,64.92S872,1517.26,836,1517.26Zm0-124.92c-33.27,0-60.34,26.91-60.34,60s27.07,60,60.34,60,60.34-26.91,60.34-60S869.28,1392.34,836,1392.34Z"/><path class="cls-23" d="M836,1492.27a39.93,39.93,0,1,1,40.14-39.93A40.08,40.08,0,0,1,836,1492.27Zm0-75a35,35,0,1,0,35.22,35A35.16,35.16,0,0,0,836,1417.32Z"/><ellipse class="cls-23" cx="836.01" cy="1452.34" rx="22.61" ry="22.49"/><path class="cls-23" d="M1249,1255.11c-36,0-65.26-29.12-65.26-64.91s29.28-64.92,65.26-64.92,65.25,29.12,65.25,64.92S1285,1255.11,1249,1255.11Zm0-124.92c-33.27,0-60.34,26.92-60.34,60s27.07,60,60.34,60,60.34-26.92,60.34-60S1282.27,1130.19,1249,1130.19Z"/><path class="cls-23" d="M1249,1230.13a39.94,39.94,0,1,1,40.13-39.93A40.08,40.08,0,0,1,1249,1230.13Zm0-75a35,35,0,1,0,35.22,35A35.16,35.16,0,0,0,1249,1155.18Z"/><ellipse class="cls-23" cx="1249" cy="1190.2" rx="22.61" ry="22.49"/></g></g></svg>