<?xml version="1.0" encoding="utf-8"?>
<!-- Generator: Adobe Illustrator 26.0.0, SVG Export Plug-In . SVG Version: 6.00 Build 0)  -->
<svg version="1.1" id="Calque_1" xmlns="http://www.w3.org/2000/svg" xmlns:xlink="http://www.w3.org/1999/xlink" x="0px" y="0px"
	 viewBox="0 0 976.8 465.2" style="enable-background:new 0 0 976.8 465.2;" xml:space="preserve">
<style type="text/css">
	.st0{fill:#363845;}
	.st1{fill:#324F77;}
	.st2{fill:#4998AA;}
	.st3{fill:#ED8026;}
	.st4{fill:#122529;}
	.st5{fill:#3D7886;}
	.st6{fill:#7EA0AA;}
	.st7{fill:#F8F9FA;}
</style>
<path class="st0" d="M516.7,233.7c-14.9-1.8-29.1,1.9-43.3,5.2c-1.7,0.6-3.5,1-5.3,1.2c-17,0.5-25.1,12.9-33.6,24.9
	c-1.7,2.4-2.6,7-6.3,5.7c-3.3-1.2-2.5-5.6-2-8.5c1.4-9.9,5.3-19.2,6.2-29.2c0.4-4.3,5.9-7.1,11.3-5.6c9.9,2.7,18-0.1,25.5-6.2
	c8.7-7.1,18.8-8.8,29.6-7.9c4.4,0.6,8.7-1.5,11.1-5.3c5.6-8.2,10.9-16.7,16.6-24.9c1.2-1.9,0.5-2.5-0.9-3.5
	c-1.7-1.1-3.2-2.2-5.2-3.6c7.3-5.7,11.8-13,14.3-21.8c2.2-7.8,8.8-12.8,13.5-19c6.3-8.4,6.4-8.3,0.1-16.6
	c-5.7-7.5-11.5-15.1-17.2-22.7c-4-5.3-3.9-8.8-0.1-14c10.2-13.6,24.4-22.5,37.7-32.5c3.1-2.4,7.3-2.5,11.1-2
	c3.4,0.5,4.1-1.8,5.6-3.8c1.7-2.4-0.3-3.2-1.4-4.5c-7.3-8.5-8.2-19.5-2.2-26.9c5.9-7.2,20.6-10,29-5.5c3,1.7,5.7,4.1,5.9,7.6
	c0.9,11.1,3.1,22.1-0.2,33.2c-1.3,4.4-3.2,6.6-7.9,6.3c-1.4-0.1-3.8-1.1-4,1.5c-0.2,2.2-1.7,5.1,1,6.4c7.7,3.7,7.8,10.8,8.5,17.8
	c0.2,1.6-0.9,3.9,2,4.3c0.7,6,1.4,12,2,18.1c0.2,2.2,0.4,4.6,3.1,3.6c4.2-1.6,9.5-1.6,12.2-6.3c2.3,1.2,3-0.9,4.2-2
	c3-2.9,2.5-7.3,4.6-10.5c3.9-3.2,8-4.1,12.5-1c1.9,1.3,1.7,3.6,3.6,5c3.7,2.8,3.1,5.2-0.3,8.6c-2.8,2.8-6.9,2.2-9.8,4.4
	c-6.7,5-13.3,9.9-20,14.8c-4.9,1.1-9,4-13.5,6.1c-2.9,1.4-5.2,1.9-7.6-0.6c-2.2-2.2-3.2-1.3-4,1.3c-2.9,9.9-7.7,19.1-14,27.2
	c9.1,4.3,16.5,11.2,25,16.2c3.3,4.8,8.6,7.4,13,10.9c7.3,5.8,15.4,11,13.1,22.4c-0.2,0.8,0.6,1.9,0.9,2.8c-3.7,4.1-3.3,9-2.9,13.9
	c-2,6.6-2.1,13.4-2,20.2c-0.2,5.3-0.1,10.6-0.5,15.9c-0.5,6.3,2.7,10.4,7.4,13.7c3.8,2.7,8.2,4.4,12.4,6.2c2.6,1.1,5.2,2.2,7.7,3.5
	c1.4,0.7,3.2,1.7,2.7,3.7c-0.4,1.7-2.3,1.6-3.8,1.7c-2.7,0.2-5.3,0.2-8,0c-9.4-0.9-18.8-2-28.2-3c-4-0.4-5.6-2.2-5-6.2
	c1.8-11,1.8-21.8-2.8-32.2l-3.2-13.5c0.4-8.7-1.2-17.5,1.8-26.1c0.7-2-0.4-3.3-2.5-4.1c-3.9-1.4-7.8-1.1-11.7-0.9
	c-2.9-3.4-7.6-2.7-11-5c-2.3-1.5-4-1.2-4.1,2c-0.1,3-2,2.4-3.8,1.9c-5-1.5-10.1-2-15.2-2.8c-3.1-0.4-5.3,0.2-7.2,3
	c-3.3,4.8-7.7,8.7-11.8,12.8c-8.3,8-17.9,14.3-26.8,21.4C520,230.9,518.5,232.7,516.7,233.7z M562.7,79.4l-11.5,8.3
	c-1,0.7-2.7,1.2-2.1,2.9c2.2,6.1,4.2,12.3,9.6,17.2C561.1,98.2,563.8,89.4,562.7,79.4L562.7,79.4z"/>
<path class="st1" d="M640.8,204.7c-0.3-0.9-1.1-2-0.9-2.8c2.3-11.4-5.8-16.5-13.1-22.4c-4.4-3.5-9.7-6.1-13-10.9
	c1.9-6.2,3.5-12.5,7.6-17.6c4.6-5.8,9.5-11.5,13.8-17.5c1.4-2,1.6-3.2,0-5.1c-2.6-3.2-4.9-6.6-7.4-9.9c6.7-4.9,13.3-9.9,20-14.8
	c2.9-2.2,7-1.6,9.8-4.4c3.4-3.4,4-5.8,0.3-8.6c-1.9-1.5-1.7-3.7-3.6-5c-4.6-3.1-8.6-2.2-12.5,1c-1.7,1.3-3.5,2.4-5.4,3.5
	c-4.1,2-5.4,4.9-3.4,9.1c-2.7,4.7-7.9,4.7-12.2,6.3c-2.7,1-2.9-1.5-3.1-3.6c-0.5-6-1.3-12.1-2-18.1c2.8-5.1,7.3-8.5,11.6-12
	c7.3-6,15-11.5,22.6-17.2c3.4-2.5,7.7-3.5,11.8-2.9c3.7,0.4,4.8-2,6.3-4.4c1.8-2.8-1.1-3.4-2.2-4.6c-10.7-11.4-6.3-28.2,8.5-32.6
	c4.4-1.5,9.2-1.8,13.8-0.8c7.9,1.9,11.1,5.8,11.6,13.9c0.6,9.6,2,19.1-0.9,28.6c-0.8,4.7-3.5,6.8-8.3,6.1c-3.4-0.5-3.7,1.6-3.7,4.1
	s-0.1,4.8,3.6,4c0.7,3.5,5.1,5,5.1,8.9c-0.1,11.3,6.4,21.6,5.2,33.1c-0.1,1.1-0.2,2.3,1.7,2.3c6.3,0.2,18.4-8.5,20.3-14.7
	c1.8-5.8,4.8-7.6,10.8-6.9c3.2,0.4,4.7,3,6.6,5c4.2,4.2,3.6,9.5-1.8,11c-8.8,2.6-14.9,9.1-22.2,13.8c-8.1,5.2-16.2,11.3-26.6,11.4
	c-1.8-2-3.2-3.6-4.5,0.7c-1.4,4.8-3.6,9.4-5.4,14.1l0.1-0.1c-0.3,0.4-0.7,0.7-1,1c-1.7,2.8-3.1,5.8-5.1,8.4c-1.6,2-1.5,2.7,0.7,4
	c11.5,7.1,22.5,15.1,32.8,24c6,5,14.5,8.1,15.7,17.6c-1.3,11-2.9,22-3.8,33c-0.7,8.8-0.3,17.6-0.9,26.4c-0.4,6.2,3.1,9.9,7.4,13.2
	c4.9,3.8,10.9,5.7,16.5,8.2c1,0.5,2.2,0.9,3.2,1.4c1.6,0.8,3.7,1.7,3.4,3.8c-0.3,2.5-2.8,1.9-4.5,2c-12.4,0.8-24.4-2.3-36.7-3.1
	c-2.4-0.2-4.6-1.6-4-4.1c4.1-17.1-2.3-32.8-5.8-49c-2.1-9.6,0.2-18.8,2.6-28c-9.5-1.1-18.8-3.4-27.7-6.9c-1-0.4-1.6-0.2-1.8,0.9
	c-1,4.4-4,3.3-7,2.7c-2.7-0.6-5.3-1.9-8.3-1.2c-7.6-2.4-8-2.2-12.7,3.7C642.2,203.4,641.5,204,640.8,204.7z"/>
<path class="st2" d="M722.8,199.7c-1.2-9.5-9.7-12.6-15.7-17.6c-10.3-8.9-21.2-16.9-32.8-24c-2.2-1.3-2.2-2-0.7-4
	c2-2.5,3.5-5.6,5.1-8.4c1,0.3,0.7-0.6,1-1l-0.1,0.1c4.4-3.3,7-8.3,10.3-12.5c0.3-0.4-0.2-1.5-0.4-2.3c10.4-0.1,18.5-6.1,26.6-11.4
	c7.3-4.7,13.4-11.2,22.2-13.8c5.4-1.6,5.9-6.9,1.8-11c-1.9-1.9-3.4-4.6-6.6-5c-6-0.7-8.9,1.1-10.8,6.9c-2,6.2-14,14.8-20.3,14.7
	c-1.8-0.1-1.8-1.2-1.7-2.3c1.2-11.5-5.2-21.8-5.2-33.1c0-3.9-4.4-5.3-5.1-8.9c2.9-4.5,8.5-5.9,11.7-10.1c3.5-3.5,8.1-3.4,12.5-3.7
	c2.4-0.1,4.4,0,5.8-2.6c1.6-2.9-0.2-4.7-1.7-6.4c-3.7-4.1-5.6-9.6-5.2-15.2c0.5-7.4,3.8-12.9,10.8-16c5.2-2.3,11-3,16.6-2.1
	c7.5,1.1,11.2,5.5,11.9,13.1c0.9,9.9,2.1,19.8-0.8,29.7c-1.2,4.2-2.8,6.5-7.5,6.1c-1.3-0.1-3.5-0.9-3.8,1.2
	c-0.4,2.3-1.6,5.4,1.1,6.9c6.8,3.8,7.3,10.2,7.8,16.7c0.2,2.5,0.8,4.9,1.8,7.2c2.1,5.3,2.9,11,2.3,16.6c-0.3,3,0.9,4.1,3.7,3
	c8-3,16.6-5,19-15.4c1.2-5.3,5-7,9.6-6.1s9.8,6.8,9.8,10.9s-2.8,5.8-6,6.4c-5.2,1.1-9,4.2-12.9,7.3c-8.4,6.8-17.7,12.4-27.7,16.6
	c-2.3,1-4.5,1.1-6.4-1s-3.3-1.6-4.1,1.1c-2.7,8.9-6.8,17.4-12.2,25c-1.5,2.1-0.4,2.9,1.2,3.8c15.7,9.3,29.2,21.5,43.7,32.4
	c4.1,3.1,4.5,7.9,3.9,12.8c-2.5,18.1-3.9,36.4-4.1,54.7c-0.1,6.5,2.7,10.7,7.4,14.3c3.7,2.8,8.2,4.4,12.4,6.3c2.1,1,4.3,1.8,6.4,2.8
	s4.3,2.1,3.8,4.6c-0.4,2.1-3,1.6-4.8,1.6c-12.2,0.5-24.1-2.4-36.2-3.1c-2.7-0.2-4.1-2-3.8-4.8c0.2-1.8,0-3.7,0.4-5.5
	c1.9-8.4,0.9-16.6-1.7-24.6c-4.5-14.1-7.2-28.4-2.8-43.1c0.7-2.2,0-3.5-2.5-3.7c-8-0.7-15.7-3.1-23.1-6.1
	C724.4,196.6,723.5,197.6,722.8,199.7z"/>
<path class="st0" d="M876.1,311.9c3.4,7.8,1.5,14.9-3.1,21.6c-8.7,12.6-20.9,21.3-33.4,29.6c-11.4,7.4-23.3,14.1-35.6,20
	c-1.6,0.9-3.3,1.5-5.2,1.6c-20,0-40,0-60.1-0.7c10.1-3.8,20.2-7.5,30.2-11.6c22.2-9,44.1-18.4,64.1-31.8c6.1-4.1,11.9-8.6,16.4-14.4
	c7.6-9.8,6.2-19-4-26c-10.1-6.9-21.7-9.9-34.2-13.1c5.4-1.9,9.7,1.2,14,0.7c6.1,1.5,12.2,2.9,18.2,4.7
	C855.9,296.3,868.2,300.4,876.1,311.9z"/>
<path class="st2" d="M852.8,286.8l-4.7-2.4c19,1.9,37.5,7.3,54.6,15.8c16.4,8.2,30.2,19.3,39.9,35c8.3,13.5,12,28.3,12,44.2
	c0,3.9-1.1,5.5-5.4,5.4c-17.3-0.3-34.6-0.1-52.5-0.1c4.7-8.8,9.3-17,12.1-26.1c4.2-13.6,3.6-26.7-3.7-39.2c-0.4-2.8-2.4-4.7-4.1-6.7
	C888,298.3,871.6,290.3,852.8,286.8z"/>
<path class="st1" d="M903.6,320.9c7.1,24.6-4.3,43.7-18.5,62c-0.8,1.3-2.2,2-3.8,1.9c-19.9-0.1-39.9,0-60.2-0.8
	c2.4-1.5,4.8-3,7.2-4.5c16.6-10.5,33.1-21.2,45.2-37.2c6.1-8.1,10.7-17,5.9-27.7c-0.1-1.2-0.7-2.4-1.7-3.2l0,0
	c-0.5-2.1-2.1-3.4-3.4-4.8c-6-6.2-13.6-9.9-21.4-13.4c-7.5-3.3-15.7-4.6-23.2-7.6c7.8-0.8,15.3,1.6,22.9,2.8
	c1.4,0.4,2.8,0.8,4.2,1.2C876,294.9,893.9,301.7,903.6,320.9z"/>
<path class="st1" d="M516.7,233.7c1.9-1,3.3-2.9,5.7-2.8c9.3,2.5,18.5,3.3,26.5-3.4c9.6-8,20.6-11,32.9-10c5,0.4,8.6-1.7,11.2-5.9
	c3-4.7,6.3-9.4,9.4-14c3.9-0.2,7.8-0.5,11.7,0.9c2.1,0.8,3.2,2,2.5,4.1c-3,8.6-1.4,17.4-1.8,26.1c-1.5-0.1-2.5,0.9-3.4,1.8
	c-6.1,5.9-13.4,7.9-21.8,7.2c-7.5-0.6-14.8,1.1-21.9,3c-10.4,1.9-20.8,4.2-30.9,7.1c-1.6,0.4-3,1.4-4.1,2.6
	c-5.6,6.7-12,12.8-16.4,20.6c-0.5,0.9-1.1,1.7-1.7,2.4c-0.8,1-1.7,2.3-3.2,1.9c-1.5-0.4-2.1-2-2.3-3.5c-0.3-2.5-0.3-5,0.3-7.4
	c2-8.4,4.6-16.6,5.4-25.2C514.9,237.4,516,235.6,516.7,233.7z"/>
<path class="st2" d="M655.4,199c2.9-0.7,5.5,0.6,8.3,1.2c3,0.6,6,1.7,7-2.7c0.2-1,0.8-1.2,1.8-0.9c8.9,3.5,18.2,5.8,27.7,6.9
	c-2-0.2-3.8-0.4-5.3,1.5c-8.5,10.6-19.9,17.8-30,26.5c-8.8,7.5-18.7,7.1-28.9,7.3c-0.1-6.8,0-13.6,2-20.2c4.2-1,7.2-3.7,9.4-7.4
	C649.8,207,652.7,203,655.4,199z"/>
<path class="st2" d="M343.8,404.5c-25,0.1-50,0.2-75,0.2c-83,0-165.9,0-248.9,0c-5.9,0-11.8-0.1-18-2c3-3.3,7-1.6,10-3.2
	c23.1,0,46.2,0,69.4,0.2c5.5,0,11.2-1.4,16.5,1.6c1.1,0.4,2.3,0.3,3.3-0.4c1.9-1.6,4-1.3,6.1-1.3c7-0.1,14,0.2,21,0.1
	c37.1-0.3,74.2-0.2,111.3-0.1c13.5,0,26.9,0.1,40.4,0.2c-1.4,3.7-5.6,0.2-7.6,2.9c1.7,1.6,3.6,0.9,5.3,0.9c20.3,0.1,40.6,0,60.9,0.1
	C340.3,403.7,342.2,403.1,343.8,404.5z"/>
<path class="st3" d="M766.4,314.2c1-1.3,0.6-2.8,0.5-4.2c-0.2-2.5,1.4-2.7,3.1-2.9c2-0.2,3.2,0.6,3.2,2.8c-0.3,15,0.9,30-0.6,44.9
	c-1,10.3-7.8,16.3-18.2,17.3c-8.3,0.8-16.2,0-23.6-4.3c-1.7-1-3.8-1.5-2.5-4.4c1.4-3.1,3.4-2.6,5.5-1.1c4,2.8,8.5,3.6,13.2,4.1
	c13.8,1.4,21.2-6.5,19-21.5c-7.5,7.7-16.3,9.1-25.8,6.5c-4.7-1.3-8.8-4.2-11.5-8.3c-6.3-8.9-5.4-22.1,2.2-29.9
	C739.4,304.8,753.2,305.2,766.4,314.2z M731.4,329.1c0,10.8,7,17.8,17.8,17.8c10.3-0.1,17.5-7,17.6-17c0.1-9.8-7.3-17.2-17.3-17.2
	C738.9,312.5,731.4,319.4,731.4,329.1L731.4,329.1z"/>
<path class="st3" d="M448,353.7c-4.8,2.1-7.7,1-10-3c-2.5-4.3-6-8-8.6-12.2c-1.3-2.5-4-4.1-6.9-3.9c-4.8,0.1-9.6,0.3-14.5,0.2
	c-2.8-0.1-3.3,1.3-3.3,3.7c0.1,4.2-0.1,8.3,0.1,12.5c0.1,3-1.3,3.6-3.9,3.8c-3.1,0.3-3.1-1.5-3.1-3.7c0-18.5,0.1-36.9-0.1-55.4
	c0-3.5,1.1-4.4,4.5-4.2c8.1,0.4,16.3-0.2,24.4,0.4c15.7,1.1,24.4,14.9,19,29.6c-1.5,4.3-4.7,7.8-8.8,9.8c-3.7,1.8-2.7,3.7-0.9,6.2
	C440,342.7,443.8,348,448,353.7z M417.5,297.5c-3.2,0-6.3,0.1-9.5,0c-2.2,0-3.3,0.7-3.3,3.1c0.1,8.3,0,16.6,0,24.9
	c0,1.8,0.3,3.3,2.7,3.2c7.1-0.2,14.2,0.7,21.3-0.9c5.8-1.4,9.9-4.5,11.2-10.5c1.7-7.8-0.4-13.2-6-17
	C428.8,296.8,423,297.8,417.5,297.5z"/>
<path class="st4" d="M800.9,399.1h13.8c0.3,0.4,0.8,0.4,1.1,0.2c0.1-0.1,0.1-0.1,0.2-0.2h31.7h1.2c35.1,0,70.2,0,105.4,0
	c4.3,0,8.7,0.2,13,0.6c2.4,0.2,5,0.3,7,2.5c-3.8,2-7.7,2.4-11.7,2.4c-17.5,0.1-35,0.1-52.4,0.1c-48.1,0-96.2,0-144.3-0.1
	c-1.8,0-3.7-0.1-5.5-0.1c2.2-1.5,0.4-3.4,0.5-5l38.9-0.3L800.9,399.1z"/>
<path class="st3" d="M70.2,313.5c0-6.2,0.1-12.3,0-18.5c-0.1-2.6,0.9-3.4,3.4-3.6c3-0.2,3.3,1.3,3.3,3.6c-0.1,12.1,0,24.3-0.3,36.4
	c-0.3,9.8-4.4,18.2-13.9,21.7c-10,3.7-20.3,3.6-29.2-3.6c-4.9-3.9-7.8-9.8-8-16c-0.6-13-0.3-25.9-0.5-38.9c0-3,1.8-3,3.9-3.1
	c2.5-0.2,3.1,0.9,3.1,3.2c-0.1,11.3,0,22.6,0,33.9c0.1,20.5,17.3,24.1,30.1,17.5c5.5-2.8,7.5-8.3,7.8-14.1
	c0.4-6.1,0.1-12.3,0.1-18.5L70.2,313.5z"/>
<path class="st3" d="M249.8,333.2c-5.2,0-10.3,0.2-15.5-0.1c-4.1-0.2-4.4,1.6-3.3,4.8c3,9.3,16.6,14.2,25.9,9.2
	c1.3-0.7,2.6-1.5,3.8-2.4c2-1.8,3.1-0.8,4.5,0.8c1.8,2,0.3,2.9-0.9,4c-10.2,9.5-30.8,6.3-37.6-5.8c-6.3-11.2-3.7-25.1,6.1-32.3
	c8.1-5.9,16.8-5.8,25.4-1.4c7.9,4.1,10.5,11.5,11.3,19.8c0.3,2.9-1.4,3.3-3.7,3.3C260.5,333.2,255.1,333.2,249.8,333.2L249.8,333.2z
	 M246.2,327.9L246.2,327.9c4.3-0.1,8.6-0.2,12.9-0.1c3,0.1,4.2-0.5,3.3-3.9c-1.6-6.1-8.8-11.6-15.9-11.4
	c-8.2,0.2-15.2,5.7-16.4,12.5c-0.4,2.4,0.7,2.9,2.7,2.9C237.3,327.9,241.8,327.9,246.2,327.9L246.2,327.9z"/>
<path class="st2" d="M567.6,240.8c7.2-2,14.5-3.7,21.9-3c8.4,0.7,15.7-1.3,21.8-7.2c0.9-0.9,1.9-1.9,3.4-1.8l3.2,13.5
	c-8.6,2-17.1,4-25.7,5.9c-3.4,0.8-6.4,2.7-8.5,5.5c-5.3,6.3-10.9,12.5-15.2,19.6c-0.9,1.4-1.7,3.8-4,2.8c-1.9-0.8-2.2-2.8-2.4-4.6
	c-0.3-3.7,0.2-7.3,1.5-10.8C565.9,254.3,567.2,247.6,567.6,240.8z"/>
<path class="st3" d="M497.7,346.7c-7.2,8.9-15.5,9.8-24.5,7.1c-6.3-1.9-10.2-6.2-11.2-12.7c-1.7-10.4-0.6-20.9-0.9-31.4
	c-0.1-3.7,3-2.4,4.7-2.8c2.5-0.5,2,1.7,2,2.9c0.1,7.7,0.4,15.3,0,22.9c-0.9,16,13.8,19.3,23.3,13.7c5.2-3.1,6.5-8.1,6.7-13.5
	c0.3-7.3,0-14.6,0.1-22c0-1.9-0.6-4,2.8-3.9c2.8,0.1,3.8,1,3.8,3.7c-0.1,13.6-0.1,27.3,0,40.9c0,2-0.5,3.2-2.7,3.2
	c-2.1,0-3.7-0.3-3.7-2.9C498,350.7,497.9,349.4,497.7,346.7z"/>
<path class="st3" d="M590.1,314c6.5-6,13.7-8.6,22.1-6.7s13.7,7.2,14.2,15.7c0.6,9.6,0.2,19.3,0.4,28.9c0,2.2-1,2.9-3,3
	c-2.4,0.1-3.8-0.7-3.8-3.4c0-7.8,0-15.6-0.1-23.5c-0.1-9.9-4.5-14.8-13.2-15.1c-10.1-0.3-16.5,5.1-17,14.7c-0.3,7.6-0.2,15.3-0.1,23
	c0,2.4-0.2,4.2-3.4,4.3c-3.3,0.1-3.3-1.8-3.3-4.1c0-12.3-0.2-24.6,0-36.9c0-2.3-2-6.1,2.6-6.7C590.9,306.4,588.9,310.8,590.1,314z"
	/>
<path class="st3" d="M674.9,314c3-1.1,4.8-4.1,8-5.2c5.3-2,11.1-2.3,16.6-0.9c7,1.9,11.9,8.1,12.2,15.3c0.4,9.5,0.1,19,0.2,28.5
	c0,2.6-1.2,3.1-3.4,3s-3.3-0.8-3.3-3.2c0.1-7.3,0-14.6,0.1-22c0.2-14.9-8.4-18.5-20.9-15.8c-5.8,1.3-8.9,6-9.4,14.6
	c-0.5,7.5-0.3,15-0.2,22.5c0,2.5-0.1,4.1-3.3,4.1s-3.5-1.7-3.5-4.1c0-13.2,0-26.3,0-39.5c0-2.6,0.1-4.5,3.6-4.3s2.9,2.3,2.8,4.5
	C674.3,312.3,673.8,313.1,674.9,314z"/>
<path class="st3" d="M102.2,314.3c8.6-7.8,17.5-9.6,27.3-5.3c6.1,2.7,8.7,8,9.4,14.3c1,9.3,0.2,18.6,0.5,27.9
	c0.1,2.6-1.1,3.4-3.6,3.5s-3.1-1.2-3.1-3.4c0-8.3,0.1-16.6-0.3-24.9c-0.5-8.9-4.3-12.7-12.3-13.3c-9-0.7-15.4,3.4-17.2,11.4
	c-1.9,8.4-0.4,16.9-0.9,25.3c-0.1,1.5,0.6,3.3-0.8,4.2c-1.3,0.7-2.9,0.9-4.3,0.6c-1.4-0.2-1.1-1.9-1.1-3
	c-0.1-13.8-0.1-27.6-0.1-41.4c0-2.3,0.8-3.2,3.2-3.3s3.3,0.9,3,3.3C101.8,311.6,101.9,313,102.2,314.3z"/>
<path class="st3" d="M522,330.5c0-6.7,0-13.3,0-20c0-2,0.2-3.6,2.9-3.5c2.4,0.1,3.9,0.5,3.4,3.4c-0.2,1-0.5,2.5,0.9,3
	s1.9-1.1,2.7-1.8c7.2-5.7,18.7-6.5,26.2-1.5c5.1,3.3,7.4,8.5,7.6,14.4c0.2,8.7,0,17.3,0.2,26c0.1,3-0.8,4.3-3.9,4.3
	c-3.6,0-2.4-2.7-2.5-4.3c-0.3-8-0.2-16-0.4-24c-0.1-5.8-2.1-10.7-7.9-12.6c-6.3-2.1-12.5-1.6-17.8,3.1c-3.6,3.2-4.5,7.7-4.6,12.3
	c-0.2,6.5,0,13-0.2,19.5c-0.1,2.4,1.6,6.2-3.4,6.1c-4.6-0.1-3.1-3.6-3.1-5.9c-0.2-6.2,0-12.3,0-18.5H522z"/>
<path class="st0" d="M760.7,399.5c-0.1,1.7,1.8,3.5-0.5,5c-28.8,0.1-57.6,0.1-86.4,0.2c-41.8,0-83.6,0-125.5,0c-1.5,0-3-0.1-4.5-0.2
	c1.6-1.4,3.5-0.8,5.2-0.8c15.3-0.1,30.5,0.2,45.8-0.2c4.4-0.1,9.1-0.9,12.9-3.7c30.1-0.1,60.2-0.1,90.2-0.2c2,0,4,0.4,5.9-0.5h7.6
	c2.4,0.8,5,0.8,7.3,0L760.7,399.5z"/>
<path class="st5" d="M343.8,404.5c-1.6-1.4-3.5-0.8-5.2-0.8c-20.3,0-40.6,0-60.9-0.1c-1.7,0-3.6,0.7-5.3-0.9c2-2.6,6.2,0.9,7.6-2.9
	c43.5-0.1,87-0.1,130.4-0.2c17.2,0,34.3,0.1,51.5,0.1c-2.8,2.4-6.3,3.8-9.9,3.9c-7,0.3-14.1-1-21.1,0.8L343.8,404.5z"/>
<path class="st3" d="M333,306.9c4.2,0,8.3,0.9,12.2,2.4c1.9,0.8,3.9,1,2.7,4s-2.9,2.4-5.2,1.5c-5.3-2.2-10.8-3.1-16.5-1.5
	c-3.3,0.9-5.8,2.9-6.3,6.2c-0.6,3.8,2.1,5.8,5.4,6.7c4.8,1.3,9.7,2.3,14.5,3.5c7.1,1.9,9.5,4.9,10.2,10.3c1.2,9-3.3,12.2-12.7,14.5
	c-7.8,1.9-15.5-0.2-22.8-3.4c-1.5-0.7-3.1-1.5-2.1-3.8s2.2-3.3,4.7-2c5,2.6,10.6,3.9,16.2,3.7c2,0,4-0.5,5.8-1.3
	c2.9-1.3,5.2-3.3,4.7-6.8c-0.4-3.2-2.7-4.8-5.6-5.5c-5.4-1.3-10.8-2.5-16.1-3.9c-5-1.3-7.9-4.6-8.5-9.8s1.4-9.1,5.7-11.8
	C323.2,307.4,327.8,306.8,333,306.9z"/>
<path class="st6" d="M461.9,399.8c-17.2,0-34.3-0.1-51.5-0.1c-43.5,0-87,0-130.4,0.2c-13.5,0-26.9-0.2-40.4-0.2
	c-37.1,0-74.2-0.2-111.3,0.1c-7,0-14-0.2-21-0.1c-2.1,0-4.2-0.3-6.1,1.3c-1,0.7-2.2,0.8-3.3,0.4c-5.3-3-11-1.6-16.5-1.6
	c-23.1-0.2-46.2-0.1-69.4-0.2c3-1.2,6.2-0.8,9.4-0.8c143.1-0.1,286.2-0.1,429.3-0.1c82.7,0,165.3,0,247.9-0.1c1.8,0,3.7-0.4,5.4,0.5
	c-1.9,0.9-3.9,0.5-5.9,0.5c-30.1,0.1-60.1,0.2-90.2,0.2L461.9,399.8z"/>
<path class="st1" d="M461.9,399.8h145.9c-3.8,2.8-8.5,3.6-12.9,3.7c-15.2,0.4-30.5,0.1-45.8,0.2c-1.8,0-3.7-0.6-5.2,0.8
	c-7,0.1-13.9,0.2-20.9,0.2c-30.7,0-61.4-0.1-92.1-0.2c7-1.8,14.1-0.5,21.1-0.8C455.6,403.6,459.1,402.2,461.9,399.8z"/>
<path class="st3" d="M196.7,346l14.2-31.8c0.9-2,1.8-3.9,2.8-5.8c1.2-2.2,3.3-1.5,4.9-1c2.4,0.7,0.8,2.5,0.3,3.7
	c-5.8,13.4-11.8,26.7-17.7,40.1c-1,2.3-2.4,3.7-5.2,3.8c-3,0.1-4-1.8-4.9-3.9c-5.8-13.1-11.6-26.1-17.2-39.2
	c-0.6-1.4-2.7-3.5-0.1-4.5c2.2-0.9,4.7-0.8,6.1,2.4c4.6,10.8,9.5,21.6,14.2,32.3C194.7,343.4,194.8,345,196.7,346z"/>
<path class="st3" d="M289.1,313.9c4.3-3.7,8.5-6.5,14-6.7c1.7-0.1,3.4-1,3.5,1.8c0,2,0.4,4.1-2.6,4.4c-2.1,0.2-4.2,0.2-6.3,1.2
	c-6.7,3.2-8.4,9.1-8.6,15.7c-0.2,6.8-0.1,13.6-0.2,20.5c0,2.2,0.1,4.4-3.3,4.3c-3.2-0.1-3.3-1.9-3.3-4.3c0.1-13,0-26,0-39
	c0-2.1-0.6-4.8,2.6-5c3.4-0.2,4,2.1,3.7,4.9C288.7,312.4,288.9,313.1,289.1,313.9z"/>
<path class="st3" d="M650.6,331c0,6.7-0.1,13.3,0,20c0,2.3-0.1,3.9-3,3.9c-2.8,0-3.8-1-3.8-3.8c0.1-13.5,0.2-26.9,0-40.4
	c-0.1-3.5,1.9-3.7,4.3-3.9c3-0.3,2.6,2,2.6,3.7C650.7,317.4,650.6,324.2,650.6,331L650.6,331z"/>
<path class="st3" d="M162.9,330.8c0,6.6,0,13.3,0,19.9c0,2.1,0,3.9-3,4s-3.3-1.7-3.3-3.7c-0.1-13.6-0.1-27.2-0.2-40.8
	c0-2.6,1.6-2.8,3.6-2.9c2.2,0,2.8,1,2.8,3.1C162.9,317.2,162.9,324,162.9,330.8z"/>
<path class="st7" d="M829.9,285.7c7.6,3,15.7,4.3,23.2,7.6c7.8,3.5,15.3,7.2,21.4,13.4c1.4,1.4,3,2.7,3.4,4.8l-1.9,0.4
	c-7.9-11.5-20.2-15.6-32.7-19.3c-6-1.8-12.1-3.1-18.2-4.7C826.9,287.4,826.9,283.4,829.9,285.7z"/>
<path class="st7" d="M903.6,320.9c-9.7-19.1-27.6-25.9-46.7-31.1c-1.4-0.4-2.8-0.8-4.2-1.2v-1.7c18.9,3.5,35.3,11.5,48.2,26
	c1.7,2,3.7,3.9,4.1,6.7L903.6,320.9z"/>
<path class="st3" d="M370.6,327.5c3,0,6,0,9,0c1.5,0,3.1,0,3,2.3c-0.1,1.7-0.7,3-2.5,3c-6.3,0.1-12.6,0-18.9,0c-2,0-2.3-1.3-2.4-3
	s0.8-2.4,2.4-2.4L370.6,327.5L370.6,327.5z"/>
<path class="st7" d="M702.2,55.9c-3.2,4.1-8.8,5.6-11.7,10.1c-3.6,0.9-3.6-1.4-3.6-4s0.3-4.6,3.7-4.1c4.8,0.7,7.5-1.4,8.3-6.1
	C700.3,52.9,699.3,56,702.2,55.9z"/>
<path class="st3" d="M647.1,287.7c3.3,0.1,4.8,2,4.8,4.7c0.2,2.3-1.5,4.3-3.8,4.5c-0.2,0-0.3,0-0.5,0c-2.8,0-4.9-1.5-4.9-4.4
	S644.5,288,647.1,287.7z"/>
<path class="st3" d="M159.4,287.7c3.5,0.1,4.9,2.1,4.9,4.9s-1.8,4.2-4.4,4.3c-2.3,0.3-4.5-1.4-4.7-3.7c0-0.3,0-0.5,0-0.8
	C155.1,289.5,157,288,159.4,287.7z"/>
<path class="st6" d="M719,399.1c-2.4,0.8-5,0.8-7.3,0C714,398.3,716.6,398.3,719,399.1z"/>
<path class="st7" d="M877.9,311.5c1,0.8,1.6,1.9,1.7,3.2C878.3,314.1,877.6,312.8,877.9,311.5z"/>
<path class="st6" d="M800.9,399.1h-1.3C800,398.5,800.5,398.5,800.9,399.1z"/>
<path class="st6" d="M816,399.1c-0.3,0.4-0.8,0.4-1.1,0.2c-0.1-0.1-0.1-0.1-0.2-0.2c0.3-0.4,0.8-0.4,1.1-0.2
	C815.8,399,815.9,399,816,399.1z"/>
<path class="st6" d="M848.9,399.1h-1.2C848,398.5,848.5,398.5,848.9,399.1z"/>
<path class="st7" d="M562.6,79.4c1.2,10-1.5,18.8-4,28.4c-5.4-4.9-7.4-11.1-9.6-17.2c-0.6-1.6,1.1-2.1,2.1-2.9L562.6,79.4z"/>
<path class="st7" d="M679.8,144.6c-0.3,0.4,0,1.4-1,1C679.1,145.3,679.5,145,679.8,144.6z"/>
</svg>
