<?xml version="1.0" encoding="utf-8"?>
<!-- Generator: Adobe Illustrator 26.0.0, SVG Export Plug-In . SVG Version: 6.00 Build 0)  -->
<svg version="1.1" id="Layer_1" xmlns="http://www.w3.org/2000/svg" xmlns:xlink="http://www.w3.org/1999/xlink" x="0px" y="0px"
	 viewBox="0 0 600 450" style="enable-background:new 0 0 600 450;" xml:space="preserve">
<style type="text/css">
	.st0{fill:#5C76B2;}
	.st1{clip-path:url(#SVGID_00000165202430898064210490000002430660540412049053_);}
	.st2{filter:url(#Adobe_OpacityMaskFilter);}
	.st3{clip-path:url(#SVGID_00000062173438667290596240000000826016041016934807_);}
	.st4{clip-path:url(#SVGID_00000011734201205933784760000009645703767057012100_);}
	
		.st5{clip-path:url(#SVGID_00000097498824911698863740000005581548213206702756_);fill:url(#SVGID_00000162312750396571536990000005685239961157029248_);}
	
		.st6{clip-path:url(#SVGID_00000062173438667290596240000000826016041016934807_);mask:url(#SVGID_00000008845334393141216830000015938697366969537675_);fill:url(#SVGID_00000006697175032208297180000003440197191866272150_);}
	.st7{opacity:0.82;fill:url(#SVGID_00000033361720214434858740000004396131205072369322_);enable-background:new    ;}
	.st8{fill:#7087A1;}
	.st9{opacity:0.28;fill:#FBB4D9;enable-background:new    ;}
	.st10{opacity:0.48;fill:#FFD674;enable-background:new    ;}
	.st11{opacity:0.78;}
	.st12{fill:#5E778F;}
	.st13{fill:none;}
	.st14{fill:#CFBCB9;}
	.st15{fill:#E9C195;}
	.st16{fill:#A99C7F;}
	.st17{fill:#CBA882;}
	.st18{opacity:0.52;}
	.st19{opacity:0.74;}
	.st20{fill:#BDA887;}
	.st21{opacity:0.92;}
	.st22{fill:#7D7C85;}
	.st23{opacity:0.52;fill:#CBA882;enable-background:new    ;}
	.st24{fill:#3B3735;}
	.st25{fill:#FFD674;}
	.st26{opacity:0.5;}
	.st27{fill:#597786;}
	.st28{fill:#8B8498;}
	.st29{fill:#666980;}
	.st30{fill:#AAA2B9;}
	.st31{fill:#D9C8DA;}
	.st32{opacity:0.46;}
	.st33{fill:#4D4D4D;}
	.st34{fill:#544B53;}
	.st35{fill:#FCE6BD;}
	.st36{clip-path:url(#SVGID_00000090264500301067860400000002484365272863565484_);}
	.st37{filter:url(#Adobe_OpacityMaskFilter_00000140697680959394149460000015553242469454298016_);}
	.st38{clip-path:url(#SVGID_00000057859581894904221660000004976208193493748100_);}
	.st39{clip-path:url(#SVGID_00000018937253296151731180000010503619653876142212_);}
	
		.st40{clip-path:url(#SVGID_00000031920764873116730950000005811914700454104480_);fill:url(#SVGID_00000153674541899020282590000001957796552748601995_);}
	
		.st41{clip-path:url(#SVGID_00000057859581894904221660000004976208193493748100_);mask:url(#SVGID_00000137846312978364728540000018288361090280752058_);fill:url(#SVGID_00000170247397578525251760000018299458953785030551_);}
	.st42{opacity:0.35;fill:url(#SVGID_00000020383304223286072790000017198930953922306700_);}
	.st43{clip-path:url(#SVGID_00000129163924642705649040000001852539384800907136_);}
	.st44{filter:url(#Adobe_OpacityMaskFilter_00000093143420168403532410000007604042926405823637_);}
	.st45{clip-path:url(#SVGID_00000078752603345926429870000014944383379746266536_);}
	.st46{clip-path:url(#SVGID_00000072260544988443149420000007854004435391544234_);}
	
		.st47{clip-path:url(#SVGID_00000112607895406263999540000006072083776488498065_);fill:url(#SVGID_00000183964585502146463250000005623562832703325345_);}
	
		.st48{clip-path:url(#SVGID_00000078752603345926429870000014944383379746266536_);mask:url(#SVGID_00000081614559781708866010000009996402890772954013_);fill:url(#SVGID_00000027590631287838964180000013297628952792135320_);}
	.st49{fill:url(#SVGID_00000005970456783063521890000007169665270804419468_);}
	.st50{fill:#FFFAEB;}
	.st51{opacity:0.32;fill:#94A6CF;enable-background:new    ;}
	.st52{opacity:0.32;fill:#748DC1;enable-background:new    ;}
	.st53{opacity:0.35;}
	.st54{fill:#94A6CF;}
	.st55{opacity:0.81;}
	.st56{fill:#FDDEDE;}
	.st57{opacity:0.59;fill:#2F464F;enable-background:new    ;}
	.st58{fill:#D3C3CB;}
	.st59{fill:#D9D9D9;}
	.st60{fill:#F3A514;}
	.st61{fill:#8B6E64;}
	.st62{fill:#5A5E8E;}
	.st63{fill:#CFAC98;}
	.st64{opacity:0.52;fill:#1E1E1E;enable-background:new    ;}
	.st65{opacity:0.4;fill:#282828;enable-background:new    ;}
	.st66{opacity:0.36;}
	.st67{fill:#383838;}
	.st68{fill:#FEE1C0;}
</style>
<g>
	<path class="st0" d="M367.5,260.5c-1-6.5-0.5-12.5-3.5-18.5c-3-6.5-5.5-14.5-11-19c-3-2.5-6.5-3.5-9-6.5c-2-2.5-2.5-6.5-5-9
		c-5.2-4.3-16-2.2-17.8-9.4c1.2-0.3,2.5-0.8,3.7-1.2c4.2-1.5,8.2-3.6,12.3-5.8C224.8,191.4,112.4,192.9,0,193v79.1l324.2,51.7
		c7-5.1,14.3-9,23.3-11.8c7-2,12.5-2.5,18.5-7c5-4,12.5-7,17-11C393.5,285,370,272,367.5,260.5z M160.4,296.8c-2,0,1.7-1.1,2.6-1.2
		C165,295.6,161.3,296.8,160.4,296.8z"/>
	<g>
		<g>
			<defs>
				<polygon id="SVGID_1_" points="1,1 2,1 1,2 				"/>
			</defs>
			<defs>
				<polygon id="SVGID_00000078739683622422965830000003865441648092528302_" points="-1,-1 -2,-1 -1,-2 				"/>
			</defs>
			<clipPath id="SVGID_00000138543652195696189290000016352423057839771044_">
				<use xlink:href="#SVGID_1_"  style="overflow:visible;"/>
			</clipPath>
			
				<clipPath id="SVGID_00000033348647307287049800000011968203643953315731_" style="clip-path:url(#SVGID_00000138543652195696189290000016352423057839771044_);">
				<use xlink:href="#SVGID_00000078739683622422965830000003865441648092528302_"  style="overflow:visible;"/>
			</clipPath>
			<defs>
				<filter id="Adobe_OpacityMaskFilter" filterUnits="userSpaceOnUse" x="159.5" y="191.7" width="75.9" height="117.7">
					<feColorMatrix  type="matrix" values="1 0 0 0 0  0 1 0 0 0  0 0 1 0 0  0 0 0 1 0"/>
				</filter>
			</defs>
			
				<mask maskUnits="userSpaceOnUse" x="159.5" y="191.7" width="75.9" height="117.7" id="SVGID_00000068639820359705758900000008613552129064223907_">
				<g class="st2">
					<g>
						<defs>
							<polygon id="SVGID_00000067953918504418666170000000679894625306038190_" points="1,1 2,1 1,2 							"/>
						</defs>
						<defs>
							<polygon id="SVGID_00000099628867771731317280000006747481244583742861_" points="-1,-1 -2,-1 -1,-2 							"/>
						</defs>
						
							<clipPath id="SVGID_00000012460804190018372500000005898784755079282073_" style="clip-path:url(#SVGID_00000033348647307287049800000011968203643953315731_);">
							<use xlink:href="#SVGID_00000067953918504418666170000000679894625306038190_"  style="overflow:visible;"/>
						</clipPath>
						
							<clipPath id="SVGID_00000106855920065410376390000009940662759209174449_" style="clip-path:url(#SVGID_00000012460804190018372500000005898784755079282073_);">
							<use xlink:href="#SVGID_00000099628867771731317280000006747481244583742861_"  style="overflow:visible;"/>
						</clipPath>
						
							<linearGradient id="SVGID_00000090982791306414240800000005007588305194718893_" gradientUnits="userSpaceOnUse" x1="197.4973" y1="140.5198" x2="197.4973" y2="258.1699" gradientTransform="matrix(1 0 0 -1 0 449.8898)">
							<stop  offset="0" style="stop-color:#000000"/>
							<stop  offset="7.380247e-03" style="stop-color:#090909"/>
							<stop  offset="4.770000e-02" style="stop-color:#373737"/>
							<stop  offset="9.310000e-02" style="stop-color:#626262"/>
							<stop  offset="0.1419" style="stop-color:#888888"/>
							<stop  offset="0.195" style="stop-color:#A8A8A8"/>
							<stop  offset="0.2537" style="stop-color:#C4C4C4"/>
							<stop  offset="0.32" style="stop-color:#DADADA"/>
							<stop  offset="0.3974" style="stop-color:#EBEBEB"/>
							<stop  offset="0.4931" style="stop-color:#F6F6F6"/>
							<stop  offset="0.6274" style="stop-color:#FDFDFD"/>
							<stop  offset="1" style="stop-color:#FFFFFF"/>
						</linearGradient>
						
							<path style="clip-path:url(#SVGID_00000106855920065410376390000009940662759209174449_);fill:url(#SVGID_00000090982791306414240800000005007588305194718893_);" d="
							M231,308.5c0,0.3,0.1,0.5,0.1,0.9l-53-8.5c-2.1-1.9-6.7-3.7-9.1-7.4c3-3,8-3,11-6c-18.5-9.5,10.5-15-1-21.5
							c-2.5-1.5-16.5,4.5-17-0.5c-1-5,16.5-6,19-8c-4.5-1-13-8.5-14-13c-1.5-6,8-8,11-13.5c-8-4-10-6-11.5-15
							c-2.5-12,2-2.5,10.5-8.5c8.5-6.5-5-6.5-9.5-8c-7.8-2.2-9.2-4.5-7.1-7.3c21.5-0.2,42.9-0.3,64.4-0.5c-0.5,3,5.6,4,8.2,8.3
							c-4,2.5-16.5,1.5-12,9c1.5,4,4.5,2,7.5,3.5c2.5,1.5,3.5,4.5,7,6c-5,4-5.5,3.5-4.5,9.5c0.5,6.5,2,6-0.5,12.5
							c-0.5,1.5,1.5,3.5,1,5c-1,2.5-5.5,1.5-6,4.5c-0.5,5,6,8,8.5,11.5c-12.5,7.5-4.5,13.5,0.5,22.5c-9.5,6-1,9.5,0,15
							C235.5,304,231.5,303,231,308.5z"/>
					</g>
				</g>
			</mask>
			
				<linearGradient id="SVGID_00000066507645234293880090000016883565615659209351_" gradientUnits="userSpaceOnUse" x1="197.4973" y1="140.5198" x2="197.4973" y2="258.1699" gradientTransform="matrix(1 0 0 -1 0 449.8898)">
				<stop  offset="0" style="stop-color:#000000"/>
				<stop  offset="7.380247e-03" style="stop-color:#090909"/>
				<stop  offset="4.770000e-02" style="stop-color:#373737"/>
				<stop  offset="9.310000e-02" style="stop-color:#626262"/>
				<stop  offset="0.1419" style="stop-color:#888888"/>
				<stop  offset="0.195" style="stop-color:#A8A8A8"/>
				<stop  offset="0.2537" style="stop-color:#C4C4C4"/>
				<stop  offset="0.32" style="stop-color:#DADADA"/>
				<stop  offset="0.3974" style="stop-color:#EBEBEB"/>
				<stop  offset="0.4931" style="stop-color:#F6F6F6"/>
				<stop  offset="0.6274" style="stop-color:#FDFDFD"/>
				<stop  offset="1" style="stop-color:#FFFFFF"/>
			</linearGradient>
			
				<path style="clip-path:url(#SVGID_00000033348647307287049800000011968203643953315731_);mask:url(#SVGID_00000068639820359705758900000008613552129064223907_);fill:url(#SVGID_00000066507645234293880090000016883565615659209351_);" d="
				M231,308.5c0,0.3,0.1,0.5,0.1,0.9l-53-8.5c-2.1-1.9-6.7-3.7-9.1-7.4c3-3,8-3,11-6c-18.5-9.5,10.5-15-1-21.5
				c-2.5-1.5-16.5,4.5-17-0.5c-1-5,16.5-6,19-8c-4.5-1-13-8.5-14-13c-1.5-6,8-8,11-13.5c-8-4-10-6-11.5-15c-2.5-12,2-2.5,10.5-8.5
				c8.5-6.5-5-6.5-9.5-8c-7.8-2.2-9.2-4.5-7.1-7.3c21.5-0.2,42.9-0.3,64.4-0.5c-0.5,3,5.6,4,8.2,8.3c-4,2.5-16.5,1.5-12,9
				c1.5,4,4.5,2,7.5,3.5c2.5,1.5,3.5,4.5,7,6c-5,4-5.5,3.5-4.5,9.5c0.5,6.5,2,6-0.5,12.5c-0.5,1.5,1.5,3.5,1,5c-1,2.5-5.5,1.5-6,4.5
				c-0.5,5,6,8,8.5,11.5c-12.5,7.5-4.5,13.5,0.5,22.5c-9.5,6-1,9.5,0,15C235.5,304,231.5,303,231,308.5z"/>
		</g>
	</g>
	
		<linearGradient id="SVGID_00000158743319661875082100000005616901452206138004_" gradientUnits="userSpaceOnUse" x1="197.4973" y1="140.5198" x2="197.4973" y2="258.1699" gradientTransform="matrix(1 0 0 -1 0 449.8898)">
		<stop  offset="0" style="stop-color:#A3B6D7"/>
		<stop  offset="1.140000e-02" style="stop-color:#A8B9D6"/>
		<stop  offset="0.2166" style="stop-color:#C3C7D0"/>
		<stop  offset="0.2846" style="stop-color:#D9D3CB"/>
		<stop  offset="0.3412" style="stop-color:#EADDC7"/>
		<stop  offset="0.4319" style="stop-color:#F5E3C5"/>
		<stop  offset="0.5417" style="stop-color:#FCE7C3"/>
		<stop  offset="1" style="stop-color:#FEE8C3"/>
	</linearGradient>
	<path style="opacity:0.82;fill:url(#SVGID_00000158743319661875082100000005616901452206138004_);enable-background:new    ;" d="
		M231,308.5c0,0.3,0.1,0.5,0.1,0.9l-53-8.5c-2.1-1.9-6.7-3.7-9.1-7.4c3-3,8-3,11-6c-18.5-9.5,10.5-15-1-21.5
		c-2.5-1.5-16.5,4.5-17-0.5c-1-5,16.5-6,19-8c-4.5-1-13-8.5-14-13c-1.5-6,8-8,11-13.5c-8-4-10-6-11.5-15c-2.5-12,2-2.5,10.5-8.5
		c8.5-6.5-5-6.5-9.5-8c-7.8-2.2-9.2-4.5-7.1-7.3c21.5-0.2,42.9-0.3,64.4-0.5c-0.5,3,5.6,4,8.2,8.3c-4,2.5-16.5,1.5-12,9
		c1.5,4,4.5,2,7.5,3.5c2.5,1.5,3.5,4.5,7,6c-5,4-5.5,3.5-4.5,9.5c0.5,6.5,2,6-0.5,12.5c-0.5,1.5,1.5,3.5,1,5c-1,2.5-5.5,1.5-6,4.5
		c-0.5,5,6,8,8.5,11.5c-12.5,7.5-4.5,13.5,0.5,22.5c-9.5,6-1,9.5,0,15C235.5,304,231.5,303,231,308.5z"/>
</g>
<g>
	<path class="st8" d="M600.7,139.8v231.3l-244.4-39c0.2,0,0.5-0.1,0.7-0.1c12-2.7,14-11.3,24-17.3c7.3-4.7,16-7.3,23.3-11.3
		c30-18.7-4.7-17.3-16.7-29.3c-8-8.7-10.7-32-18-43.3c-4-5.3-8.7-7.3-14-10.7c-5.3-4-6.7-7.3-10.7-11.3c-6.7-6.7-10.7-4-19.3-8
		c0-0.2-0.1-0.3-0.1-0.4c4.2-1.5,8.2-3.6,12.3-5.8c8-4.4,15.8-9.6,23.8-13.1c11.2-5.1,21.3-2,31.7,2.4c2.9-2,5.9-4.2,9-6.4
		c14.7-12,34-14,49.3-25.3c10.7-8,34.7-22,47.3-19.3c6,1.3,16.7,9.3,22,13.3c10.7,8,10,7.3,24,5.3c7.4-1.2,14.3,1.1,21.3,4
		C578.2,150.9,589.6,145.2,600.7,139.8z"/>
	<path class="st9" d="M512.6,357l-156.3-24.9c0.2,0,0.5-0.1,0.7-0.1c12-2.7,14-11.3,24-17.3c7.3-4.7,16-7.3,23.3-11.3
		c1.4-0.9,2.6-1.7,3.7-2.4c-2,4-7.2,9.8-8,11c-6.5,12,8,13,17.5,15c29,6.5,57.5,14,85.5,25.5C505.8,353.5,509.1,355.2,512.6,357z"/>
	<path class="st10" d="M380.3,179.3c-3.4,6.2-19.9,8.4-25.4,11.5c-5,2.8-8.6,10.1-12.9,15.2c-5-3.4-9-2.1-16.2-5.4
		c0-0.2-0.1-0.3-0.1-0.4c4.2-1.5,8.2-3.6,12.3-5.8c8-4.4,15.8-9.6,23.8-13.1C368.2,178.4,374.3,178.1,380.3,179.3z"/>
	<g class="st11">
		<path class="st12" d="M568.5,247.8c-27-4.5-45.5,19-73,7.5c-17-7-29-12.5-48-12.5c-9,0-38.5,3.5-34-13c2.5-9.5,23-9.5,30.5-16
			c10.5-9.5,12-26,23.5-34.5c10-8,24.5-4,36-9.5c13-6.3,3.9-19,12.3-27.7c2,1.4,3.8,2.8,5.2,3.8c8.9,6.6,9.9,7.3,18,6.2
			c1.6,2,2.5,4.5,4.5,7.7c4.5,6,8.5,4.5,14.5,7c16,6,3.5,20.5,0.5,32c-4.5,18,19,27,29,38.5C602.5,254.8,577.5,248.8,568.5,247.8z"
			/>
	</g>
	<path class="st13" d="M404.4,303.3c-7.3,4-16,6.7-23.3,11.3c-10,6-12,14.7-24,17.3c-0.2,0-0.5,0.1-0.7,0.1l-31.4-5
		c7-5.1,14.3-9,23.3-11.8c7-2,12.5-2.5,18.5-7c5-4,12.5-7,17-11c10.5-9-13-22-15.5-33.5c-1-6.5-0.5-12.5-3.5-18.5
		c-3-6.5-5.5-14.5-11-19c-3-2.5-6.5-3.5-9-6.5c-2-2.5-2.5-6.5-5-9c-5.2-4.3-16-2.2-17.8-9.4c1.2-0.3,2.5-0.8,3.7-1.2
		c0,0.1,0.1,0.3,0.1,0.4c8.7,4,12.7,1.3,19.3,8c4,4,5.3,7.3,10.7,11.3c5.3,3.3,10,5.3,14,10.7c7.3,11.3,10,34.7,18,43.3
		C399.7,286,434.4,284.6,404.4,303.3z"/>
	<path class="st14" d="M404.4,303.3c-7.3,4-16,6.7-23.3,11.3c-10,6-12,14.7-24,17.3c-0.2,0-0.5,0.1-0.7,0.1l-31.4-5
		c7-5.1,14.3-9,23.3-11.8c7-2,12.5-2.5,18.5-7c5-4,12.5-7,17-11c10.5-9-13-22-15.5-33.5c-1-6.5-0.5-12.5-3.5-18.5
		c-3-6.5-5.5-14.5-11-19c-3-2.5-6.5-3.5-9-6.5c-2-2.5-2.5-6.5-5-9c-5.2-4.3-16-2.2-17.8-9.4c1.2-0.3,2.5-0.8,3.7-1.2
		c0,0.1,0.1,0.3,0.1,0.4c8.7,4,12.7,1.3,19.3,8c4,4,5.3,7.3,10.7,11.3c5.3,3.3,10,5.3,14,10.7c7.3,11.3,10,34.7,18,43.3
		C399.7,286,434.4,284.6,404.4,303.3z"/>
	<g>
		<path class="st15" d="M448.4,290c0,4.5-1.2,8.4-3.1,11.9h0c-5,0.3-10.1,0.5-14.7-0.2c2.1-1.8,3.1-4.1,1.8-8
			c-0.6-1.6-1.9-4.5-3.4-7.4c6.4-0.2,12.7-0.7,19.1-1.5C448.3,286.5,448.4,288.2,448.4,290z"/>
		<path class="st16" d="M443.1,305.1c-2.4,3.3-5.4,6.3-8.4,9.1c-7.6-0.4-15.3-0.6-23-0.8c3.5-3.6,7.1-6.2,12-8.2
			c1.6-0.7,3.1-1.4,4.4-2.1C433.1,303.9,438,304.7,443.1,305.1z"/>
		<path class="st17" d="M550.4,308.1c-1,2.2-2.2,4.2-3.7,6.2c-2.2,3-6.4,7-9.9,11.2c-3.4-0.8-6.8-1.5-10.4-1.9c-9-1-18,0-26.7-0.3
			c-0.1,0-0.3,0-0.4,0c4.2-2.8,8.3-6,10.4-10c1.1-2.1,2-4.1,2.8-6.3c3.5,0.3,7,0.6,10.5,0.9C532,308.7,541.3,307.8,550.4,308.1z"/>
		<g class="st18">
			<path class="st17" d="M581.6,313c-3.2,4.3-8,8.3-11.9,11.4c-1.6,1.2-3.3,2.1-4.7,3.1c-5.6-1.2-13.3,1.4-19.3,0.2
				c-1.3-0.3-2.5-0.5-3.8-0.9c5-5.2,9.9-11.5,12.8-18.4c1.7,0.1,3.3,0.3,5,0.6C567.1,310.2,574.2,312.2,581.6,313z"/>
		</g>
		<path class="st15" d="M474.5,305c-3.1,4.8-7.4,8.9-12.3,11.9c0,0,0,0,0,0c-7.7-1.2-15.5-1.9-23.2-2.4c3.4-2.6,6.7-5.6,9.2-9.1h0
			c8.4,0.2,16.8-0.1,25.2-0.4C473.8,305,474.1,305,474.5,305z"/>
		<path class="st15" d="M506.3,306.5c-3,6.3-6.6,12.3-11.8,16.4c-8.6-0.9-17.2-3.3-25.9-5c-0.5-0.1-0.9-0.2-1.4-0.3
			c4.2-3.2,9-8.3,10.4-10.1c0.6-0.8,1.1-1.7,1.5-2.7C488.3,305.1,497.4,305.8,506.3,306.5z"/>
		<path class="st15" d="M541.9,271c-9.2,0-18.5,0-27.7,0.4c-2.8-5.3-6.3-8.8-10.7-13.4c5.8-1.4,11.5-3,17.5-3c2.5,0,5.1,0.2,7.8,0.4
			c2.1,2.4,4.6,4.3,6.9,6.6C538.8,264.8,540.2,267.8,541.9,271z"/>
		<g class="st19">
			<path class="st17" d="M508.6,271.7c-0.1,0-0.2,0-0.3,0c-8.8,0.7-17.6,2.1-26.3,3.7c-2.3-6.1-8.2-9.2-11.7-14.3
				c6.4-0.9,12.8-1,19.3-1c2.8,0,5.5-0.3,8.2-0.8C501.1,263.9,505.5,267,508.6,271.7z"/>
		</g>
		<path class="st15" d="M476.8,276.3c-8.7,1.6-17.4,3.3-26,4.6c-1.7-5.5-4.4-11-8.1-14.1c6.8-1.4,13.5-2.6,20.3-4.4
			c0.6-0.1,1.2-0.3,1.9-0.4C466.9,266.7,474.3,272,476.8,276.3z"/>
		<path class="st20" d="M447.4,281.4c-6.7,0.9-13.4,1.6-20.1,1.8c-1.4-2.3-2.7-4.3-3.6-4.9c-2.3-1.4-6.7-2.1-10.5-2.8
			c3.2-0.8,6.7-1.2,9.8-2.5c4.7-2.3,8.7-4,14-5c0.3-0.1,0.6-0.1,1-0.2c2.7,3.6,6.6,5.5,8.4,10.5
			C446.8,279.4,447.1,280.4,447.4,281.4z"/>
		<g class="st21">
			<path class="st22" d="M566.7,308.7c-3.8-0.4-7.6-1.1-11.3-1.8c2-5.3,2.8-10.8,1.7-16.5c-1.3-6.7-5.2-11-8.5-16.1
				c11-0.5,22.1-0.8,33.3-0.9c-0.7-1.5-1.5-2.9-2.3-4.2c-1.8,0-3.6-0.2-5.2-0.2c-9.3,0-18,2-27.3,2h-0.3c-0.1-0.2-0.2-0.4-0.3-0.7
				c-3.5-6.7-5.2-10.8-10.3-14.6c-2.4,0-4.8-0.1-7.2-0.3c2.1,2.4,4.6,4.3,6.9,6.6c3,2.8,4.5,5.8,6.2,9c-9.2,0-18.5,0-27.7,0.4
				c-2.8-5.3-6.3-8.8-10.7-13.4c-1.9,0.4-3.7,0.9-5.6,1.2c3.2,4.7,7.5,7.8,10.7,12.5c-0.1,0-0.2,0-0.3,0c-8.8,0.7-17.6,2.1-26.3,3.7
				c-2.3-6.1-8.2-9.2-11.7-14.3c-1.8,0.2-3.6,0.5-5.5,0.9c2,4.7,9.4,10.1,11.9,14.3c-8.7,1.6-17.4,3.3-26,4.6
				c-1.7-5.5-4.4-11-8.1-14.1c-1.6,0.3-3.1,0.7-4.7,1c2.7,3.6,6.6,5.5,8.4,10.5c0.4,1,0.8,2.1,1,3.1c-6.7,0.9-13.4,1.6-20.1,1.8
				c0.5,1,1.1,2,1.7,3c6.4-0.2,12.7-0.7,19.1-1.5c0.2,1.7,0.3,3.4,0.3,5.2c0,4.5-1.2,8.4-3.1,11.9h0c-5,0.3-10.1,0.5-14.7-0.2
				c-0.7,0.6-1.5,1.1-2.5,1.6c5,0.6,9.9,1.4,15,1.9c-2.4,3.3-5.4,6.3-8.4,9.1c1.4,0.1,2.9,0.1,4.3,0.2c3.4-2.6,6.7-5.6,9.2-9.1h0
				c8.4,0.2,16.8-0.1,25.2-0.4c0.4,0,0.8,0,1.1,0c-3.1,4.8-7.4,8.9-12.3,11.9c1.7,0.3,3.4,0.5,5.1,0.9h0c4.2-3.2,9-8.3,10.4-10.1
				c0.6-0.8,1.1-1.7,1.5-2.7c9.1,0.1,18.1,0.8,27.1,1.6c-3,6.3-6.6,12.3-11.8,16.4c1.6,0.2,3.2,0.3,4.7,0.4c4.2-2.8,8.3-6,10.4-10
				c1.1-2.1,2-4.1,2.8-6.3c3.5,0.3,7,0.6,10.5,0.9c8.9,0.7,18.2-0.2,27.3,0.1c-1,2.2-2.2,4.2-3.7,6.2c-2.2,3-6.4,7-9.9,11.2
				c1.7,0.4,3.5,0.8,5.2,1.2c5-5.2,9.9-11.5,12.8-18.4c1.7,0.1,3.3,0.3,5,0.6c7.3,1.2,14.5,3.2,21.9,4c0.7-0.9,1.2-1.8,1.8-2.6
				c0.2-0.3,0.4-0.7,0.5-1C578.1,308.9,572.5,309.2,566.7,308.7z M479.7,292.3c-0.6,3.6-2,7.1-3.8,10.4c-6.7-0.4-13.4-0.7-20.2-1
				c-1.6-0.1-3.4-0.1-5.2-0.1c1.4-2.8,2.2-5.9,2.2-9.3c0-2.3-0.4-5-1-8c9-1.2,18-2.9,26.6-4.7C479.8,283.6,480.5,288.1,479.7,292.3z
				 M511.7,294.3c-1.6,3.6-3.1,7.3-4.8,10.9c-2.5-0.1-5.1-0.2-7.6-0.6c-6.5-0.7-12.9-1.3-19.2-1.7c1.5-3.9,2.5-8.5,2.9-12
				c0.5-3.3,0.6-8.3-0.1-12.3c1-0.2,2.1-0.5,3.1-0.7c8.1-1.8,16.4-2.5,24.6-2.7C513.8,282,514.8,287.4,511.7,294.3z M537.7,304.3
				c-8.1-0.2-16.3,0.7-24.5,0.9c1.4-3.8,2.5-7.7,3.8-11.6c3-7,2-10.3-0.7-17.3c-0.1-0.4-0.3-0.8-0.5-1.2c8.3-0.1,16.7,0,25.1-0.5
				c1-0.1,1.9-0.1,2.9-0.2c3.6,6.1,8.5,12.1,9.1,19.2c0.4,4.4-0.3,8.5-1.8,12.4C546.8,305.2,542.3,304.5,537.7,304.3z"/>
		</g>
		<path class="st17" d="M583.9,309.3c-5.8-0.4-11.4-0.2-17.2-0.7c-3.8-0.4-7.6-1.1-11.3-1.8c2-5.3,2.8-10.8,1.7-16.5
			c-1.3-6.7-5.2-11-8.5-16.1c11-0.5,22.1-0.8,33.3-0.9c2.2,4.6,3.8,9.6,4.2,14C586.7,295,587.3,302.3,583.9,309.3z"/>
		<path class="st23" d="M579.5,269.2c-1.8,0-3.6-0.2-5.2-0.2c-9.3,0-18,2-27.3,2h-0.3c-0.1-0.2-0.2-0.4-0.3-0.7
			c-3.5-6.7-5.2-10.8-10.3-14.6c1.8,0,3.6-0.1,5.3-0.4c3.1-0.5,6-2,9-3.5c8.8,3.5,21.8,8,26.7,13.8
			C577.9,266.7,578.8,267.9,579.5,269.2z"/>
		<path class="st15" d="M551.2,306c-4.4-0.8-8.9-1.5-13.5-1.7c-8.1-0.2-16.3,0.7-24.5,0.9c1.4-3.8,2.5-7.7,3.8-11.6
			c3-7,2-10.3-0.7-17.3c-0.1-0.4-0.3-0.8-0.5-1.2c8.3-0.1,16.7,0,25.1-0.5c1-0.1,1.9-0.1,2.9-0.2c3.6,6.1,8.5,12.1,9.1,19.2
			C553.4,298,552.7,302.2,551.2,306z"/>
		<path class="st17" d="M511.7,294.3c-1.6,3.6-3.1,7.3-4.8,10.9c-2.5-0.1-5.1-0.2-7.6-0.6c-6.5-0.7-12.9-1.3-19.2-1.7
			c1.5-3.9,2.5-8.5,2.9-12c0.5-3.3,0.6-8.3-0.1-12.3c1-0.2,2.1-0.5,3.1-0.7c8.1-1.8,16.4-2.5,24.6-2.7
			C513.8,282,514.8,287.4,511.7,294.3z"/>
		<path class="st15" d="M479.7,292.3c-0.6,3.6-2,7.1-3.8,10.4c-6.7-0.4-13.4-0.7-20.2-1c-1.6-0.1-3.4-0.1-5.2-0.1
			c1.4-2.8,2.2-5.9,2.2-9.3c0-2.3-0.4-5-1-8c9-1.2,18-2.9,26.6-4.7C479.8,283.6,480.5,288.1,479.7,292.3z"/>
	</g>
	<rect x="448.5" y="238.6" class="st24" width="14.6" height="34.1"/>
	<rect x="476" y="242.3" class="st24" width="14.6" height="25"/>
	<rect x="487.5" y="252.8" class="st24" width="11.3" height="17.2"/>
	<rect x="565.4" y="249.1" class="st24" width="14.6" height="34.1"/>
	<rect x="515.4" y="299.5" class="st24" width="17.8" height="19.6"/>
	<rect x="456.8" y="269" class="st24" width="10.6" height="20.8"/>
	<rect x="454.8" y="228.9" class="st24" width="2" height="9.8"/>
	<rect x="571.7" y="239.4" class="st24" width="1.8" height="9.8"/>
	<g class="st19">
		<path class="st25" d="M508.4,137.1c-2.4,3.9-12,2.7-17.2,3.4c-10.3,1-18,7-25.3,14c-7.3,7-15.7,9.7-25,13.7
			c-8.3,3.3-14,10.7-22.3,14c-4.9,2.2-18.4,5.3-25,1.5c2.9-2,5.8-4.1,8.8-6.3c14.7-12,34-14,49.3-25.3c10.7-8,34.7-22,47.3-19.3
			C501.6,133.2,505,134.9,508.4,137.1z"/>
	</g>
	<g class="st26">
		<path class="st25" d="M600.7,139.8v11.3c-14.3,5.9-29.6,10.1-33.1,3.7C579,150.5,590,145,600.7,139.8z"/>
	</g>
</g>
<g>
	<polygon class="st27" points="600,367.8 600,450 0,450 0,272.1 324.2,323.8 355.6,328.8 	"/>
	<path class="st28" d="M490.6,346.8c-0.1,1.7-0.8,3.5-2.1,5.4c-6.4,9.4-42.8,1.2-47.7-9.8c-0.1-0.3-0.2-0.6-0.3-0.9
		c-0.1-0.2-0.1-0.4-0.1-0.6c0,0,0-0.1,0-0.1c0-0.1,0-0.2,0-0.4c0-0.5,0-0.9,0.1-1.4c0.1-0.5,0.2-1,0.5-1.5c0.2-0.5,0.5-1,0.9-1.5
		c0,0,0.1-0.1,0.1-0.2c0.1-0.1,0.1-0.1,0.2-0.2c0,0,0,0,0-0.1c0.1-0.1,0.2-0.2,0.3-0.3c0,0,0.1-0.1,0.1-0.2l0.3-0.3
		c0,0,0.1-0.1,0.1-0.1c0.1-0.1,0.1-0.1,0.2-0.2c0,0,0,0,0.1-0.1c0.1-0.1,0.2-0.1,0.3-0.2c0.1-0.1,0.2-0.1,0.3-0.2c0,0,0,0,0,0
		c0.5-0.4,0.9-0.7,1.4-1c0.1,0,0.1-0.1,0.2-0.1c0.2-0.1,0.3-0.2,0.5-0.3c0.1-0.1,0.3-0.2,0.4-0.2c0.2-0.1,0.5-0.3,0.8-0.4h0
		c0.3-0.1,0.5-0.3,0.8-0.4c0.1,0,0.1-0.1,0.2-0.1c0.2-0.1,0.4-0.2,0.7-0.2c0.5-0.2,1-0.3,1.5-0.5c0.2-0.1,0.5-0.1,0.8-0.2
		c0.3-0.1,0.6-0.2,0.9-0.2c12.3-2.8,30,1.5,36.3,9.5c0.2,0.2,0.3,0.4,0.5,0.6c0.6,0.9,1.1,1.8,1.4,2.7c0.1,0.2,0.1,0.4,0.2,0.6
		c0,0.1,0.1,0.3,0.1,0.4C490.6,345,490.7,345.9,490.6,346.8z"/>
	<path class="st29" d="M90.8,290.2c-7,1.1-22.1-0.5-29.1-2.1c-8.4-1.7-10.6-4.9-9.4-8.1c0,0,0-0.1,0-0.1
		c3.8-12.3,20.7-11.7,29.9-8.5C90.3,274.5,104.8,287.5,90.8,290.2z"/>
	<path class="st30" d="M502.6,356.3c-3.7,0.3-18.1,6.6-19.7,0.8c-1.4-3.8,3.9-8.4,8.4-10.6c5.2-1.5,16-1.3,19.2,2.1
		C517.5,355.7,507.2,355.7,502.6,356.3z"/>
	<path class="st31" d="M600,380.3v13.3c-9.3-1.9-18.7-3.9-28-5c-45-5-92-8-136-17c-47-11-95-14-143-21c-25-4-49-11-73-15s-49-2-74-7
		c-24-4-48-7-73-11c-22.8-4.2-49.1-12-73-14.3v-20.5c6.9,1.7,13.6,4.6,20,5.8c12,1,24-1,35,2c23,5,45,13,68,17c42,5,83,15,125,17
		c22,1,42,7,62,11c22,5,45,5,66,9c41,9,82,18,123,22C530.5,369.3,569.2,371.2,600,380.3z"/>
	<g class="st32">
		<g>
			<path class="st33" d="M131.8,376.7c0.8,0,4.6-1.1,2.6-1.1C133.6,375.6,129.8,376.7,131.8,376.7L131.8,376.7z"/>
		</g>
		<g>
			<path class="st33" d="M170.9,366.2c0.9,0,1.9,0,2.8,0c1,0,2-0.2,2.9-0.5c0.7-0.3,0.6-0.5-0.2-0.5c-0.9,0-1.9,0-2.8,0
				c-1,0-2,0.2-2.9,0.5C170.1,365.9,170.2,366.2,170.9,366.2L170.9,366.2z"/>
		</g>
		<g>
			<path class="st33" d="M195.5,389.8c1.2,0,4.4-1.2,1.7-1.2C196.1,388.7,192.8,389.9,195.5,389.8L195.5,389.8z"/>
		</g>
		<g>
			<path class="st33" d="M213.9,392.7c1.8,0,4.2-1.8,1.5-1.8C213.6,390.9,211.2,392.7,213.9,392.7L213.9,392.7z"/>
		</g>
		<g>
			<path class="st33" d="M234.8,376.8c1.6,0,4.3-1.6,1.5-1.6C234.7,375.2,232,376.8,234.8,376.8L234.8,376.8z"/>
		</g>
		<g>
			<path class="st33" d="M272.4,409.1c0.8,0,4.6-1.1,2.6-1.1C274.2,408.1,270.5,409.2,272.4,409.1L272.4,409.1z"/>
		</g>
		<g>
			<path class="st33" d="M329.4,436.3c1.7,0,4.3-1.7,1.5-1.7C329.2,434.7,326.6,436.4,329.4,436.3L329.4,436.3z"/>
		</g>
		<g>
			<path class="st33" d="M352,371.7c0.9,0,4.6-1.2,2.6-1.2C353.7,370.5,350,371.7,352,371.7L352,371.7z"/>
		</g>
		<g>
			<path class="st33" d="M442,422.5c2.3,0,3.1-2,0.3-2C440,420.5,439.3,422.5,442,422.5L442,422.5z"/>
		</g>
		<g>
			<path class="st33" d="M319,382.3c1.5,0,4.3-1.5,1.6-1.5C319.1,380.8,316.2,382.3,319,382.3L319,382.3z"/>
		</g>
		<g>
			<path class="st33" d="M392,391.6c1.6,0,4.3-1.6,1.5-1.6C391.9,390.1,389.3,391.7,392,391.6L392,391.6z"/>
		</g>
		<g>
			<path class="st33" d="M427.6,383.3c2.4,0,3-2.1,0.3-2.1C425.5,381.2,424.9,383.3,427.6,383.3L427.6,383.3z"/>
		</g>
		<g>
			<path class="st33" d="M486,398c1.5,0,4.3-1.6,1.6-1.5C486.1,396.4,483.3,398,486,398L486,398z"/>
		</g>
		<g>
			<path class="st33" d="M495.9,403.2c1.2,0,4.4-1.2,1.7-1.2C496.4,402,493.1,403.2,495.9,403.2L495.9,403.2z"/>
		</g>
		<g>
			<path class="st33" d="M385.3,420.9c0.5,0,0.9,0,1.4,0c0.9,0,2.1-0.2,2.7-0.7c0.6-0.5-0.5-0.7-1.1-0.7c-0.5,0-0.9,0-1.4,0
				c-0.9,0-2.1,0.2-2.7,0.7C383.6,420.8,384.7,421,385.3,420.9L385.3,420.9z"/>
		</g>
		<g>
			<path class="st33" d="M345.8,399.5c1.6,0,4.3-1.6,1.5-1.6C345.7,397.9,343.1,399.5,345.8,399.5L345.8,399.5z"/>
		</g>
		<g>
			<path class="st33" d="M334.2,372.8c1.2,0,4.4-1.2,1.7-1.2C334.7,371.6,331.5,372.8,334.2,372.8L334.2,372.8z"/>
		</g>
		<g>
			<path class="st33" d="M286.4,356.1c1.6,0,4.3-1.6,1.5-1.6C286.4,354.5,283.7,356.1,286.4,356.1L286.4,356.1z"/>
		</g>
		<g>
			<path class="st33" d="M153.6,338.4c2.3,0,3.1-2,0.3-2C151.6,336.5,150.8,338.4,153.6,338.4L153.6,338.4z"/>
		</g>
		<g>
			<path class="st33" d="M524.9,435.3c2.2,0,3.2-1.9,0.4-1.8C523,433.5,522.2,435.3,524.9,435.3L524.9,435.3z"/>
		</g>
		<g>
			<path class="st33" d="M509.7,381.1c1.3,0,4.4-1.3,1.7-1.3C510.1,379.8,506.9,381.1,509.7,381.1L509.7,381.1z"/>
		</g>
		<g>
			<path class="st33" d="M546.2,385.3c1.2,0,4.4-1.3,1.7-1.3C546.6,384,543.5,385.3,546.2,385.3L546.2,385.3z"/>
		</g>
		<g>
			<path class="st33" d="M583,407.1c1.8,0,4.2-1.8,1.5-1.8C582.7,405.4,580.2,407.2,583,407.1L583,407.1z"/>
		</g>
		<g>
			<path class="st33" d="M498.2,428.3c2.3,0,3.1-2,0.3-2C496.2,426.4,495.5,428.3,498.2,428.3L498.2,428.3z"/>
		</g>
		<g>
			<path class="st33" d="M311.2,449.2c1.2,0,4.4-1.3,1.7-1.2C311.7,447.9,308.5,449.2,311.2,449.2L311.2,449.2z"/>
		</g>
		<g>
			<path class="st33" d="M177.8,426c1.5,0,4.3-1.6,1.6-1.5C177.8,424.4,175,426,177.8,426L177.8,426z"/>
		</g>
		<g>
			<path class="st33" d="M77.4,402.1c0.9,0,4.6-1.2,2.6-1.2C79.1,400.9,75.4,402.1,77.4,402.1L77.4,402.1z"/>
		</g>
		<g>
			<path class="st33" d="M72.6,374.1c2.3,0,3.1-1.9,0.4-1.9C70.7,372.2,69.8,374.1,72.6,374.1L72.6,374.1z"/>
		</g>
		<g>
			<path class="st33" d="M91.4,357.2c1.5,0,4.3-1.5,1.6-1.5C91.5,355.7,88.7,357.2,91.4,357.2L91.4,357.2z"/>
		</g>
		<g>
			<path class="st33" d="M222.6,346.4c0.8,0,4.6-1.1,2.6-1.1C224.5,345.3,220.7,346.4,222.6,346.4L222.6,346.4z"/>
		</g>
		<g>
			<path class="st33" d="M1.4,336c1.3,0,4.4-1.3,1.7-1.3C1.8,334.7-1.3,336,1.4,336L1.4,336z"/>
		</g>
		<g>
			<path class="st33" d="M189.1,306.6c1.4,0,4.4-1.4,1.6-1.4C189.3,305.2,186.3,306.6,189.1,306.6L189.1,306.6z"/>
		</g>
		<g>
			<path class="st33" d="M94,327c1.7,0,4.2-1.7,1.5-1.7C93.7,325.3,91.2,327,94,327L94,327z"/>
		</g>
		<g>
			<path class="st33" d="M64.4,326.3c1.4,0,4.3-1.5,1.6-1.5C64.6,324.8,61.7,326.3,64.4,326.3L64.4,326.3z"/>
		</g>
		<g>
			<path class="st33" d="M43,351.8c-0.5,0-0.9,0-1.4,0c-1,0-2,0.2-2.9,0.5c-0.6,0.3-0.5,0.6,0.2,0.6c0.5,0,0.9,0,1.4,0
				c1,0,2-0.2,2.9-0.5C43.9,352.1,43.8,351.8,43,351.8L43,351.8z"/>
		</g>
		<g>
			<path class="st33" d="M19.2,291.9c1.4,0,4.4-1.4,1.6-1.4C19.4,290.5,16.4,291.9,19.2,291.9L19.2,291.9z"/>
		</g>
		<g>
			<path class="st33" d="M275.8,329.4c0.9,0,4.6-1.1,2.6-1.1C277.5,328.2,273.8,329.4,275.8,329.4L275.8,329.4z"/>
		</g>
		<g>
			<path class="st33" d="M265.3,353.5c1.5,0,4.3-1.5,1.6-1.5C265.4,352,262.6,353.5,265.3,353.5L265.3,353.5z"/>
		</g>
		<g>
			<path class="st33" d="M245.1,346.2c0.9,0,4.6-1.2,2.6-1.1C246.8,345.1,243.1,346.2,245.1,346.2L245.1,346.2z"/>
		</g>
		<g>
			<path class="st33" d="M239,325.6c2.3,0,3.1-2,0.3-1.9C237,323.7,236.2,325.6,239,325.6L239,325.6z"/>
		</g>
		<g>
			<path class="st33" d="M165.1,337c0.9,0,4.6-1.2,2.6-1.2C166.8,335.8,163,337,165.1,337L165.1,337z"/>
		</g>
		<g>
			<path class="st33" d="M186,351.8c2.3,0,3.1-1.9,0.4-1.9C184.1,349.9,183.2,351.8,186,351.8L186,351.8z"/>
		</g>
		<g>
			<path class="st33" d="M140.1,320.9c1.6,0,4.3-1.6,1.6-1.5C140.2,319.4,137.4,321,140.1,320.9L140.1,320.9z"/>
		</g>
		<g>
			<path class="st33" d="M112,315.7c1.4,0,4.3-1.5,1.6-1.4C112.2,314.2,109.3,315.7,112,315.7L112,315.7z"/>
		</g>
		<g>
			<path class="st33" d="M62.8,301.6c1.6,0,4.3-1.6,1.5-1.6C62.8,300,60,301.6,62.8,301.6L62.8,301.6z"/>
		</g>
		<g>
			<path class="st33" d="M25,314.8c1.5,0,4.3-1.5,1.6-1.5C25.2,313.3,22.3,314.8,25,314.8L25,314.8z"/>
		</g>
		<g>
			<path class="st33" d="M336,345.7c2.4,0,3-2.1,0.3-2.1C333.9,343.7,333.3,345.8,336,345.7L336,345.7z"/>
		</g>
		<g>
			<path class="st33" d="M365,359.7c-0.2,0-0.4,0-0.2,0c0.3,0.1,0.4,0.4,0.4,0.6c0.1,0.8,4.2,0.2,4.1-0.8c-0.1-0.9-1.4-1.2-2.6-1.2
				c-0.9,0-2.1,0.2-2.7,0.7C363.3,359.6,364.4,359.7,365,359.7L365,359.7z"/>
		</g>
		<g>
			<path class="st33" d="M393.1,365c1.5,0,4.3-1.6,1.6-1.5C393.1,363.5,390.4,365,393.1,365L393.1,365z"/>
		</g>
		<g>
			<path class="st33" d="M431.6,362.1c0.5,0,0.9,0,1.4,0c0.9,0,2.1-0.5,2.2-1.1c0.1-0.7-1.1-0.9-1.9-0.9c-0.5,0-0.9,0-1.4,0
				c-0.9,0-2.1,0.5-2.2,1.1C429.6,361.9,430.8,362.1,431.6,362.1L431.6,362.1z"/>
		</g>
		<g>
			<path class="st33" d="M449.5,375.7c0,0.6,0,1.2,0,1.8c0,1.4,4.1,0.9,4.1-0.3c0-0.6,0-1.2,0-1.8
				C453.6,374.1,449.5,374.5,449.5,375.7L449.5,375.7z"/>
		</g>
		<g>
			<path class="st33" d="M494.4,388.7c1.5,0,4.3-1.6,1.6-1.5C494.4,387.2,491.6,388.7,494.4,388.7L494.4,388.7z"/>
		</g>
		<g>
			<path class="st33" d="M530.8,388.3c1.5,0,4.3-1.6,1.5-1.5C530.8,386.8,528.1,388.4,530.8,388.3L530.8,388.3z"/>
		</g>
		<g>
			<path class="st33" d="M586.2,389.8c2.3,0,3.1-1.9,0.3-1.9C584.2,387.9,583.4,389.8,586.2,389.8L586.2,389.8z"/>
		</g>
		<g>
			<path class="st33" d="M548.6,420.4c2.3,0,3.2-1.9,0.4-1.8C546.7,418.6,545.8,420.4,548.6,420.4L548.6,420.4z"/>
		</g>
		<g>
			<path class="st33" d="M566.5,449.3c1.4,0,4.4-1.4,1.6-1.4C566.8,447.9,563.8,449.3,566.5,449.3L566.5,449.3z"/>
		</g>
		<g>
			<path class="st33" d="M428.5,442.3c1.5,0,2.5,0.2,3.6,0.8c0.7,0.4,4.3-0.6,3.8-0.9c-1.4-0.8-3-1-4.8-0.9c-1,0-2,0.2-2.9,0.5
				C427.6,442.1,427.7,442.3,428.5,442.3L428.5,442.3z"/>
		</g>
		<g>
			<path class="st33" d="M346,414.2c1.6,0,4.3-1.7,1.5-1.6C345.9,412.5,343.2,414.2,346,414.2L346,414.2z"/>
		</g>
		<g>
			<path class="st33" d="M242.5,391.5c2.3,0,3.1-1.9,0.4-1.9C240.6,389.7,239.8,391.6,242.5,391.5L242.5,391.5z"/>
		</g>
		<g>
			<path class="st33" d="M267.7,387.7c1.6,0,3-0.1,4.2,0.6c1.4,0.8,4.9-0.5,3.1-1.6c-1.9-1.2-4.5-1.1-7-1.1c-0.9,0-2.1,0.5-2.2,1.1
				C265.7,387.5,266.9,387.7,267.7,387.7L267.7,387.7z"/>
		</g>
		<g>
			<path class="st33" d="M235.3,419.2c0,0,0,0.1,0,0.2c0,0.1,0,0.1,0,0c0,0-0.1,0.1-0.1,0.1c0.2-0.2,0.6-0.3,0.9-0.4
				c-0.9,0-2.1,0.4-2.2,1c-0.1,0.7,1.1,0.8,1.9,0.8c1.6-0.1,3.6-0.8,3.6-2C239.5,417.6,235.4,418.1,235.3,419.2L235.3,419.2z"/>
		</g>
		<g>
			<path class="st33" d="M142.4,401.6c1.6,0,4.3-1.6,1.5-1.6C142.4,400,139.7,401.6,142.4,401.6L142.4,401.6z"/>
		</g>
		<g>
			<path class="st33" d="M111.5,397.3c1.6,0,4.3-1.6,1.5-1.6C111.5,395.8,108.8,397.4,111.5,397.3L111.5,397.3z"/>
		</g>
		<g>
			<path class="st33" d="M105.6,363.5c3.5,0,6.2,0.8,8.7,2.4c1.2,0.7,5-0.4,3.7-1.1c-3.1-1.9-6.6-2.9-11-2.9c-0.9,0-2.2,0.2-2.7,0.8
				C103.9,363.2,104.8,363.5,105.6,363.5L105.6,363.5z"/>
		</g>
		<g>
			<path class="st33" d="M116,340.2c0.8,0,4.6-1.1,2.6-1.1C117.8,339.1,114,340.2,116,340.2L116,340.2z"/>
		</g>
		<g>
			<path class="st33" d="M26.4,347.8c3.9,0.8,7.7,0.9,11.7,0.8c1,0,2.2-0.2,2.7-0.8c0.5-0.5-0.4-1-1.2-0.9c-3.7,0-7.2,0-10.8-0.8
				C27.3,345.9,24,347.4,26.4,347.8L26.4,347.8z"/>
		</g>
		<g>
			<path class="st33" d="M392.9,395c0.8,0,4.6-1.1,2.6-1.1C394.7,394,390.9,395.1,392.9,395L392.9,395z"/>
		</g>
		<g>
			<path class="st33" d="M442.6,394.8c0.5,0,0.9,0,1.4,0c1,0,2.1-0.2,2.7-0.8c0.5-0.5-0.4-0.9-1.2-0.9c-0.5,0-0.9,0-1.4,0
				c-1,0-2.1,0.2-2.7,0.8C440.9,394.5,441.8,394.8,442.6,394.8L442.6,394.8z"/>
		</g>
		<g>
			<path class="st33" d="M504.3,406.8c1.2,0,4.4-1.2,1.7-1.2C504.8,405.6,501.6,406.8,504.3,406.8L504.3,406.8z"/>
		</g>
		<g>
			<path class="st33" d="M566.8,413.8c1.4,0,2.8,0,4.2,0c0.9,0,2.1-0.5,2.2-1.1c0.1-0.7-1.1-0.8-1.9-0.8c-1.4,0-2.8,0-4.2,0
				c-0.9,0-2.1,0.5-2.2,1.1C564.8,413.7,566,413.8,566.8,413.8L566.8,413.8z"/>
		</g>
		<g>
			<path class="st33" d="M493,390.6c1.7,0,4.3-1.7,1.5-1.7C492.9,389,490.3,390.6,493,390.6L493,390.6z"/>
		</g>
		<g>
			<path class="st33" d="M220.3,336.7c1.4,0,2.8,0,4.2,0c0.9,0,2.1-0.2,2.7-0.8c0.5-0.5-0.4-0.9-1.2-0.9c-1.4,0-2.8,0-4.2,0
				c-0.9,0-2.1,0.2-2.7,0.8C218.7,336.3,219.6,336.7,220.3,336.7L220.3,336.7z"/>
		</g>
		<g>
			<path class="st33" d="M220.2,328.5c1.8,0,4.2-1.9,1.4-1.8C219.9,326.7,217.5,328.5,220.2,328.5L220.2,328.5z"/>
		</g>
		<g>
			<path class="st33" d="M79.6,300.4c1.3,0,4.4-1.4,1.6-1.4C79.9,299,76.8,300.4,79.6,300.4L79.6,300.4z"/>
		</g>
		<g>
			<path class="st33" d="M29,288.2c0.8,0,1.5-0.1,1.6,0.5c0.1,0.9,4.2,0.3,4.1-0.8c-0.2-1.3-2.6-1.3-4.1-1.3c-0.9,0-2.1,0.2-2.7,0.8
				C27.3,287.9,28.3,288.2,29,288.2L29,288.2z"/>
		</g>
		<g>
			<path class="st33" d="M94.6,298.6c4.2,0.9,8.4,1.8,12.7,2.6c1.8,0.4,4.8-1.3,2.3-1.8c-4.2-0.9-8.4-1.8-12.7-2.6
				C95.2,296.4,92.2,298.1,94.6,298.6L94.6,298.6z"/>
		</g>
		<g>
			<path class="st33" d="M121.2,301.7c0.9,0,4.6-1.2,2.6-1.2C122.9,300.5,119.2,301.7,121.2,301.7L121.2,301.7z"/>
		</g>
		<g>
			<path class="st33" d="M142.9,307.2c1.7,0,4.2-1.8,1.5-1.7C142.6,305.5,140.1,307.3,142.9,307.2L142.9,307.2z"/>
		</g>
		<g>
			<path class="st33" d="M162,315c0.9,0,4.6-1.2,2.6-1.1C163.7,313.9,160,315,162,315L162,315z"/>
		</g>
		<g>
			<path class="st33" d="M160.4,296.7c-2,0,1.7-1.1,2.6-1.1C165,295.5,161.3,296.7,160.4,296.7z"/>
		</g>
	</g>
	<g>
		<path class="st34" d="M112.9,289.5c-0.2,0.2-0.4,0.4-0.6,0.5l0.8,0.1c0.5,1.5,0.7,3.2,1.1,4.6c-0.5-0.1-2.2-0.8-4.1-1.6
			c-3.5-1.3-7.7-2.7-6.6-0.2c-0.6-1-1.2-1.9-2.1-2.8c-1.2,1-2.2,2.5-3.8,3c-0.9-1.6-1.7-3.7-3.2-4.4c0.7-0.4,1.2-0.9,1.5-1.4
			c1.8-2.8-1.1-7-5.1-10.5c-1.3-1.1-2.6-2.1-4-3c1.4-3.4,2-7.1,1.7-10.8c1.4,2.1,2.3,4.9,3,7c0.4,1.3,0.5,2.4,0.5,3.5
			c3.8-9.6,9.1-19.6,17.3-25.2c-4.2,4.4-7.6,10.7-10,15.1c-1.5,2.9-3.7,6-4,9.4c3.7-4.9,12.8-9.6,17.2-10.9c-4.9,2.1-8.2,8-9.8,13.8
			c6.4-3.2,19.8-1.5,25-1.5c-4.7,0.3-11.4,2.8-16.6,6.2c5.4-0.4,11.6-0.8,15.6,1.8C122.7,284.1,116.8,286,112.9,289.5z"/>
		<path class="st34" d="M167.7,294.4c0.2-3.2,0.8-6.5,2.9-8.8c-2.4,0.9-5.1,2.4-6.7,4.3c-0.5-4.1-2.6-8-5.8-10.6
			c1.5,4.2,0.9,9.4-0.4,13.8c-1.6-2.6-4.9-4.5-8-5.3c3,2.2,6.2,5.7,6.4,9.2l14.5,2.3c0.4-2.5,1.7-5.4,3.8-6.7
			C172.2,292.8,169.4,293.4,167.7,294.4z M160.4,296.8c-2,0,1.7-1.1,2.6-1.1C165,295.6,161.3,296.8,160.4,296.8z"/>
		<path class="st34" d="M356,321.7c-2.5,2.1-6,3.5-8.2,5.9l-19.9-3.2l-3.2-0.5l-16.5-2.6l-17.3-2.8c-0.3-1-0.8-2-1.2-3
			c1.5-0.1,3.3,0.4,5,1.2c0.5-1.7,1.1-3.4,1.5-4.9c2.7,1.9,5.3,3.9,7.9,6c1.2-2.2,1.5-1.3,4.1-0.5c1.2,0.5,1.8,1.2,3.5,1.5
			c0.8,0,1.8-1.2,2.8-1c2.8,0.8,2.5,4,5.5,4c1.2,0.2,2.2-0.8,3.5-1.1c-0.5-1-1.2-2-1.9-3c2,0.5,4.1,1.5,5.7,2.7
			c-0.8-4.5-2.1-9.3-4.7-13.1c3.4,1.7,6.4,4.3,7.9,7.8c1.6-4.8,7.1-9.2,12.1-11.8c-3.9,4.1-6.1,9.5-6.7,15
			c4.5-4.8,12.7-4.5,19.7-3.5c-4.6,1.7-10.4,3.7-12,8.1C347.2,321.3,351.8,321.1,356,321.7z"/>
		<path class="st34" d="M452,330.3c-0.3,0.1-0.6,0.1-0.9,0.2c-0.3,0.1-0.5,0.1-0.8,0.2c-0.5,0.1-1,0.3-1.5,0.5
			c-0.2,0.1-0.4,0.2-0.7,0.2c-0.1,0-0.1,0-0.2,0.1c-0.3,0.1-0.6,0.2-0.8,0.4h0c-0.3,0.1-0.5,0.2-0.8,0.4c-0.1,0.1-0.3,0.2-0.4,0.2
			c-0.2,0.1-0.3,0.2-0.5,0.3c-0.1,0-0.1,0.1-0.2,0.1c-0.5,0.3-1,0.6-1.4,1v0c0,0,0,0,0,0c-0.1,0.1-0.2,0.1-0.3,0.2
			c-0.1,0.1-0.2,0.1-0.3,0.2v0c0,0,0,0-0.1,0.1c-0.1,0.1-0.2,0.1-0.2,0.2c0,0-0.1,0.1-0.1,0.1l-0.3,0.3c0,0.1-0.1,0.1-0.1,0.2
			c-0.1,0.1-0.2,0.2-0.3,0.3c0,0,0,0,0,0.1c-0.1,0.1-0.1,0.1-0.2,0.2c0,0.1-0.1,0.1-0.1,0.2c-0.4,0.5-0.7,1-0.9,1.5
			c-0.2,0.5-0.4,1-0.5,1.5c-0.1,0.5-0.1,0.9-0.1,1.4c0,0.1,0,0.2,0,0.4c0,0,0,0.1,0,0.1c0,0.2,0.1,0.4,0.1,0.6
			c0.1,0.3,0.2,0.6,0.3,0.9l-4-0.6l1.6,2.2l6.5,3.4c-2.3,1.7-2.5,4.8-2.7,7.3c-1.4-2.5-3.2-5.4-4.1-8.4c-2.3,1.3-5.4,3-5.8,5.4
			c-2-1.8-0.3-4.5-1.3-6.5c-0.7-1.3-2-1.2-3.2-2.2c1.3-1.7,3.8-2.7,6-3c-1.4-3.3-3.7-6.2-6.5-9c3,0.5,5.8,1.8,8.5,3.1
			c-0.5-3.7-2.6-7.6-5.5-10c3.1,2.4,6.2,4.9,9.3,7.5c0.9-5,1.9-9.5,3.3-14.6c-0.6,3.9-0.9,8.1,1,11.3c1.9-3.3,6.5-5.1,10-6
			C452.2,325.2,451.7,327.7,452,330.3z"/>
		<path class="st34" d="M515.1,343c-3.4,0-7.9,0.7-10.3,3.1c-4.5-0.8-10.1-0.6-13.5,0.4c-0.2,0.1-0.5,0.2-0.7,0.4
			c0.2-2.5-0.6-4.9-2.3-7c2-5,8.6-7.3,14.2-8.8c-2.6,1.4-5.4,3.5-7.2,5.9c4.3-1.7,10.7-1.6,14.8,0.1c-3.2,0.2-7.4,1.9-10,4.2
			C504.9,340.4,511,340.7,515.1,343z"/>
		<path class="st34" d="M406.9,337l-13.2-2.1l-24.9-4c0.7-3.2,2.5-6.4,5.2-8.4c-0.5,1.5-2,5.2-0.2,6.2c1.2,0.8,4.5-1.8,6-1.8
			c0.5,5.8,6.2,2,9.8,0c-0.2,1.8-1.2,3.8-1.2,5.8c2.5-2.5,6.2-5,9.8-5.2c-1,1.4-2.6,2.9-3.5,4.4c1.4-0.6,3.5-1.6,4.5-1.2
			c1.8,1,0.2,1.8,1.2,2.8s-0.2,1.2,1.2,2c0.2,0,2.8-1,3-1.2C405.1,335.4,406,336.4,406.9,337z"/>
		<path class="st34" d="M242.2,304.5c-2.2,0.5-4.5,1.4-5.8,3.1c-0.4,0.6-0.8,1.3-0.9,2.1l-40.9-6.5h0l-12.7-2
			c2-7.6,10.9-11.3,18.9-13.8c-4.9,3.2-10.5,7.8-9.3,12.2c2.3-4.3,10.2-5.4,17.4-5.4c-3.3,1.7-6.6,3.1-9.4,4.8
			c4.2-1.6,9.1-2.5,12.8-2c-1.1,1-2.3,1.9-3.2,3.1c2.1-0.3,4.3-0.2,6.2,0.1c-1,0.5-1,2-1.5,2.5c6,1.5,13.2-0.5,19.5,0.5
			c-1.5,1.5-4,1.2-5.8,2.8C232.5,305.2,237.2,304.5,242.2,304.5z"/>
		<path class="st34" d="M570,358.2c-1.7,1-3.7,2.3-4.4,4l-11.3-1.8l-18.2-2.9c-1-1.7-2-3.3-3.4-4.5c3.1,0.3,6.5,1.5,8.6,3.4
			c0-2.9,1-5.5,1-8.5c0.9,3.2,3,5.3,4.6,8.1c2.7-4.1,6.7-8.3,11.3-10.6c-3.2,3-6,6.4-6.3,10.8c1.9-2,4.8-3.4,7.6-3.7
			c-1.5,1-2.9,2.8-3.9,4.8c1.9-0.7,4-1.1,5.7-1.6c-1.2,1-1.8,2.2-2,3.5C562.8,359.8,566.5,357.5,570,358.2z"/>
		<path class="st34" d="M600,336v31.8l-9.8-1.6h0l-7.8-1.3c2.6-3.5,2.2-9.9,1.2-13.5c1.5,1.9,2.9,3.9,4,6.1c0-9.9-3-21.1-8.2-28.9
			c6.8,2.7,12,9.5,14.3,16.6c1.5-6.5,1.2-14-0.1-20.8C596.3,327.8,598.5,333,600,336z"/>
		<path class="st34" d="M62.4,270.4c-0.9,0.3-1.8,0.6-2.6,1c-3.4,1.6-6.2,4.3-7.5,8.4c0,0,0,0.1,0,0.1c-0.1,0.2-0.1,0.3-0.2,0.5
			l-15.8-2.5c-0.6-3.2-1.7-6.6-3.5-9.1c3.4,0.6,8.5,1.8,10,4.8c0.4-1.5,0.5-3.1,0-4.8c-0.5-1.7-2-4.8-3.7-7c4.9,0.2,6.4,3.2,8.5,7.2
			c1.9-5.3-0.4-11.2-0.9-16.7c2.4,3.4,5.7,7.3,7.6,11.5c1.7-5.7,0.3-12.8-1.1-19.1c3.3,6.1,5.4,13.4,6.2,20.3c1.5-3.1,5.2-5.3,8.2-7
			C63.9,260.7,62.1,265.9,62.4,270.4z"/>
	</g>
</g>
<g>
	<path class="st35" d="M600,0v136.5c-11.1,5.4-22.5,11.1-34.4,15.5c-7-2.9-13.9-5.2-21.3-4c-14,2-13.3,2.7-24-5.3
		c-5.3-4-16-12-22-13.3c-12.7-2.7-36.7,11.3-47.3,19.3C435.7,160,416.3,162,401.7,174c-3.1,2.3-6.1,4.4-9,6.4
		c-10.4-4.4-20.5-7.6-31.7-2.4c-8,3.4-15.9,8.6-23.8,13.1C224.8,191.4,112.4,192.9,0,193V0H600z"/>
	<g>
		<g>
			<defs>
				<polygon id="SVGID_00000061435875360896041610000009764202240496768434_" points="1,1 2,1 1,2 				"/>
			</defs>
			<defs>
				<polygon id="SVGID_00000095330281461620134480000005750724151435864999_" points="-1,-1 -2,-1 -1,-2 				"/>
			</defs>
			<clipPath id="SVGID_00000066488976354514624440000002335359958180044212_">
				<use xlink:href="#SVGID_00000061435875360896041610000009764202240496768434_"  style="overflow:visible;"/>
			</clipPath>
			
				<clipPath id="SVGID_00000057852613660503073980000013297140910997465479_" style="clip-path:url(#SVGID_00000066488976354514624440000002335359958180044212_);">
				<use xlink:href="#SVGID_00000095330281461620134480000005750724151435864999_"  style="overflow:visible;"/>
			</clipPath>
			<defs>
				
					<filter id="Adobe_OpacityMaskFilter_00000122706127279203981330000012060141226635243668_" filterUnits="userSpaceOnUse" x="136.1" y="69.2" width="116.7" height="116.7">
					<feColorMatrix  type="matrix" values="1 0 0 0 0  0 1 0 0 0  0 0 1 0 0  0 0 0 1 0"/>
				</filter>
			</defs>
			
				<mask maskUnits="userSpaceOnUse" x="136.1" y="69.2" width="116.7" height="116.7" id="SVGID_00000062912910933815832870000016382370376106684836_">
				<g style="filter:url(#Adobe_OpacityMaskFilter_00000122706127279203981330000012060141226635243668_);">
					<g>
						<defs>
							<polygon id="SVGID_00000154389216005651858860000002835734873810948999_" points="1,1 2,1 1,2 							"/>
						</defs>
						<defs>
							<polygon id="SVGID_00000165955375424743725650000013943904753055467444_" points="-1,-1 -2,-1 -1,-2 							"/>
						</defs>
						
							<clipPath id="SVGID_00000003806788389780217230000003663407795904454577_" style="clip-path:url(#SVGID_00000057852613660503073980000013297140910997465479_);">
							<use xlink:href="#SVGID_00000154389216005651858860000002835734873810948999_"  style="overflow:visible;"/>
						</clipPath>
						
							<clipPath id="SVGID_00000183935752617313731700000013181153265432248451_" style="clip-path:url(#SVGID_00000003806788389780217230000003663407795904454577_);">
							<use xlink:href="#SVGID_00000165955375424743725650000013943904753055467444_"  style="overflow:visible;"/>
						</clipPath>
						
							<radialGradient id="SVGID_00000025402131570782276820000010437745423909153972_" cx="194.48" cy="322.3598" r="58.33" gradientTransform="matrix(1 0 0 -1 0 449.8898)" gradientUnits="userSpaceOnUse">
							<stop  offset="0" style="stop-color:#FFFFFF"/>
							<stop  offset="0.1931" style="stop-color:#D3D3D3"/>
							<stop  offset="0.6266" style="stop-color:#646464"/>
							<stop  offset="1" style="stop-color:#000000"/>
						</radialGradient>
						
							<circle style="clip-path:url(#SVGID_00000183935752617313731700000013181153265432248451_);fill:url(#SVGID_00000025402131570782276820000010437745423909153972_);" cx="194.5" cy="127.5" r="58.3"/>
					</g>
				</g>
			</mask>
			
				<radialGradient id="SVGID_00000092453611304720685280000012664507765290432673_" cx="194.48" cy="322.3598" r="58.33" gradientTransform="matrix(1 0 0 -1 0 449.8898)" gradientUnits="userSpaceOnUse">
				<stop  offset="0" style="stop-color:#FFFFFF"/>
				<stop  offset="0.1931" style="stop-color:#D3D3D3"/>
				<stop  offset="0.6266" style="stop-color:#646464"/>
				<stop  offset="1" style="stop-color:#000000"/>
			</radialGradient>
			
				<circle style="clip-path:url(#SVGID_00000057852613660503073980000013297140910997465479_);mask:url(#SVGID_00000062912910933815832870000016382370376106684836_);fill:url(#SVGID_00000092453611304720685280000012664507765290432673_);" cx="194.5" cy="127.5" r="58.3"/>
		</g>
	</g>
	
		<radialGradient id="SVGID_00000137105580529338853270000016142971386519430292_" cx="194.48" cy="322.3598" r="58.33" gradientTransform="matrix(1 0 0 -1 0 449.8898)" gradientUnits="userSpaceOnUse">
		<stop  offset="0" style="stop-color:#FDDCED"/>
		<stop  offset="1" style="stop-color:#FEE6F2"/>
	</radialGradient>
	
		<circle style="opacity:0.35;fill:url(#SVGID_00000137105580529338853270000016142971386519430292_);" cx="194.5" cy="127.5" r="58.3"/>
	<g>
		<g>
			<defs>
				<polygon id="SVGID_00000180347019158522354170000014253181050663268742_" points="1,1 2,1 1,2 				"/>
			</defs>
			<defs>
				<polygon id="SVGID_00000111874071498602589620000011891624236720899461_" points="-1,-1 -2,-1 -1,-2 				"/>
			</defs>
			<clipPath id="SVGID_00000081638807290159486500000004817980437206190009_">
				<use xlink:href="#SVGID_00000180347019158522354170000014253181050663268742_"  style="overflow:visible;"/>
			</clipPath>
			
				<clipPath id="SVGID_00000021823898928796705340000006645399960651622027_" style="clip-path:url(#SVGID_00000081638807290159486500000004817980437206190009_);">
				<use xlink:href="#SVGID_00000111874071498602589620000011891624236720899461_"  style="overflow:visible;"/>
			</clipPath>
			<defs>
				
					<filter id="Adobe_OpacityMaskFilter_00000003794846428997884060000015422738518061060534_" filterUnits="userSpaceOnUse" x="155" y="88" width="79" height="79">
					<feColorMatrix  type="matrix" values="1 0 0 0 0  0 1 0 0 0  0 0 1 0 0  0 0 0 1 0"/>
				</filter>
			</defs>
			
				<mask maskUnits="userSpaceOnUse" x="155" y="88" width="79" height="79" id="SVGID_00000099642952025006737920000017048039531784099461_">
				<g style="filter:url(#Adobe_OpacityMaskFilter_00000003794846428997884060000015422738518061060534_);">
					<g>
						<defs>
							<polygon id="SVGID_00000179604459966162836580000008562064478593173389_" points="1,1 2,1 1,2 							"/>
						</defs>
						<defs>
							<polygon id="SVGID_00000065054549121781103450000005786521952617460411_" points="-1,-1 -2,-1 -1,-2 							"/>
						</defs>
						
							<clipPath id="SVGID_00000000205825418684679020000000137171716413386669_" style="clip-path:url(#SVGID_00000021823898928796705340000006645399960651622027_);">
							<use xlink:href="#SVGID_00000179604459966162836580000008562064478593173389_"  style="overflow:visible;"/>
						</clipPath>
						
							<clipPath id="SVGID_00000011023785670016376010000007360682870086004610_" style="clip-path:url(#SVGID_00000000205825418684679020000000137171716413386669_);">
							<use xlink:href="#SVGID_00000065054549121781103450000005786521952617460411_"  style="overflow:visible;"/>
						</clipPath>
						
							<radialGradient id="SVGID_00000031165251918928160190000018076204652695768236_" cx="194.48" cy="322.3598" r="39.5" gradientTransform="matrix(1 0 0 -1 0 449.8898)" gradientUnits="userSpaceOnUse">
							<stop  offset="0" style="stop-color:#FFFFFF"/>
							<stop  offset="0.2084" style="stop-color:#FCFCFC"/>
							<stop  offset="0.3434" style="stop-color:#F4F4F4"/>
							<stop  offset="0.4576" style="stop-color:#E5E5E5"/>
							<stop  offset="0.5603" style="stop-color:#D0D0D0"/>
							<stop  offset="0.6552" style="stop-color:#B4B4B4"/>
							<stop  offset="0.7444" style="stop-color:#939393"/>
							<stop  offset="0.8292" style="stop-color:#6B6B6B"/>
							<stop  offset="0.9105" style="stop-color:#3D3D3D"/>
							<stop  offset="0.9863" style="stop-color:#0A0A0A"/>
							<stop  offset="1" style="stop-color:#000000"/>
						</radialGradient>
						
							<circle style="clip-path:url(#SVGID_00000011023785670016376010000007360682870086004610_);fill:url(#SVGID_00000031165251918928160190000018076204652695768236_);" cx="194.5" cy="127.5" r="39.5"/>
					</g>
				</g>
			</mask>
			
				<radialGradient id="SVGID_00000017487071264129576750000006658951071448307595_" cx="194.48" cy="322.3598" r="39.5" gradientTransform="matrix(1 0 0 -1 0 449.8898)" gradientUnits="userSpaceOnUse">
				<stop  offset="0" style="stop-color:#FFFFFF"/>
				<stop  offset="0.2084" style="stop-color:#FCFCFC"/>
				<stop  offset="0.3434" style="stop-color:#F4F4F4"/>
				<stop  offset="0.4576" style="stop-color:#E5E5E5"/>
				<stop  offset="0.5603" style="stop-color:#D0D0D0"/>
				<stop  offset="0.6552" style="stop-color:#B4B4B4"/>
				<stop  offset="0.7444" style="stop-color:#939393"/>
				<stop  offset="0.8292" style="stop-color:#6B6B6B"/>
				<stop  offset="0.9105" style="stop-color:#3D3D3D"/>
				<stop  offset="0.9863" style="stop-color:#0A0A0A"/>
				<stop  offset="1" style="stop-color:#000000"/>
			</radialGradient>
			
				<circle style="clip-path:url(#SVGID_00000021823898928796705340000006645399960651622027_);mask:url(#SVGID_00000099642952025006737920000017048039531784099461_);fill:url(#SVGID_00000017487071264129576750000006658951071448307595_);" cx="194.5" cy="127.5" r="39.5"/>
		</g>
	</g>
	
		<radialGradient id="SVGID_00000066500822545079879220000002416868039322884526_" cx="194.48" cy="322.3598" r="39.5" gradientTransform="matrix(1 0 0 -1 0 449.8898)" gradientUnits="userSpaceOnUse">
		<stop  offset="0" style="stop-color:#FFFF94"/>
		<stop  offset="0.2959" style="stop-color:#FFFE97"/>
		<stop  offset="0.4875" style="stop-color:#FFFB9F"/>
		<stop  offset="0.6496" style="stop-color:#FEF6AE"/>
		<stop  offset="0.7952" style="stop-color:#FEF0C3"/>
		<stop  offset="0.9285" style="stop-color:#FDE7DE"/>
		<stop  offset="1" style="stop-color:#FDE1F0"/>
	</radialGradient>
	<circle style="fill:url(#SVGID_00000066500822545079879220000002416868039322884526_);" cx="194.5" cy="127.5" r="39.5"/>
	<circle class="st50" cx="194.5" cy="127.5" r="30"/>
	<path class="st51" d="M600,0.2v64.2c-15.5,0.4-30.1,3-39.3,11.7c-7,6-6,14-16,17c-9,3-25-3-34-4c-18-4-40-14-57-4
		c-12,6-23,17-35,24c-28,16-67,1-80,35c-6,19-8,20-26,28c-7.9,3.6-22.1,10.3-27.5,19.4c-25.4,0.1-50.7,0.3-76.1,0.5
		c2.5-2.2,6-3.6,14.6-4.9c13-2,18-3,27-15c8-10,9-15,21-21c9-5,21-7,26-17c3-9-4-14-3-22c2-12,3-6,10-12c12-10,21-10,35-14
		c6-2,15-4,19-10c5-7-2-12,3-18c7-8,34-8,45-10c14-2,30-1,43-4c14-3,23-11,37-13c9-2,46-7,40-23c-1.3-4.2-6.3-6.1-12.1-7.9
		C514.6,0.2,600,0.2,600,0.2z"/>
	<path class="st52" d="M600,64.5v45.7c-3.5-0.9-7-1.6-10.3-2c-25-3-50,17-76,12c-11-2-23-12-35-13c-12,0-24,12-35,16
		c-26,11-58,7-79,29c-6,6-6,14-12,19c-5,3-11,2-16,4c-10,4.3-15.9,9.1-20.7,16.2c-10.3,0-20.5,0.1-30.8,0.2
		c5.4-9.1,19.6-15.8,27.5-19.4c18-8,20-9,26-28c13-34,52-19,80-35c12-7,23-18,35-24c17-10,39,0,57,4c9,1,25,7,34,4c10-3,9-11,16-17
		C569.9,67.4,584.5,64.8,600,64.5z"/>
	<g class="st53">
		<path class="st54" d="M144.5,192.6c-11,0.1-22.1,0.1-33.1,0.2c-8.5-5.4-18.5-8.1-32.7-9.6c-7-1-16,0-23-4c-4-2-4-8-8-10
			c-11.6-6.4-31.5-0.8-47.7-0.9v-64.6c0.9,0.2,1.8,0.3,2.7,0.5c9,2,45-4,52,4c9,8-5,20,1,29c4,7,24,17,32,21c11,5,32,3,40,9
			c7,5,3,12,9,19C138.7,188.6,141.4,190.7,144.5,192.6z"/>
	</g>
</g>
<g>
	<g class="st55">
		<g>
			<path class="st56" d="M40.7,371c-3.2-0.5-4.8-0.7-7.9-1.2c15.5-12.5,31.2-24.7,47-36.8c2.3,0.3,3.5,0.5,5.9,0.8
				C70.5,346,55.5,358.4,40.7,371z"/>
			<path class="st56" d="M90.4,341.6c-2.9-0.4-4.3-0.6-7.2-0.9c2.8-2.3,4.2-3.5,7.4-6.1c7.9,1.1,12.1,1.6,20.9,2.7
				c-2.8,2.6-4.1,3.8-6.6,6.2c-3-0.4-4.5-0.6-7.5-1c-11.5,10.4-22.7,21.2-33.9,31.8c-3.2-0.5-4.8-0.7-7.9-1.2
				C67.1,362.6,78.6,351.9,90.4,341.6z"/>
			<path class="st56" d="M115.6,345.1c2.2,0.3,2.3,1.7,0.7,3.3c-2.2,2.2-10.5,6.9-13.6,6.1c-0.2,0-0.1-0.4,0.1-0.6
				c2.2-1,3.3-1.5,5.6-2.5c0.2-0.2,0.3-0.5,0-0.8c-0.7-0.8-1-1.8,0.2-3C110.1,346,113.3,344.9,115.6,345.1z"/>
			<path class="st56" d="M130.7,372.6c-2.4,2.8-5.4,5.1-9.2,6.9c-2.5,1.2-5.3,2-8.2,2.2c-1.6,0.1-3.2,0.1-4.9-0.2
				c-3.1-0.5-5.1-1.5-5.9-3c-0.7-1.3-0.8-2.9-0.1-4.7c0.6-1.8,1.8-3.8,3.6-5.9c3.1,0.3,4.6,0.4,7.7,0.7c-1.8,2.3-2.5,4.1-2.2,5.4
				c0.2,0.9,0.9,1.5,2.2,1.6c1.7,0.2,3.7-0.3,5.9-1.4c1.1-0.5,2.1-1.4,3.2-2.5c1.5-1.6,2-3.5,1.4-5.2c-0.4-1.2-1.4-3.3-2.4-5.8
				c-0.9-2.1-1.2-4-0.8-5.6c0.4-1.7,1.5-3.6,3.4-5.5c3.4-3.5,7.7-6.1,12.5-7.7c3-1,5.9-1.3,8.5-0.9c2.6,0.3,4.3,1.1,5.2,2.4
				c0.7,1,0.9,2.2,0.5,3.7c-0.4,1.5-1.2,3.1-2.6,4.8c-3.2,0.1-4.8,0.1-8.1,0.1c1.2-1.6,1.8-3,1.7-4c-0.1-0.7-0.7-1.2-2-1.4
				c-1.4-0.2-2.9,0.2-4.5,1.1c-1.3,0.7-2.5,1.6-3.6,2.8c-1.7,1.8-2.3,3.7-2,5.7c0.1,0.8,0.5,1.7,1.2,2.9c0.8,1.3,1.2,2.3,1.4,2.8
				c0.6,1.7,0.8,3.3,0.6,4.8c-0.1,0.7-0.2,1.4-0.4,2C132.3,370.1,131.6,371.4,130.7,372.6z"/>
			<path class="st56" d="M168.7,351.4c-3-0.4-4.5-0.6-7.6-1c2.1-2.5,3.2-3.7,5.4-6.3c8.8,1.1,13.1,1.7,21.1,2.7
				c-1.9,2.5-2.9,3.8-4.7,6.3c-2.8-0.4-4.3-0.6-7.2-0.9c-9,11.5-17.9,23-26.9,34.5c-3.2-0.5-4.8-0.7-7.9-1.2
				C150.2,374.3,159.4,362.8,168.7,351.4z"/>
			<path class="st56" d="M171.5,390.2c-3.2-0.5-4.7-0.7-7.9-1.2c9.7-13.8,19.3-27.6,29.1-41.4c2.5,0.3,3.7,0.5,6,0.8
				C189.6,362.4,180.6,376.3,171.5,390.2z"/>
			<path class="st56" d="M186.5,392.4c-3.2-0.5-4.7-0.7-7.9-1.2c8.4-14,16.8-28,25.2-42.1c3.3,0.5,4.9,0.7,8.2,1.2
				c-3.4,10.5-6.4,20.9-9.1,31.5c6.8-9.8,13.4-19.8,19.5-30c3.1,0.5,4.7,0.7,7.8,1.1c-5,14.5-10,29.1-15,43.6
				c-3.2-0.5-4.7-0.7-7.9-1.2c3.6-9.1,7.2-18.1,10.8-27.2c-5.6,8.9-11.6,17.6-17.6,26.2c-2.5-0.4-3.8-0.6-6.4-0.9
				c1.8-9.3,4.1-18.6,6.8-27.7C196.1,374.7,191.3,383.5,186.5,392.4z"/>
			<path class="st56" d="M222.3,397.6c4.3-14.6,8.7-29.3,13-43.9c6.5,0.9,9.7,1.4,16.2,2.4c-0.4,2.7-0.6,4.1-1,6.8
				c-4.4-0.6-6.7-1-11.1-1.6c-1.2,4.8-1.8,7.2-2.9,12.1c3.6,0.5,5.4,0.8,8.9,1.3c-0.5,2.7-0.7,4.1-1.2,6.8c-3.8-0.5-5.6-0.8-9.4-1.4
				c-1.2,4.8-1.8,7.2-2.9,12.1c5.6,0.8,8.4,1.2,13.9,2c-0.4,2.7-0.6,4.1-1,6.8C235.8,399.6,231.3,399,222.3,397.6z"/>
			<path class="st56" d="M265.1,365c-2.5-0.4-3.8-0.6-6.4-0.9c0.2-2.8,0.3-4.1,0.6-6.9c7.1,1,10.6,1.5,17.7,2.6
				c0.2,2.8,0.3,4.2,0.5,7c-2.5-0.4-3.8-0.5-6.4-0.9c0.2,13,0.5,26,0.8,39c-3.1-0.5-4.7-0.7-7.9-1.1
				C264.4,390.9,264.7,378,265.1,365z"/>
			<path class="st56" d="M289.7,361.1c2.5,0.4,4.8,1.8,7.1,4.2c2.3,2.5,3.9,5.3,4.7,8.4c2.6,10.4,3.9,15.6,6.4,26
				c0.8,3.2,0.3,5.7-1.6,7.5c-1.9,1.9-4.6,2.5-8.1,2c-3.5-0.5-6.6-2-9.3-4.6c-2.6-2.5-4.1-5.3-4.4-8.4c-1-10.2-1.6-15.2-2.6-25.4
				c-0.3-3.1,0.4-5.6,1.9-7.5C285.4,361.5,287.3,360.7,289.7,361.1z M295,372.7c-0.2-1.1-0.8-2.1-1.6-3c-0.8-0.9-1.7-1.4-2.6-1.5
				c-1-0.1-1.7,0.1-2.2,0.8c-0.6,0.7-0.8,1.6-0.6,2.7c1.5,10.3,2.3,15.4,3.8,25.6c0.2,1.1,0.7,2.1,1.7,3s2.1,1.5,3.3,1.6
				c1.2,0.2,2.1-0.1,2.8-0.7c0.7-0.7,0.9-1.6,0.7-2.7C298.1,388.2,297.1,383,295,372.7z"/>
			<path class="st56" d="M321.5,412.2c-5-16-10-32-14.9-48.1c3.4,0.5,5.1,0.7,8.5,1.2c2.2,0.3,4.5,1.4,7.1,3.2
				c2.2,1.5,4.3,3.7,6.3,6.6c1.1,1.5,2.2,3.3,3.2,5.3c1.6,3.3,2.2,5.9,1.5,7.6c-0.3,0.7-1.6,1.6-1.6,1.6c0,0.2,3.8,2.3,5.9,4.3
				c1.4,1.4,2.8,3.1,4.2,5.1c0.7,1,1.4,2.2,2,3.5c1.6,3.1,2.2,5.7,2,7.6c-0.2,1.5-1.1,2.7-2.6,3.4c-1.7,0.8-3.7,1.1-5.9,0.8
				C330.6,413.5,327.5,413,321.5,412.2z M319.9,384.8c1.1,0.2,1.7,0.2,2.9,0.4c2.1,0.3,3.1-0.6,2.9-2.8c-0.1-0.8-0.4-1.8-0.9-3
				c-0.9-2-2-3.6-3.2-4.8c-1.2-1.1-2.3-1.7-3.5-1.9c-1-0.1-1.5-0.2-2.5-0.4C317.2,377.3,318.1,379.8,319.9,384.8z M327.8,406.2
				c1.4,0.2,2,0.3,3.4,0.5c2.8,0.4,4.2-0.6,4.1-3c0-0.8-0.3-1.8-0.8-3c-1.2-2.7-2.6-4.8-4.2-6.2c-1.4-1.3-3-2.1-4.8-2.3
				c-1.2-0.2-1.8-0.3-3-0.4C324.6,397.6,325.7,400.5,327.8,406.2z"/>
			<path class="st56" d="M358.3,417.3c-9.3-16.6-18.6-33.2-27.8-49.8c6.4,0.9,9.7,1.4,16.1,2.3c2.3,3,3.4,4.6,5.7,7.7
				c-4.6-0.6-6.9-1-11.5-1.6c3.4,5.5,5.1,8.2,8.6,13.8c3.9,0.5,5.8,0.8,9.7,1.4c2.2,3.1,3.3,4.7,5.6,7.8c-4.2-0.6-6.3-0.9-10.5-1.5
				c3.5,5.5,5.2,8.3,8.6,13.7c6.5,0.9,9.7,1.4,16.3,2.3c2.3,3.1,3.5,4.6,5.7,7.6C374.1,419.5,368.7,418.8,358.3,417.3z"/>
			<path class="st56" d="M406.9,424.5c-4.2-0.6-8.8-2.2-13.6-5c-4.8-2.8-8.4-5.8-11.1-9.1c-7.5-9.4-15-18.8-22.5-28.2
				c-2.7-3.4-4-6.2-4.2-8.3c-0.1-2.1,0.9-3,3.4-2.6c2.5,0.4,5.6,1.9,9.8,4.5c4.1,2.7,8.1,5.8,11.6,9.3c2.4,2.4,3.6,3.6,6.1,6.1
				c-2.9-0.4-4.3-0.6-7.2-1c-2.3-2.5-3.5-3.7-5.8-6.2c-1.2-1.3-2.5-2.4-4.1-3.4s-2.8-1.5-3.7-1.7c-1-0.1-1.4,0.2-1.3,1
				c0.1,0.8,0.6,1.8,1.7,3c8.2,9.5,16.4,19.1,24.6,28.6c1.1,1.2,2.5,2.4,4.2,3.3c1.7,1,3.3,1.6,4.7,1.8s2.2-0.1,2.4-0.8
				c0.2-0.7-0.3-1.7-1.5-3c-3.8-4.1-5.8-6.2-9.7-10.3c-1.7-0.2-2.6-0.4-4.3-0.6c-2.9-3.2-4.3-4.8-7.2-8c4.6,0.6,6.9,1,11.5,1.6
				c7.5,7.5,11.2,11.3,18.6,18.6c3.5,3.5,5.1,6.2,4.6,8.2C413.5,424.4,411,425.1,406.9,424.5z"/>
			<path class="st56" d="M438.3,428.2c-3.6-0.5-5.4-0.8-9.1-1.2c-18.8-17.6-37.3-35.4-55.9-53.2c2.2,0.3,3.4,0.5,5.6,0.8
				C398.7,392.5,418.3,410.5,438.3,428.2z"/>
			<path class="st56" d="M390.2,376.2c18,13,36,25.8,54.3,38.4c-15.6-12.4-31.2-25-46.9-37.3c2.2,0.3,3.4,0.5,5.6,0.8
				c23.9,18.5,47.7,37.2,71.8,55.4c-3.4-0.5-5.1-0.7-8.6-1.2c-18.1-11.8-35.9-24-53.5-36.5c13.9,11.7,27.9,23.3,42,34.8
				c-3.4-0.5-5.2-0.7-8.7-1.2c-20.9-17.8-41.6-36-62.3-54C386.4,375.7,387.7,375.9,390.2,376.2z"/>
		</g>
	</g>
</g>
<path class="st57" d="M522.7,434c-8.5,1.5-23-5.5-32-7c-10.5-2-20.5-3.5-30.5-3.5c-3.5,0-9.5-1-13,0c-7.5,2.5-3.5,4-3.5,9.5
	c0,4.5-2.5,6.5-3,10.5c-0.4,2.2-0.1,4.5,0.8,6.9h-76.1c-17-14.1-32.5-29.4-49.7-42.9c-7.5-5.5-15-10-22.5-15c-4-3-5-6.5-8-9
	c-5.5-5-15-4-21.5-8c-9.3-4.6-9.7-9.4-8.1-18.4c0.2,0.3,0.5,0.6,0.9,0.9c1.5,1.4,4.1,2.5,6,3.2c4.7,1.6,10.9,2.5,15.9,2.6
	c5.4,0.2,10.4,0.4,16.1,1.6c2.9,0.6,5.1,1.2,6.8,0.5c5.5,3,1.8,10.7,4,15.6c2,6,10.5,9,15,12c12,8,22,19,34,27
	c14.5,9.5,28-1.5,43.5,4c4,1,8.5,4,12.5,3c7-2,3.5-6,1.5-12c-3-7-4.5-8,3.5-10.5c6.5-1.5,15,0,21.5,0c16.5,0,32,5,47,10
	c5.5,1.5,11.5,3,17,2.5c10-1,6-7.5,13-10.5C522.7,404,537.7,431,522.7,434z"/>
<g>
	<path class="st58" d="M307.1,348.1c-1.1,2.8-1.8,8.3-3.7,11.6c-1.1,7.8-4.2,6.5-9.7,5.4c-5.7-1.2-10.7-1.4-16.1-1.6
		c-5-0.2-11.2-1-15.9-2.6c-1.9-0.8-4.5-1.9-6-3.2c-2.6-2.4-1.9-4.2-1.4-7.6c0.7-5.8,13.4-3.6,17.1-4.2c8-1.3,14.7-5,21.6-9.2
		c0.2,0.3,0.4,0.6,0.6,0.9c1.6,2.2,4,4,6.1,5.4c1.9,1.4,4.1,3,6.5,4.6C306.6,347.7,306.9,347.9,307.1,348.1z"/>
	<path class="st59" d="M533.4,321.4c-4.5,3.3-11.3-6.9-14.1-9.1c-6.2-4.7-13.2-6.9-20.6-9c0.1-0.4,0.2-0.8,0.2-1.2
		c0.4-2.6,0.1-5.3-0.3-7.7c-0.3-2.1-0.6-4.5-1-7c-0.1-0.5-0.2-0.9-0.3-1.4c2.7-1.1,7-4.2,10.4-5c6.1-4.3,7.3-1.3,10.1,3.2
		c2.9,4.7,6.1,8.3,9.5,12.2c3.2,3.6,6.6,8.4,8.6,12.8c0.7,1.8,1.7,4.3,1.7,6.3C537.9,318.9,536.2,319.6,533.4,321.4z"/>
	<path class="st60" d="M435.8,135.5c-0.1,0.2-0.1,0.4-0.2,0.6c0,0.1,0,0.1-0.1,0.2c-0.1-0.1-0.2-0.1-0.3-0.2c0,0,0,0,0,0l0.3,0.2
		c-1.1,3.4-2.8,6.6-4.9,9.4c-2.9,3.8-6.5,5.6-10.1,7.4c-0.3,0.2-0.7,0.3-1,0.5c-5.9-4-13.5-9.6-16.1-15.3
		c-2.3-4.6-1.3-14.9,4.6-16.6l0.1-0.1c4.6-1.4,8.9-1.7,13.5,1.2c0.6,0.4,1.2,0.8,1.8,1.2c0.1,0.1,0.2,0.1,0.3,0.2c0,0,0.1,0,0.1,0
		c0.1,0.1,0.1,0.1,0.2,0.2c0.5,0.3,0.9,0.7,1.4,1.1l1.5,1.3C430,129.3,433,132.5,435.8,135.5z"/>
	<path class="st61" d="M406.4,114.3c-3.6,2.3-7.5,3.3-11.6,5.5c-2.8,1.4-5.5,3.3-7.6,6.1c-1.2,1.5-1.8,3.9-3.7,4.8
		c-0.7-1.1-1.2-2.7-1.1-4.1c-0.1-0.5-0.1-1-0.1-1.5c0-0.1,0-0.1,0.1-0.2c0-0.1,0-0.3,0-0.4c1.1-0.5,1.8-1.1,2.8-2.2
		c1-1,1.7-2.2,1.5-4c-0.1-1.7-1.4-2.3-2-3.7c-0.4-0.9-0.5-2-0.9-3c-0.1-0.1-0.3-0.2-0.4-0.3c-0.1-0.1-0.2-0.2-0.2-0.3
		c-1.7-1.1-5.3-1.4-7-2.3c-2.9-1.4-2.5-2.9-2.2-5.6c0.1-1.1-0.2-2.2,0-3.3c0.3-1.2,1.4-2.8,1.3-4.3c-0.1-1.6-1.9-1.9-2-3.3
		c-0.2-1.6,1.5-2.2,2.5-3.1c0.9-0.8,2-2.3,2.5-3.5c0.5-1.2,0-1.9,0-3.3c0-3,2.1-6.4,4.5-8.1c0,0,0,0,0-0.1c-0.1-0.2-0.2-0.3-0.4-0.4
		c4-4.9,11.8-4.3,17.5-3.2c2.9,0.6,5.7,2.1,8,4.2c2.8,2.5,3.5,5.2,4.4,8.8c1.4,6.3-1.1,11.7-5,16.5c-1.7,2.1-3,5-3.1,7.8
		c-0.1,1.4,0.4,2.9,1,4.3C405.5,112.8,406,114,406.4,114.3z"/>
	<path class="st62" d="M419.7,229.4c-0.3,2.3-1.3,4.5-2.7,6.6c-0.1,0.1-0.1,0.2-0.2,0.3c0,0,0,0,0,0c-3.3,4.7-8.7,8.6-12.4,11.5
		c-3.4,2.7-9.1,6.5-13.9,10.6c0,0-0.1,0.1-0.1,0.1c0,0,0,0,0,0c-2.1,1.9-4,3.8-5.4,5.7c-0.9-0.5-1.7-1.1-2.5-1.6
		c-5.7-3.9-11.1-8.6-15.7-12.8c-4.2-3.6-6-8.2-8.2-12.6l0-0.1l-0.4-0.8c1.8-2.3,3.8-4.4,5.8-6.3c3.2-3.5,8.1-6.2,10.7-10.1
		c1.9-2.9,1.9-6.7,0.6-10.9c5.9-2.4,15.6-1.4,19.9-1.4c4.4,0,9.5-1.2,12.7-0.7c2.5,0.2,5,0.2,7.6,0.5c1,0.1,2,0.3,3,0.6l0,0
		c0.1,0.2,0.8,1.9,1.5,4.1c0.4,1.4,0.8,3,0.9,4.5c0.3,3.4,0,6.6-0.5,10.1C420,227.8,419.9,228.6,419.7,229.4z"/>
	<path class="st62" d="M419.5,246c-0.2,0.4-0.5,0.8-0.8,1.1c-6.3,8.8-16.6,10.9-26.2,15.4c-0.1,0.1-0.2,0.1-0.4,0.1
		c-0.2-0.5-0.4-1.1-0.6-1.6c-0.5-1.3-1.1-2.1-1.3-2.4c0,0,0.1-0.1,0.1-0.1c4.7-4.1,10.5-7.9,13.9-10.6c3.7-2.9,9.1-6.8,12.4-11.5
		c0,0.8,0.1,1.6,0.5,3.3c0,0.1,0,0.1,0,0.2l0,0.1C417.7,242.1,418.4,244,419.5,246z"/>
	<path class="st61" d="M382.4,262.8l-1.9,1.7c-5.7,4.9-12.8,7.9-19.2,11.9c-7.1,4.8-11.9,5.6-15.7,18.4
		c-5.5,18.3-20.7,29.4-33.2,41.9c-1.5,1.6-2.7,3-3.6,4.6c-1.3-1.3-2.5-2.6-3.7-3.9c-1.6-1.7-3.6-3.8-5.8-5.2
		c2.6-5.7,4.5-11.3,7.8-16.9c4.5-7.8,8.9-15.6,12.8-23.8c2.9-5.8,3-12.5,5.3-18.4c2.9-7.8,11.7-13.2,18.2-18.2
		c5.5-4.2,9.1-10.2,13.4-15.4l0.6-0.7l0.6-0.8l0.5-0.6l0,0.1c2.2,4.4,4,8.9,8.2,12.6C371.3,254.1,376.7,258.8,382.4,262.8z"/>
	<path class="st63" d="M491.8,302.2c-7.7,1.7-15.3,3.9-22.8,4.5c-8.7,0.8-17.1,0.3-26,0.1c-3.8,0-10.4-0.1-14.2-0.1
		c-4.2,0.3-6.5,2.9-10.7,1.3c-6.8-3-12.1-17.5-16.3-24.4c-2.1-4.5-5.5-9.6-7-14.2c-0.1-0.2-0.1-0.4-0.1-0.5l-0.1,0
		c-0.4-1.3-0.8-2.5-1.2-3.8c0,0,0,0,0-0.1c-0.5-1.5-0.5-1.6-0.8-2.4c9.6-4.5,19.9-6.6,26.2-15.4l1,2.8c1.4,3.7,2.7,6.2,4.1,10.4
		c1.1,3.1,3.1,9.4,4.5,12.2c1.2,2.2,1.4,8.5,4.1,12.5c11.7-0.7,15.6-3.4,25.1-2.2c8,0.9,21.8,4.7,32,5.5c-0.2,1.1-0.3,2.3-0.1,3.3
		c0.2,1.7,0.5,3.4,0.7,5.1c0.2,1.5,0.7,2.9,1.2,4.3C491.5,301.5,491.6,301.8,491.8,302.2z"/>
	<path class="st63" d="M371.5,175.4c0,0.1-0.1,0.1-0.2,0.2l-2.2,2.6c-2.3,2.7-4.2,4.9-7.2,6.6c-2.9,1.7-2.2,1.5-5.6,0.8
		c-6.4-1.6-11.6-3.4-17.1-7.4c-4.1-2.6-8-4.7-12.8-5.7c-4.6-1-12.9-2.4-15.7-7.1c-2.5-4.7,5-11.5,8.5-13.8c3-2.4,4.6-2.1,7.8,0.1
		c3.6,2.5,3,4.8,4.4,7.9c3.5,7.7,16.7,6.8,24.7,9c2-8.4,6.6-16.8,12.2-23.6l1.3-1.5l0.3-0.3c0.8,0.8,1.7,1.6,2,2.3
		c0.7,1.8,0.2,2.9,0.2,4.8c-0.1,5,0.7,10.1,0.3,15c-0.3,3.5-0.9,6.6-1,9.9C371.5,175.2,371.5,175.3,371.5,175.4z"/>
	<path class="st61" d="M463,170.8c-3.6,10.3-8.2,20.5-15.1,29.3c-4.4,5-6.2,10.4-8.2,16.7c-1,3.4-2,10.8-4.8,13
		c-2.7,1.9-5.1,0.6-7.5-0.6c-2.4-1-4.9-1.3-7.2-2.2c-0.1,0-0.3-0.1-0.4-0.2l-0.5-0.2c0,0,0,0,0,0c-4-1.6-2.2-2.3-2.9-5.2
		c-0.3-1.6-1.3-2.9-1.6-4.5c0.3-1.9,1.4-2.7,2.2-3.3c0.2-0.1,0.4-0.3,0.6-0.4c0.7-0.5,1.5-0.8,2.2-1c2.7-0.6,5.6,0.1,8.3-2
		c3.5-2.7,6.5-9.4,8.4-13.3c4.7-9.3,4.8-19.4,7.7-29.2c-2.1-2.3-6.5-3.2-10.1-4.9c-2.1-1-4-2.5-5.8-4.1c0,0-0.1-0.1-0.1-0.1
		c-1.2-1.1-2.5-2.2-3.7-3.1c-0.2-0.2-0.4-0.4-0.6-0.5c-0.2-0.2-0.5-0.4-0.8-0.6c-1.3-0.9-1.6-0.9-2.3-1.3l-0.3-0.2
		c3.6-1.9,7.2-3.6,10.1-7.4c2.2-2.7,3.8-6,4.9-9.4c0-0.1,0-0.1,0.1-0.2l0.2,0.2l1.8,1.6c1.9,1.6,3.9,3.3,6,4.7
		c4.7,2.9,10.3,9,13.8,13.4c0.9,1.6,2.5,2.8,3.4,4.1c0.9,1.6,2.4,3.5,2.9,4.7C464.5,166.2,463.5,169.2,463,170.8z"/>
	<path class="st60" d="M427.4,161.2c-5.2,14.1-8.3,32.2-8.8,47.1c-0.1,0-0.2-0.1-0.3-0.1l0,0c-1-0.3-2-0.5-3-0.6
		c-2.5-0.3-5.1-0.2-7.6-0.5c-3.2-0.5-8.3,0.7-12.7,0.7c-4.3,0-14-0.9-19.9,1.4c0,0,0,0,0,0c0,0-0.1,0-0.1,0.1
		c-1.5,0.6-2.7,1.4-3.5,2.6c-0.7-4.9-0.4-16.2-0.1-19c0.4-4,1.6-8.6,0.6-12.5c-0.3-1.7-0.4-3.4-0.4-4.9c0-0.1,0-0.2,0-0.3
		c0.1-3.2,0.7-6.3,1-9.9c0.4-4.9-0.5-10.1-0.3-15c0.1-1.9,0.5-3-0.2-4.8c-0.3-0.8-1.2-1.5-2-2.3c0,0,0-0.1-0.1-0.1
		c-0.5-0.5-0.9-1.1-1-1.7c-0.5-1.5,1.5-4.7,2-6.3c2.8-5.5,6.3-8.9,11.5-10.9c0,0.1,0,0.3,0,0.4c0,0.1,0,0.3,0,0.4
		c0,0.1-0.1,0.2-0.1,0.2c0,0.5,0,1,0.1,1.5c-0.1,1.4,0.4,3,1.1,4.1c1.9-0.9,2.5-3.3,3.7-4.8c2.1-2.8,4.8-4.7,7.6-6.1
		c4.1-2.2,8-3.2,11.6-5.5c0,0,0.1,0,0.1-0.1c2.2,0.8,6.2,1.8,10.2,4.1l8.6,7.1c-0.5-0.4-0.9-0.7-1.4-1.1c0-0.1-0.1-0.1-0.2-0.2
		c0,0-0.1,0-0.1,0c-0.1-0.1-0.2-0.1-0.3-0.2c-0.6-0.4-1.2-0.8-1.8-1.2c-4.6-2.9-8.9-2.6-13.5-1.2l-0.1,0.1c-5.9,1.7-6.9,12-4.6,16.6
		c2.6,5.7,10.3,11.3,16.1,15.3c0.4-0.2,0.7-0.4,1-0.5l0.3,0.2l2.3,1.3c0.3,0.2,0.5,0.4,0.8,0.6c0.2,0.1,0.5,0.3,0.6,0.5
		c1.3,1,2.5,2.1,3.7,3.1c0,0,0.1,0.1,0.1,0.1C427.9,159.8,428,159.4,427.4,161.2z"/>
	<path class="st60" d="M499,302.2c-2.3-0.2-4.8-0.1-7,0.5c-0.1-0.2-0.1-0.4-0.2-0.6c-0.1-0.4-0.3-0.7-0.4-1.1
		c-0.5-1.4-1-2.8-1.2-4.3c-0.2-1.7-0.5-3.4-0.7-5.1c-0.2-1.1,0-2.2,0.1-3.3c0-0.2,0.1-0.5,0.1-0.7c2.6,0.4,5.4,0.5,8-0.1
		c0.5,2.5,0.7,4.9,1,7C499.1,296.9,499.4,299.7,499,302.2z"/>
	<path class="st60" d="M309.1,341.6c-1.2,1.8-1.9,3.9-2.7,5.9c-2.4-1.5-4.6-3.2-6.5-4.6c-2.1-1.4-4.5-3.2-6.1-5.4
		c1.7-1.8,3.2-3.9,4.2-6.3c0.4,0.2,0.9,0.5,1.3,0.7c2.2,1.4,4.2,3.5,5.8,5.2c1.2,1.3,2.5,2.7,3.7,3.9c0,0,0.1,0.1,0.1,0.1
		C308.9,341.5,309,341.5,309.1,341.6z"/>
	<path class="st64" d="M533.3,321c-4.5,3.3-11.3-6.9-14.1-9.1c-6.2-4.7-13.2-6.9-20.6-9c0.1-0.4,0.2-0.8,0.2-1.2
		c-2.3-0.2-4.8-0.1-7,0.5c-0.1-0.2-0.1-0.4-0.2-0.6c-7.7,1.7-15.3,3.9-22.8,4.5c-8.7,0.8-17.1,0.3-26,0.1c-3.8,0-10.4-0.1-14.2-0.1
		c-4.2,0.3-6.5,2.9-10.7,1.3c-6.8-3-12.1-17.5-16.3-24.4c-2.1-4.5-5.5-9.6-7-14.2c-0.1-0.2-0.1-0.3-0.1-0.5l-0.1,0
		c-0.4-1.3-0.8-2.5-1.2-3.8c0,0,0,0,0-0.1c-0.5-1.5-0.5-1.7-0.8-2.4c-0.1,0.1-0.2,0.1-0.4,0.1c-0.2-0.5-0.4-1.1-0.6-1.6
		c-0.5-1.3-1.1-2.1-1.3-2.4c0,0,0.1-0.1,0.1-0.1c4.7-4.1,10.5-7.9,13.9-10.6c3.7-2.9,9.1-6.8,12.4-11.5c0,0.8,0.1,1.6,0.5,3.3
		c0,0.1,0,0.1,0,0.2l0,0.1c0.4,2,1.1,4,2.2,6c-0.2,0.4-0.5,0.8-0.8,1.1l1,2.8c1.4,3.7,2.7,6.2,4.1,10.4c1.1,3.1,3.1,9.4,4.5,12.2
		c1.2,2.2,1.4,8.5,4.1,12.5c11.7-0.7,15.6-3.4,25.1-2.2c8,0.9,21.8,4.7,32,5.5c0-0.2,0.1-0.5,0.1-0.7c2.6,0.4,5.4,0.5,8-0.1
		c-0.1-0.5-0.2-0.9-0.3-1.4c2.7-1.1,7-4.2,10.4-5c6.1-4.3,7.3-1.4,10.1,3.1c2.9,4.7,6.1,8.3,9.5,12.2c3.2,3.6,6.6,8.4,8.6,12.8
		c0.7,1.8,1.7,4.3,1.7,6.3C537.7,318.4,536,319.1,533.3,321z"/>
	<path class="st65" d="M371.5,175.4c0,0.1-0.1,0.1-0.2,0.2l-2.2,2.6c-2.3,2.7-4.2,4.9-7.2,6.6c-2.9,1.7-2.2,1.6-5.6,0.8
		c-6.4-1.6-11.6-3.4-17.1-7.4c-4.1-2.6-8-4.7-12.8-5.7c-4.6-1-12.9-2.4-15.7-7.1c-2.5-4.7,5-11.5,8.5-13.8c3-2.4,4.6-2.1,7.8,0.1
		c3.6,2.5,3,4.8,4.4,7.9c3.5,7.7,16.7,6.8,24.7,9c2-8.4,6.6-16.8,12.2-23.6l1.3-1.5l0.3-0.3c0.8,0.8,1.7,1.6,2,2.3
		c0.7,1.8,0.2,2.9,0.2,4.8c-0.1,5,0.7,10.1,0.3,15c-0.3,3.5-0.9,6.6-1,9.9C371.5,175.2,371.5,175.3,371.5,175.4z"/>
	<g class="st66">
		<path class="st67" d="M428.4,158.8c-0.5,0.9-0.4,0.6-1.1,2.3c-0.6,1.7-1.2,3.5-1.8,5.4c-2.3-1-4.4-2.5-6.1-4.2
			c-1.4-1.4-1.9-2.8-2.9-4.4c-2.1-3-6.3-5-9-7.2c-2.6-2.1-3.2-6.2-2.4-9.5c3.5,4.6,9.5,9,14.3,12.3c0.3-0.2,0.7-0.4,1-0.5l0.3,0.2
			l2.3,1.3c0.3,0.2,0.5,0.4,0.8,0.6c0.2,0.1,0.5,0.3,0.6,0.5c1.3,1,2.5,2.1,3.7,3.1C428.3,158.7,428.4,158.8,428.4,158.8z"/>
	</g>
	<path class="st68" d="M402.3,71.2c-4.4,1.6-10,0.1-14.8,2c-3.1,1.1-4.4,2-6.2,4.7c-1.3,2-1.8,3.1-2.9,6c-0.1-0.5-0.2-1-0.2-1.7
		c0-3,2.1-6.4,4.5-8.1c0,0,0,0,0-0.1c-0.1-0.2-0.2-0.3-0.4-0.4c4-4.9,11.8-4.3,17.5-3.2C400.7,70.7,401.5,70.9,402.3,71.2z"/>
	<path class="st68" d="M381.6,110.3c-1.8-0.6-4.1-0.9-5.3-1.6c-2.9-1.4-2.5-2.9-2.2-5.6c0.1-1.1-0.2-2.2,0-3.3
		c0.3-1.2,1.4-2.8,1.3-4.3c0-0.5-0.3-0.9-0.6-1.3c1.3,0.6,2.3,1.3,2,2.9c-0.4,1.7-1.2,2.7-0.8,4.4c0.3,1.6-0.3,3.9,0.4,5.2
		c0.8,1.7,2.8,1.8,4.1,2.6C380.9,109.6,381.3,109.9,381.6,110.3z"/>
	<path class="st68" d="M387.9,120.1c-0.2,1.6-1,3.1-2.2,4.1c-1,0.9-2.1,1.6-3.3,2.2c0-0.2,0-0.3,0-0.4c0-0.1,0-0.2,0-0.3
		c0-0.1,0-0.3,0-0.4c0-0.1,0-0.1,0.1-0.2c0-0.1,0-0.3,0-0.4c1.1-0.5,1.8-1.1,2.8-2.2c1-1.1,1.7-2.2,1.5-4c0-0.5-0.2-0.9-0.4-1.2
		c0.3,0.2,0.5,0.4,0.8,0.6C388,118.3,388,118.9,387.9,120.1z"/>
	<path class="st68" d="M359.2,238.8c-4.1,5.8-7.4,11.6-12.9,16.7c-4.5,4.6-9.8,7.1-15.3,9.1c3.8-3.7,8.5-6.9,12.4-9.8
		c5.5-4.2,9.1-10.2,13.4-15.4l0.6-0.7l0.6-0.8l0.5-0.6l0,0.1C358.7,237.8,359,238.3,359.2,238.8z"/>
	<path class="st68" d="M321.1,294.3c-2.8,4.5-5.6,9-8.1,13.5c-4.9,7.9-7.9,17-12.8,25c-0.4-0.3-0.7-0.5-1.1-0.8
		c2.6-5.7,4.5-11.3,7.8-16.9c4.5-7.8,8.9-15.6,12.8-23.8c1.5-3,2.3-6.3,3-9.5C323.4,286.2,323.8,289.6,321.1,294.3z"/>
	<path class="st68" d="M300.2,332.8C300.2,332.8,300.2,332.8,300.2,332.8c-2,2-1.6,4.3-3.2,6.8c-0.2,0.3-0.5,0.6-0.7,0.8
		c-1.6,1.5-3.3,0.8-5.5,1.5c-1.9,0.6-3.2,2.4-5,3.3c-1.8,0.9-3.5,1.6-5.4,2c-4,1-8.3,1.4-12.3,1.5c-2.7,0.1-7.9-0.8-9.6,1.7
		c-0.4,0.6-0.1,1.5-0.8,2.3c-0.5,0.6-1.8,1.1-2.4,1.2c-0.7,0.2-1.2,0.3-1.6,0.2c-0.1-1.2,0.2-2.5,0.5-4.1c0.7-5.8,13.4-3.6,17.1-4.2
		c8-1.3,14.8-5,21.6-9.2c0.2,0.3,0.4,0.6,0.6,0.9c1.7-1.9,3.2-3.9,4.2-6.3c0.4,0.2,0.9,0.5,1.3,0.7c0.3,0.2,0.5,0.4,0.8,0.6
		C300.1,332.7,300.2,332.7,300.2,332.8z"/>
</g>
</svg>
